<svg width="69" height="69" viewBox="0 0 69 69" fill="none" xmlns="http://www.w3.org/2000/svg">
<circle cx="61.6604" cy="16.6759" r="3" transform="rotate(135 61.6604 16.6759)" fill="#FEC741"/>
<circle cx="51.0536" cy="6.06934" r="3" transform="rotate(135 51.0536 6.06934)" fill="#FEC741"/>
<path fill-rule="evenodd" clip-rule="evenodd" d="M2.16089 34.5411C2.16089 16.868 16.4878 2.54113 34.1609 2.54113C40.0278 2.54114 45.5259 4.11999 50.2535 6.87597L51.8183 5.47997C46.6717 2.34621 40.6271 0.541135 34.1609 0.541135C15.3832 0.541133 0.160893 15.7634 0.160892 34.5411C0.16089 53.3188 15.3832 68.5411 34.1609 68.5411C52.9386 68.5411 68.1609 53.3188 68.1609 34.5411C68.1609 26.9528 65.675 19.9452 61.4731 14.2881L59.9742 15.6253C63.8637 20.924 66.1609 27.4643 66.1609 34.5411C66.1609 52.2143 51.834 66.5411 34.1609 66.5411C16.4878 66.5411 2.16089 52.2142 2.16089 34.5411Z" fill="#FEC741"/>
<path fill-rule="evenodd" clip-rule="evenodd" d="M18.9796 28.9723V27.6716C18.9796 27.2983 19.2753 27 19.6444 27H47.3549C47.7298 27 48.0196 27.2918 48.0196 27.6558V42.3442C48.0196 42.7043 47.7265 43 47.365 43H46.0498V45H47.365C48.8201 45 49.9996 43.8088 49.9996 42.3442V27.6558C49.9996 26.1891 48.8251 25 47.3549 25H19.6444C18.1837 25 16.9996 26.1918 16.9996 27.6716V28.9723H18.9796Z" fill="#333333"/>
<path fill-rule="evenodd" clip-rule="evenodd" d="M21.9796 25.9723V24.6716C21.9796 24.2983 22.2753 24 22.6444 24H50.3549C50.7298 24 51.0196 24.2918 51.0196 24.6558V39.3442C51.0196 39.7043 50.7265 40 50.365 40H49.0498V42H50.365C51.8201 42 52.9996 40.8088 52.9996 39.3442V24.6558C52.9996 23.1891 51.8251 22 50.3549 22H22.6444C21.1837 22 19.9996 23.1918 19.9996 24.6716V25.9723H21.9796Z" fill="#333333"/>
<path d="M15.9996 30.6558V45.3442C15.9996 45.7026 16.2952 46 16.6635 46H44.3358C44.7102 46 44.9996 45.7082 44.9996 45.3442V30.6558C44.9996 30.2974 44.704 30 44.3358 30H16.6635C16.2891 30 15.9996 30.2918 15.9996 30.6558ZM13.9996 30.6558C13.9996 29.1891 15.1741 28 16.6444 28H44.3549C45.8155 28 46.9996 29.1912 46.9996 30.6558V45.3442C46.9996 46.8109 45.8251 48 44.3549 48H16.6444C15.1837 48 13.9996 46.8088 13.9996 45.3442V30.6558Z" fill="#333333"/>
<path d="M20.9996 32H18.9996C18.4473 32 17.9996 32.4477 17.9996 33C17.9996 33.5523 18.4473 34 18.9996 34H20.9996C21.5519 34 21.9996 33.5523 21.9996 33C21.9996 32.4477 21.5519 32 20.9996 32Z" fill="#333333"/>
<path d="M41.9996 32H39.9996C39.4473 32 38.9996 32.4477 38.9996 33C38.9996 33.5523 39.4473 34 39.9996 34H41.9996C42.5519 34 42.9996 33.5523 42.9996 33C42.9996 32.4477 42.5519 32 41.9996 32Z" fill="#333333"/>
<path d="M20.9996 42H18.9996C18.4473 42 17.9996 42.4477 17.9996 43C17.9996 43.5523 18.4473 44 18.9996 44H20.9996C21.5519 44 21.9996 43.5523 21.9996 43C21.9996 42.4477 21.5519 42 20.9996 42Z" fill="#333333"/>
<path d="M41.9996 42H39.9996C39.4473 42 38.9996 42.4477 38.9996 43C38.9996 43.5523 39.4473 44 39.9996 44H41.9996C42.5519 44 42.9996 43.5523 42.9996 43C42.9996 42.4477 42.5519 42 41.9996 42Z" fill="#333333"/>
<path d="M30.9996 42C33.2088 42 34.9996 40.2091 34.9996 38C34.9996 35.7909 33.2088 34 30.9996 34C28.7905 34 26.9996 35.7909 26.9996 38C26.9996 40.2091 28.7905 42 30.9996 42ZM30.9996 44C27.6859 44 24.9996 41.3137 24.9996 38C24.9996 34.6863 27.6859 32 30.9996 32C34.3133 32 36.9996 34.6863 36.9996 38C36.9996 41.3137 34.3133 44 30.9996 44Z" fill="#333333"/>
</svg>
