<svg width="69" height="69" viewBox="0 0 69 69" fill="none" xmlns="http://www.w3.org/2000/svg">
<circle cx="16.1759" cy="6.77633" r="3" transform="rotate(45 16.1759 6.77633)" fill="#FEC741"/>
<circle cx="5.56934" cy="17.383" r="3" transform="rotate(45 5.56934 17.383)" fill="#FEC741"/>
<path fill-rule="evenodd" clip-rule="evenodd" d="M34.0402 66.2762C16.367 66.2762 2.04016 51.9494 2.04016 34.2762C2.04016 28.2098 3.72824 22.5376 6.66029 17.7039L5.32421 16.0639C1.97817 21.3287 0.0401599 27.5762 0.0401596 34.2762C0.0401588 53.0539 15.2625 68.2762 34.0402 68.2762C52.8178 68.2762 68.0402 53.0539 68.0402 34.2762C68.0402 15.4986 52.8178 0.276244 34.0402 0.276244C26.7003 0.276243 19.9036 2.60206 14.347 6.5569L15.6132 8.11107C20.823 4.43532 27.1794 2.27624 34.0402 2.27624C51.7133 2.27624 66.0402 16.6031 66.0402 34.2762C66.0402 51.9494 51.7133 66.2762 34.0402 66.2762Z" fill="#FEC741"/>
<path d="M33.0795 16.7314C33.4242 15.9187 34.576 15.9187 34.9207 16.7314L38.4017 24.9382C38.8098 25.9005 39.6894 26.581 40.7234 26.7343L49.0996 27.9765C49.8975 28.0948 50.2342 29.0604 49.6829 29.6492L43.2641 36.504C42.627 37.1843 42.3424 38.1221 42.4938 39.0418L44.0603 48.5594C44.1993 49.4037 43.2827 50.0212 42.5525 49.5753L35.5634 45.3079C34.6036 44.7218 33.3965 44.7218 32.4367 45.3079L25.4477 49.5753C24.7174 50.0212 23.8008 49.4037 23.9398 48.5594L25.5064 39.0418C25.6577 38.1221 25.3731 37.1843 24.736 36.504L18.3173 29.6492C17.766 29.0604 18.1027 28.0948 18.9005 27.9765L27.2767 26.7343C28.3107 26.581 29.1903 25.9005 29.5985 24.9382L33.0795 16.7314Z" stroke="#333333" stroke-width="2"/>
</svg>
