<svg width="69" height="69" viewBox="0 0 69 69" fill="none" xmlns="http://www.w3.org/2000/svg">
<circle cx="7.13296" cy="52.7609" r="3" transform="rotate(-45 7.13296 52.7609)" fill="#FEC741"/>
<circle cx="17.7397" cy="63.3674" r="3" transform="rotate(-45 17.7397 63.3674)" fill="#FEC741"/>
<path fill-rule="evenodd" clip-rule="evenodd" d="M66.6324 34.8959C66.6324 52.569 52.3055 66.8959 34.6324 66.8959C28.5093 66.8959 22.788 65.1761 17.9249 62.1933L18.3719 62.7633L16.9046 63.9141C22.0664 67.0743 28.1367 68.8959 34.6324 68.8959C53.4101 68.8959 68.6324 53.6736 68.6324 34.8959C68.6324 16.1182 53.4101 0.895874 34.6324 0.895874C15.8547 0.895874 0.632385 16.1182 0.632385 34.8959C0.632385 42.4166 3.0742 49.3669 7.20827 54.9974L8.78295 53.7625C4.91541 48.4725 2.63239 41.9508 2.63239 34.8959C2.63239 17.2228 16.9593 2.89587 34.6324 2.89587C52.3055 2.89587 66.6324 17.2228 66.6324 34.8959Z" fill="#FEC741"/>
<path d="M34.9998 49.3292C45.2507 49.3292 48.3331 47.8804 48.3331 43.7766C48.3331 36.472 41.2709 27.9958 34.9998 27.9958C28.7286 27.9958 21.6664 36.472 21.6664 43.7766C21.6664 47.8804 24.7489 49.3292 34.9998 49.3292ZM34.9998 51.3292C24.1455 51.3292 19.6664 49.5699 19.6664 43.7766C19.6664 35.7512 27.2757 25.9958 34.9998 25.9958C42.7238 25.9958 50.3331 35.7512 50.3331 43.7766C50.3331 49.5699 45.854 51.3292 34.9998 51.3292Z" fill="#333333"/>
<path d="M36.9488 22.6626C37.2728 22.3783 37.5956 22.066 37.8933 21.7385C38.568 20.9964 38.9908 20.301 39.0687 19.8338C39.1001 19.6452 39.077 19.5682 38.9189 19.4101C38.3741 18.8653 31.6295 18.8613 31.0807 19.4101C30.9226 19.5682 30.8995 19.6452 30.9309 19.8338C31.0088 20.301 31.4316 20.9964 32.1063 21.7385C32.404 22.066 32.7268 22.3783 33.0508 22.6626H36.9488ZM29.6665 17.9959C30.9998 16.6626 39.0108 16.6735 40.3331 17.9959C42.9998 20.6626 37.6665 24.6626 37.6665 24.6626H32.3331C32.3331 24.6626 26.9998 20.6626 29.6665 17.9959Z" fill="#333333"/>
<path fill-rule="evenodd" clip-rule="evenodd" d="M33.8331 41.5368H35.2593C35.2417 41.2899 35.2329 41.0431 35.2329 40.7874C35.2329 40.5229 35.2417 40.2584 35.2681 40.0115H33.6985V38.7419H35.471C36.2293 35.7531 38.7072 34.2014 41.7672 34.2014C42.3844 34.2014 43.1781 34.2807 43.5484 34.3954V36.1058C43.1604 36.0176 42.4109 35.9471 41.7848 35.9471C39.8007 35.9471 38.2222 36.9081 37.5697 38.7419H42.3227V40.0115H37.2875C37.2611 40.2584 37.2434 40.5141 37.2434 40.7874C37.2434 41.0431 37.2611 41.2987 37.2875 41.5368H42.3227V42.8064H37.5609C38.2134 44.6579 39.7831 45.6277 41.776 45.6277C42.4285 45.6277 43.2045 45.5836 43.5661 45.4778V47.1882C43.1781 47.3028 42.4109 47.3645 41.7672 47.3645C38.6984 47.3645 36.2205 45.804 35.471 42.8064H34.3511C34.3864 43.0179 34.4039 43.2412 34.4039 43.4764C34.4039 45.6189 32.9137 46.9678 30.3299 47.1794V48.352H29.1218V47.1882C26.6086 47.0207 24.9949 45.6453 24.9861 43.6087H26.8555C26.9437 44.6931 27.7903 45.4425 29.1218 45.5924V41.4222L28.337 41.2194C26.3617 40.7257 25.2771 39.5442 25.2771 37.8338C25.2771 35.8236 26.7321 34.4835 29.1218 34.2631V33.0376H30.3299V34.2631C32.6315 34.4571 34.1306 35.8501 34.1835 37.7986H32.3405C32.3052 36.8023 31.5028 36.0176 30.3299 35.8677V39.8087L31.15 39.9939C32.4166 40.3105 33.3075 40.8133 33.8331 41.5368ZM27.1642 37.7016C27.1642 38.6538 27.852 39.2886 29.1218 39.5531V35.8677C27.9931 35.9294 27.1642 36.6877 27.1642 37.7016ZM32.5345 43.6528C32.5345 42.6036 31.8467 41.9688 30.3299 41.6514V45.6189C31.732 45.5395 32.5345 44.8166 32.5345 43.6528Z" fill="#333333"/>
</svg>
