<svg width="69" height="68" viewBox="0 0 69 68" fill="none" xmlns="http://www.w3.org/2000/svg">
<circle cx="3" cy="27" r="3" fill="#FEC741"/>
<circle cx="3" cy="42" r="3" fill="#FEC741"/>
<path fill-rule="evenodd" clip-rule="evenodd" d="M67 34C67 51.6731 52.6731 66 35 66C19.7314 66 6.9604 55.3064 3.76795 41H1.72136C4.94843 56.4195 18.6218 68 35 68C53.7777 68 69 52.7777 69 34C69 15.2223 53.7777 0 35 0C18.2696 0 4.36161 12.0839 1.52774 28H3.56159C6.37003 13.1948 19.3777 2 35 2C52.6731 2 67 16.3269 67 34Z" fill="#FEC741"/>
<path d="M48.4216 36.9479C51.8594 33.4568 51.8595 27.8038 48.4223 24.3133C45.567 21.4157 41.0131 21.2242 37.9413 23.8284L35.0008 26.7266L32.0545 23.8252C28.983 21.2243 24.4333 21.4169 21.58 24.3124C18.1401 27.8059 18.1401 33.4567 21.5797 36.9478L35.0007 50.5728L48.4216 36.9479ZM20.1549 38.3513C15.9484 34.0819 15.9484 27.1812 20.1549 22.9092C23.7839 19.2264 29.5612 19.0402 33.4073 22.3505L35.0002 23.919L36.5878 22.3543C40.4341 19.0401 46.2162 19.2251 49.8468 22.9096C54.0511 27.179 54.0511 34.0816 49.8467 38.3512L35.0007 53.4228L33.8351 52.2395L20.1549 38.3513Z" fill="#333333"/>
</svg>
