<svg width="69" height="69" viewBox="0 0 69 69" fill="none" xmlns="http://www.w3.org/2000/svg">
<circle cx="51.6265" cy="61.9615" r="3" transform="rotate(-135 51.6265 61.9615)" fill="#FEC741"/>
<circle cx="62.2331" cy="51.3548" r="3" transform="rotate(-135 62.2331 51.3548)" fill="#FEC741"/>
<path fill-rule="evenodd" clip-rule="evenodd" d="M2.02636 34.1968C2.02636 16.5237 16.3533 2.19678 34.0264 2.19678C51.6995 2.19678 66.0264 16.5237 66.0264 34.1968C66.0264 40.5447 64.178 46.4608 60.9902 51.4365L62.4913 52.7982C65.9912 47.4533 68.0264 41.0627 68.0264 34.1968C68.0264 15.4191 52.804 0.196779 34.0264 0.19678C15.2487 0.196782 0.0263626 15.4191 0.0263642 34.1968C0.0263659 52.9745 15.2487 68.1968 34.0264 68.1968C41.2364 68.1968 47.9223 65.9525 53.4235 62.1245L51.9009 60.7432C46.797 64.1865 40.6464 66.1968 34.0264 66.1968C16.3533 66.1968 2.02637 51.8699 2.02636 34.1968Z" fill="#FEC741"/>
<path d="M52.8256 26H24.3494C23.864 26 23.4706 26.3934 23.4706 26.8788V28.5361H15.0946C14.6092 28.5361 14.2158 28.9296 14.2158 29.4149C14.2158 29.9003 14.6092 30.2937 15.0946 30.2937H23.4706V41.7063H18.4644C17.979 41.7063 17.5856 42.0997 17.5856 42.5851C17.5856 43.0704 17.979 43.4639 18.4644 43.4639H23.4706V45.1212C23.4706 45.6066 23.864 46 24.3494 46H52.8256C53.3109 46 53.7043 45.6066 53.7043 45.1212V26.8788C53.7043 26.3934 53.3109 26 52.8256 26ZM50.6577 27.7576L38.5887 37.6651L26.5748 27.7576H50.6577ZM51.9468 44.2425H25.2282V28.9252L38.0284 39.4811C38.1907 39.6149 38.3891 39.682 38.5875 39.682C38.7853 39.682 38.9831 39.6154 39.1451 39.4824L51.9468 28.9733V44.2425Z" fill="black"/>
<path d="M19.8999 35.0322H10.4672C9.98186 35.0322 9.58844 35.4256 9.58844 35.911C9.58844 36.3964 9.98186 36.7898 10.4672 36.7898H19.8999C20.3853 36.7898 20.7787 36.3964 20.7787 35.911C20.7788 35.4256 20.3853 35.0322 19.8999 35.0322Z" fill="black"/>
<path d="M15.5643 41.7064H15.0947C14.6093 41.7064 14.2159 42.0998 14.2159 42.5852C14.2159 43.0706 14.6093 43.464 15.0947 43.464H15.5643C16.0497 43.464 16.4431 43.0706 16.4431 42.5852C16.4431 42.0998 16.0497 41.7064 15.5643 41.7064Z" fill="black"/>
</svg>
