<svg width="69" height="68" viewBox="0 0 69 68" fill="none" xmlns="http://www.w3.org/2000/svg">
<circle cx="66" cy="41" r="3" transform="rotate(-180 66 41)" fill="#FEC741"/>
<circle cx="66" cy="26" r="3" transform="rotate(-180 66 26)" fill="#FEC741"/>
<path fill-rule="evenodd" clip-rule="evenodd" d="M2 34C2 16.3269 16.3269 2 34 2C49.2686 2 62.0396 12.6936 65.2321 27L67.2786 27C64.0516 11.5805 50.3782 -1.49441e-06 34 -2.92624e-06C15.2223 -4.56784e-06 -3.01542e-06 15.2223 -4.65702e-06 34C-6.29862e-06 52.7777 15.2223 68 34 68C50.7304 68 64.6384 55.9161 67.4723 40L65.4384 40C62.63 54.8052 49.6223 66 34 66C16.3269 66 1.99999 51.6731 2 34Z" fill="#FEC741"/>
<path fill-rule="evenodd" clip-rule="evenodd" d="M32.3448 27C27.3202 27 22 25.8 22 23C22 20.3 27.3202 19 32.3448 19C37.3695 19 42 20.2 42 23C42 25.7 37.3695 27 32.3448 27ZM32.3448 21C26.8276 21 24.069 22.4 23.9704 23C24.069 23.5 26.8276 25 32.3448 25C37.8621 25 39.8325 23.6 40.0296 23C39.931 22.4 37.8621 21 32.3448 21Z" fill="#333333"/>
<path fill-rule="evenodd" clip-rule="evenodd" d="M32.3448 32.1C27.3202 32.1 22 30.9 22 28.1C22 27.5 22.3941 27.1 22.9852 27.1C23.5764 27.1 23.9704 27.5 23.9704 28.1C24.069 28.6 26.8276 30.1 32.3448 30.1C37.8621 30.1 39.931 28.7 40.0296 28.1C40.0296 27.5 40.4236 27.1 41.0148 27.1C41.6059 27.1 42 27.6 42 28.1C42 30.9 37.2709 32.1 32.3448 32.1Z" fill="#333333"/>
<path fill-rule="evenodd" clip-rule="evenodd" d="M32.3448 37.3C27.3202 37.3 22 36.1 22 33.3C22 32.7 22.3941 32.3 22.9852 32.3C23.5764 32.3 23.9704 32.7 23.9704 33.3C24.069 33.8 26.8276 35.3 32.3448 35.3C37.8621 35.3 39.8325 33.9 40.0296 33.3C40.0296 32.7 40.4236 32.3 41.0148 32.3C41.6059 32.3 42 32.8 42 33.3C42 36 37.3695 37.3 32.3448 37.3Z" fill="#333333"/>
<path fill-rule="evenodd" clip-rule="evenodd" d="M43 54C38.0645 54 34 49.9355 34 45C34 40.0645 38.0645 36 43 36C47.9355 36 52 40.0645 52 45C51.9032 49.9355 47.9355 54 43 54ZM43 38C39.1644 38 36 41.1644 36 45C36 48.8356 39.1644 52 43 52C46.8356 52 50 48.8356 50 45C50 41.1644 46.8356 38 43 38Z" fill="#333333"/>
<path fill-rule="evenodd" clip-rule="evenodd" d="M32.5 47.6C27.4 47.6 22 46.4 22 43.6C22 43 22.4 42.6 23 42.6C23.6 42.6 24 43 24 43.6C24.1 44.1 26.9 45.6 32.5 45.6C33.5 45.6 33.7 45.6 34.6 45.5C35.1 45.4 35.6 45.8 35.7 46.4C35.8 47 35.4 47.4 34.8 47.5C33.9 47.6 33.5 47.6 32.5 47.6Z" fill="#333333"/>
<path fill-rule="evenodd" clip-rule="evenodd" d="M32.5 42.4C27.4 42.4 22 41.2 22 38.4C22 37.8 22.4 37.4 23 37.4C23.6 37.4 24 37.8 24 38.4C24.1 38.9 26.9 40.4 32.5 40.4C33.8 40.4 34.4 40.3 35.7 40.1C36.2 40 36.8 40.4 36.8 40.9C36.9 41.4 36.5 42 36 42C34.6 42.3 34 42.4 32.5 42.4Z" fill="#333333"/>
<path fill-rule="evenodd" clip-rule="evenodd" d="M43 49.3C42.4 49.3 42 48.9 42 48.3V40.5C42 39.9 42.4 39.5 43 39.5C43.6 39.5 44 39.9 44 40.5V48.3C44 48.8 43.6 49.3 43 49.3Z" fill="#333333"/>
<path fill-rule="evenodd" clip-rule="evenodd" d="M43 50L38.9 46.7C38.5 46.4 38.4 45.7 38.8 45.3C39.1 44.9 39.8 44.8 40.2 45.2L43.1 47.5L46 45.2C46.4 44.9 47.1 44.9 47.4 45.3C47.7 45.7 47.7 46.4 47.3 46.7L43 50Z" fill="#333333"/>
<path fill-rule="evenodd" clip-rule="evenodd" d="M42 37H40V23H42V37Z" fill="#333333"/>
<path fill-rule="evenodd" clip-rule="evenodd" d="M24 44H22V23H24V44Z" fill="#333333"/>
</svg>
