<svg width="145" height="43" viewBox="0 0 145 43" fill="none" xmlns="http://www.w3.org/2000/svg">
<path d="M123.5 1H21.5C10.1782 1 1 10.1782 1 21.5C1 32.8218 10.1782 42 21.5 42H123.5C134.822 42 144 32.8218 144 21.5C144 10.1782 134.822 1 123.5 1Z" stroke="#9B9B9B"/>
<path fill-rule="evenodd" clip-rule="evenodd" d="M30.3789 14.1489C33.0938 14.1489 34.8298 16.7844 34.8298 16.7844C34.8298 16.7844 32.1815 18.2263 32.1815 21.3577C32.1815 25.0744 35.5084 26.1555 35.5084 26.1555C35.5084 26.1555 32.8825 32.4067 29.934 32.4067C28.276 32.4067 28.1652 31.4497 25.9619 31.4497C24.0484 31.4497 23.4032 32.4067 21.9456 32.4067C19.1635 32.4067 15.5698 26.3132 15.5698 21.3577C15.5698 16.2102 19.2083 14.1489 21.4892 14.1489C23.4922 14.1489 24.3263 15.3315 25.9395 15.3315C27.2972 15.3315 28.3656 14.1489 30.3789 14.1489ZM29.9122 8.8999C30.3123 11.4229 28.0315 14.5433 25.3057 14.4418C24.905 11.2315 27.8426 9.06926 29.9122 8.8999ZM50.4924 15.4638H52.3445L57.2657 28.1H55.4136L54.0378 24.295H48.7108L47.2997 28.1H45.5887L50.4924 15.4638ZM49.24 22.8792H53.5086L51.4096 16.9858H51.3743L49.24 22.8792ZM58.3064 18.9503H59.8057V20.1891H59.841C60.088 19.6818 60.476 19.3131 61.0052 19.083C61.5344 18.8529 62.1164 18.7379 62.7515 18.7379C63.457 18.7379 64.0714 18.8677 64.5947 19.1272C65.118 19.3868 65.5531 19.7378 65.9 20.1803C66.2469 20.6227 66.5085 21.133 66.6849 21.7111C66.8613 22.2892 66.9495 22.9028 66.9495 23.5517C66.9495 24.2006 66.8643 24.8141 66.6938 25.3922C66.5233 25.9704 66.2645 26.4748 65.9176 26.9054C65.5707 27.3361 65.1357 27.6753 64.6124 27.923C64.0891 28.1708 63.4805 28.2947 62.7867 28.2947C62.5633 28.2947 62.3134 28.2711 62.0371 28.2239C61.7607 28.1767 61.4873 28.1 61.2169 27.9938C60.9464 27.8876 60.6906 27.7431 60.4496 27.5602C60.2085 27.3773 60.0057 27.1502 59.841 26.8789H59.8057V31.5865H58.3064V18.9503ZM65.362 23.4455C65.362 23.0207 65.3062 22.6049 65.1944 22.1978C65.0827 21.7908 64.9122 21.428 64.6829 21.1094C64.4536 20.7908 64.1596 20.5372 63.801 20.3484C63.4423 20.1596 63.0219 20.0652 62.5398 20.0652C62.0341 20.0652 61.6049 20.1655 61.2521 20.3661C60.8994 20.5667 60.6113 20.8292 60.3878 21.1536C60.1644 21.4781 60.0027 21.8468 59.9028 22.2597C59.8028 22.6727 59.7528 23.0915 59.7528 23.5163C59.7528 23.9646 59.8057 24.3982 59.9116 24.8171C60.0174 25.2359 60.185 25.6046 60.4143 25.9232C60.6436 26.2417 60.9405 26.4984 61.3051 26.693C61.6696 26.8877 62.1106 26.985 62.628 26.985C63.1454 26.985 63.5775 26.8848 63.9244 26.6842C64.2713 26.4836 64.5506 26.2181 64.7623 25.8878C64.974 25.5574 65.1268 25.1799 65.2209 24.7551C65.315 24.3304 65.362 23.8938 65.362 23.4455ZM68.7663 18.9503H70.2657V20.1891H70.3009C70.5479 19.6818 70.9359 19.3131 71.4651 19.083C71.9943 18.8529 72.5764 18.7379 73.2114 18.7379C73.9169 18.7379 74.5313 18.8677 75.0546 19.1272C75.5779 19.3868 76.013 19.7378 76.3599 20.1803C76.7068 20.6227 76.9685 21.133 77.1448 21.7111C77.3212 22.2892 77.4094 22.9028 77.4094 23.5517C77.4094 24.2006 77.3242 24.8141 77.1537 25.3922C76.9832 25.9704 76.7245 26.4748 76.3776 26.9054C76.0307 27.3361 75.5956 27.6753 75.0723 27.923C74.549 28.1708 73.9404 28.2947 73.2466 28.2947C73.0232 28.2947 72.7733 28.2711 72.497 28.2239C72.2206 28.1767 71.9472 28.1 71.6768 27.9938C71.4063 27.8876 71.1505 27.7431 70.9095 27.5602C70.6684 27.3773 70.4656 27.1502 70.3009 26.8789H70.2657V31.5865H68.7663V18.9503ZM75.8219 23.4455C75.8219 23.0207 75.7661 22.6049 75.6544 22.1978C75.5426 21.7908 75.3721 21.428 75.1428 21.1094C74.9135 20.7908 74.6195 20.5372 74.2609 20.3484C73.9022 20.1596 73.4818 20.0652 72.9997 20.0652C72.494 20.0652 72.0648 20.1655 71.712 20.3661C71.3593 20.5667 71.0712 20.8292 70.8477 21.1536C70.6243 21.4781 70.4626 21.8468 70.3627 22.2597C70.2627 22.6727 70.2127 23.0915 70.2127 23.5163C70.2127 23.9646 70.2657 24.3982 70.3715 24.8171C70.4773 25.2359 70.6449 25.6046 70.8742 25.9232C71.1035 26.2417 71.4004 26.4984 71.765 26.693C72.1295 26.8877 72.5705 26.985 73.0879 26.985C73.6053 26.985 74.0374 26.8848 74.3843 26.6842C74.7313 26.4836 75.0105 26.2181 75.2222 25.8878C75.4339 25.5574 75.5867 25.1799 75.6808 24.7551C75.7749 24.3304 75.8219 23.8938 75.8219 23.4455ZM91.6088 19.1626C91.5147 18.2541 91.1884 17.5964 90.6298 17.1893C90.0713 16.7823 89.3569 16.5788 88.4867 16.5788C88.1339 16.5788 87.787 16.6142 87.446 16.6849C87.105 16.7557 86.8022 16.8737 86.5376 17.0389C86.273 17.2041 86.0613 17.4253 85.9026 17.7026C85.7438 17.9798 85.6645 18.3249 85.6645 18.7379C85.6645 19.1272 85.7791 19.4429 86.0084 19.6847C86.2377 19.9266 86.5435 20.1242 86.9257 20.2776C87.3078 20.431 87.74 20.5578 88.2221 20.6581C88.7043 20.7584 89.1952 20.8675 89.695 20.9855C90.1947 21.1035 90.6857 21.2421 91.1678 21.4014C91.65 21.5607 92.0821 21.776 92.4643 22.0474C92.8465 22.3187 93.1522 22.6609 93.3815 23.0738C93.6108 23.4868 93.7255 24.0059 93.7255 24.6312C93.7255 25.3038 93.5755 25.8789 93.2757 26.3568C92.9758 26.8346 92.5907 27.224 92.1203 27.5248C91.65 27.8257 91.1237 28.044 90.5416 28.1796C89.9595 28.3153 89.3804 28.3832 88.8042 28.3832C88.0986 28.3832 87.4313 28.2947 86.8022 28.1177C86.1731 27.9407 85.6204 27.6723 85.1441 27.3125C84.6679 26.9526 84.2916 26.4925 84.0152 25.932C83.7389 25.3716 83.6007 24.7079 83.6007 23.941H85.1882C85.1882 24.472 85.2911 24.9292 85.4969 25.3126C85.7027 25.6961 85.9731 26.0117 86.3083 26.2594C86.6434 26.5072 87.0344 26.6901 87.4813 26.8081C87.9281 26.9261 88.3867 26.985 88.8571 26.985C89.2334 26.985 89.6126 26.9497 89.9948 26.8789C90.377 26.8081 90.721 26.6871 91.0267 26.5161C91.3325 26.345 91.5794 26.112 91.7675 25.817C91.9557 25.522 92.0498 25.1445 92.0498 24.6843C92.0498 24.2478 91.9351 23.8938 91.7058 23.6225C91.4765 23.3511 91.1708 23.1299 90.7886 22.9588C90.4064 22.7877 89.9743 22.6491 89.4921 22.5429C89.01 22.4367 88.519 22.3276 88.0193 22.2155C87.5195 22.1034 87.0285 21.9736 86.5464 21.8261C86.0643 21.6787 85.6321 21.484 85.25 21.2421C84.8678 21.0003 84.562 20.6876 84.3327 20.3041C84.1034 19.9207 83.9888 19.4399 83.9888 18.8618C83.9888 18.2247 84.1181 17.6731 84.3768 17.207C84.6355 16.741 84.9795 16.3575 85.4087 16.0567C85.8379 15.7558 86.3259 15.5316 86.8727 15.3842C87.4196 15.2367 87.981 15.1629 88.5573 15.1629C89.204 15.1629 89.8037 15.2396 90.3564 15.393C90.9091 15.5464 91.3942 15.7883 91.8116 16.1186C92.2291 16.449 92.5584 16.8649 92.7994 17.3663C93.0405 17.8678 93.1728 18.4665 93.1963 19.1626H91.6088ZM97.5884 18.9503H99.4052V20.2776H97.5884V25.9586C97.5884 26.1356 97.6031 26.2771 97.6325 26.3833C97.6619 26.4895 97.7178 26.5721 97.8001 26.6311C97.8824 26.6901 97.997 26.7284 98.144 26.7461C98.291 26.7638 98.4821 26.7727 98.7173 26.7727H99.4052V28.1H98.2587C97.8706 28.1 97.5384 28.0735 97.2621 28.0204C96.9857 27.9673 96.7623 27.8699 96.5918 27.7284C96.4213 27.5868 96.2949 27.3862 96.2126 27.1266C96.1303 26.8671 96.0891 26.5249 96.0891 26.1002V20.2776H94.5369V18.9503H96.0891V16.2071H97.5884V18.9503ZM100.569 23.534C100.569 22.8615 100.663 22.2332 100.852 21.6492C101.04 21.0651 101.322 20.5578 101.698 20.1272C102.075 19.6965 102.539 19.3573 103.092 19.1095C103.644 18.8618 104.279 18.7379 104.997 18.7379C105.726 18.7379 106.364 18.8618 106.911 19.1095C107.457 19.3573 107.919 19.6965 108.295 20.1272C108.672 20.5578 108.954 21.0651 109.142 21.6492C109.33 22.2332 109.424 22.8615 109.424 23.534C109.424 24.2065 109.33 24.8318 109.142 25.4099C108.954 25.9881 108.672 26.4925 108.295 26.9231C107.919 27.3538 107.457 27.69 106.911 27.9319C106.364 28.1737 105.726 28.2947 104.997 28.2947C104.279 28.2947 103.644 28.1737 103.092 27.9319C102.539 27.69 102.075 27.3538 101.698 26.9231C101.322 26.4925 101.04 25.9881 100.852 25.4099C100.663 24.8318 100.569 24.2065 100.569 23.534ZM102.157 23.534C102.157 24.0885 102.23 24.5811 102.377 25.0117C102.524 25.4424 102.727 25.8022 102.986 26.0913C103.245 26.3804 103.547 26.6016 103.894 26.755C104.241 26.9084 104.609 26.985 104.997 26.985C105.385 26.985 105.752 26.9084 106.099 26.755C106.446 26.6016 106.749 26.3804 107.008 26.0913C107.266 25.8022 107.469 25.4424 107.616 25.0117C107.763 24.5811 107.837 24.0885 107.837 23.534C107.837 22.9795 107.763 22.4869 107.616 22.0562C107.469 21.6256 107.266 21.2628 107.008 20.9678C106.749 20.6728 106.446 20.4487 106.099 20.2953C105.752 20.1419 105.385 20.0652 104.997 20.0652C104.609 20.0652 104.241 20.1419 103.894 20.2953C103.547 20.4487 103.245 20.6728 102.986 20.9678C102.727 21.2628 102.524 21.6256 102.377 22.0562C102.23 22.4869 102.157 22.9795 102.157 23.534ZM111.135 18.9503H112.546V20.8793H112.582C112.946 20.136 113.393 19.5874 113.922 19.2334C114.451 18.8795 115.122 18.7143 115.933 18.7379V20.3307C115.333 20.3307 114.822 20.4133 114.398 20.5785C113.975 20.7436 113.634 20.9855 113.375 21.3041C113.117 21.6226 112.928 22.009 112.811 22.4633C112.693 22.9175 112.634 23.4396 112.634 24.0295V28.1H111.135V18.9503ZM124.523 25.1976C124.323 26.224 123.882 26.9968 123.2 27.516C122.518 28.0351 121.66 28.2947 120.625 28.2947C119.896 28.2947 119.264 28.1767 118.729 27.9407C118.194 27.7048 117.744 27.3744 117.379 26.9497C117.015 26.5249 116.741 26.0176 116.559 25.4276C116.377 24.8377 116.274 24.1947 116.25 23.4986C116.25 22.8025 116.356 22.1654 116.568 21.5872C116.78 21.0091 117.077 20.5077 117.459 20.0829C117.841 19.6582 118.294 19.3278 118.817 19.0918C119.34 18.8559 119.913 18.7379 120.537 18.7379C121.348 18.7379 122.021 18.906 122.556 19.2423C123.091 19.5785 123.521 20.0062 123.844 20.5254C124.167 21.0445 124.391 21.6108 124.514 22.2243C124.638 22.8379 124.688 23.4219 124.664 23.9764H117.838C117.826 24.3776 117.873 24.7581 117.979 25.1179C118.085 25.4778 118.255 25.7963 118.491 26.0736C118.726 26.3509 119.026 26.5721 119.39 26.7373C119.755 26.9025 120.184 26.985 120.678 26.985C121.313 26.985 121.833 26.8376 122.239 26.5426C122.645 26.2476 122.912 25.7993 123.041 25.1976H124.523ZM123.077 22.6491C123.053 22.2951 122.974 21.9589 122.839 21.6403C122.703 21.3218 122.521 21.0474 122.292 20.8174C122.062 20.5873 121.792 20.4044 121.48 20.2687C121.169 20.1331 120.825 20.0652 120.449 20.0652C120.06 20.0652 119.711 20.1331 119.399 20.2687C119.087 20.4044 118.82 20.5903 118.596 20.8262C118.373 21.0622 118.197 21.3365 118.067 21.6492C117.938 21.9618 117.861 22.2951 117.838 22.6491H123.077Z" fill="#9B9B9B"/>
</svg>
