<svg width="145" height="43" viewBox="0 0 145 43" fill="none" xmlns="http://www.w3.org/2000/svg">
<path d="M123.5 1H21.5C10.1782 1 1 10.1782 1 21.5C1 32.8218 10.1782 42 21.5 42H123.5C134.822 42 144 32.8218 144 21.5C144 10.1782 134.822 1 123.5 1Z" stroke="#9B9B9B"/>
<path fill-rule="evenodd" clip-rule="evenodd" d="M95.0314 25.6401L94.0709 26.5603C93.8489 26.6841 93.6281 26.8279 93.4079 26.93C92.7407 27.2375 92.0622 27.3149 91.4593 27.3149C90.8178 27.3149 89.812 27.2726 88.7859 26.5192C87.3605 25.4999 86.7374 23.7479 86.7374 22.2211C86.7374 19.0601 89.2722 17.5098 91.3397 17.5098C92.0622 17.5098 92.8044 17.6935 93.4079 18.0808C94.4113 18.7544 94.6708 19.6299 94.8148 20.0987L90.0935 22.0351L88.5473 22.1571C89.0478 24.749 90.7749 26.2564 92.6836 26.2564C93.637 26.2564 94.3446 25.9404 94.9939 25.6147C94.9939 25.6147 95.1243 25.5459 95.0314 25.6401ZM92.183 20.4848L88.527 22.0955C88.5068 21.7293 88.4663 21.3632 88.4663 21.0194C88.4663 18.8167 89.9727 18.1823 90.7749 18.1823C91.8581 18.1823 92.7657 19.123 92.7657 19.9374C92.7657 20.2213 92.5663 20.3434 92.183 20.4848ZM85.1597 25.4824C85.1597 26.2745 85.2989 26.3977 85.959 26.46C86.303 26.5011 86.6458 26.5192 86.985 26.5603L86.2423 27.0092H82.7029C83.1671 26.3977 83.2469 26.3367 83.2469 25.9295V25.4746L83.2391 13.3526H81.6763L83.1808 12.6167H86.053C85.4305 12.9828 85.2442 13.2058 85.1644 13.9193L85.1597 25.4824ZM79.6706 18.5103C80.1319 18.8952 81.0942 19.712 81.0942 21.2611C81.0942 22.7709 80.2556 23.4826 79.4099 24.1563C79.1504 24.4215 78.8469 24.7091 78.8469 25.1538C78.8469 25.6051 79.1505 25.8498 79.3689 26.0322L80.0944 26.6007C80.9764 27.3566 81.7804 28.0495 81.7804 29.4572C81.7804 31.3749 79.9521 33.3088 76.4973 33.3088C73.587 33.3088 72.1801 31.9017 72.1801 30.3931C72.1801 29.659 72.5401 28.6193 73.728 27.9069C74.9731 27.1342 76.6597 27.0309 77.5632 26.9705C77.2811 26.6007 76.9591 26.2135 76.9591 25.5815C76.9591 25.2359 77.0615 25.0299 77.1603 24.787C76.9407 24.8082 76.7193 24.8299 76.5181 24.8299C74.3881 24.8299 73.1841 23.2168 73.1841 21.6272C73.1841 20.6896 73.6054 19.6492 74.4708 18.8952C75.6159 17.9382 76.9811 17.7733 78.0661 17.7733H82.2048L80.918 18.5103H79.6706ZM78.2476 27.5614C78.0828 27.5396 77.984 27.5396 77.7852 27.5396C77.6031 27.5396 76.5181 27.5795 75.6777 27.8659C75.2332 28.0308 73.9482 28.5184 73.9482 29.9666C73.9482 31.4117 75.3355 32.4539 77.4817 32.4539C79.4099 32.4539 80.4336 31.5156 80.4336 30.2523C80.4336 29.2126 79.7712 28.664 78.2476 27.5614ZM78.8249 23.6874C78.5071 24.0101 77.9655 24.2584 77.462 24.2584C75.7367 24.2584 74.9523 21.994 74.9523 20.6286C74.9523 20.0987 75.054 19.5477 75.3939 19.123C75.7141 18.7127 76.2783 18.4475 76.799 18.4475C78.4684 18.4475 79.3296 20.7313 79.3296 22.1976C79.3296 22.5667 79.2891 23.2168 78.8249 23.6874ZM67.2189 27.2726C64.0265 27.2726 62.3184 24.749 62.3184 22.464C62.3184 19.7942 64.4657 17.5098 67.52 17.5098C70.4726 17.5098 72.3217 19.8564 72.3217 22.3202C72.3217 24.7266 70.494 27.2726 67.2189 27.2726ZM69.7304 25.6232C69.268 26.2745 68.4663 26.6606 67.6807 26.6606C65.2466 26.6606 64.2658 23.3382 64.2658 21.3239C64.2658 20.4443 64.4056 19.5477 65.19 18.8342C65.6709 18.4052 66.3381 18.1424 67.0005 18.1424C69.4912 18.1424 70.3339 21.5668 70.3339 23.3624C70.3339 24.1563 70.2161 24.9707 69.7304 25.6232ZM56.5306 27.2726C53.3376 27.2726 51.6325 24.749 51.6325 22.464C51.6325 19.7942 53.7804 17.5098 56.8335 17.5098C59.7843 17.5098 61.6316 19.8564 61.6316 22.3202C61.6316 24.7266 59.8063 27.2726 56.5306 27.2726ZM59.0427 25.6232C58.5791 26.2745 57.7786 26.6606 56.9948 26.6606C54.5648 26.6606 53.5798 23.3382 53.5798 21.3239C53.5798 20.4443 53.7191 19.5477 54.5047 18.8342C54.9868 18.4052 55.6468 18.1424 56.3116 18.1424C58.7999 18.1424 59.645 21.5668 59.645 23.3624C59.645 24.1563 59.5248 24.9707 59.0427 25.6232ZM50.3559 26.5651L47.6634 27.191C46.5725 27.3656 45.5929 27.5191 44.5556 27.5191C39.3623 27.5191 37.3834 23.6385 37.3834 20.6014C37.3834 16.8924 40.1872 13.4535 44.9888 13.4535C46.0048 13.4535 46.982 13.6051 47.8723 13.8516C49.2834 14.254 49.9435 14.75 50.3559 15.0406L48.7919 16.5486L48.1324 16.6984L48.6026 15.9378C47.9658 15.3064 46.7951 14.141 44.5734 14.141C41.603 14.141 39.3623 16.4332 39.3623 19.7797C39.3623 23.3739 41.9208 26.7548 46.0244 26.7548C47.2302 26.7548 47.8509 26.5089 48.4145 26.2793V23.1981L45.5715 23.3533L47.0784 22.5317H51.0683L50.5803 23.0084C50.4488 23.1219 50.4309 23.1606 50.394 23.3129C50.3744 23.4869 50.3559 24.0403 50.3559 24.2348V26.5651ZM100.82 25.7271V30.9199H99.8045V17.7062H100.82V19.2112C101.482 18.2385 102.692 17.4676 104.096 17.4676C106.615 17.4676 108.312 19.4075 108.312 22.4785C108.312 25.5289 106.615 27.5094 104.096 27.5094C102.77 27.5094 101.582 26.8152 100.82 25.7271ZM107.221 22.4785C107.221 24.7967 106.032 26.5772 103.925 26.5772C102.616 26.5772 101.364 25.4951 100.82 24.5828V20.3531C101.364 19.4426 102.616 18.3986 103.925 18.3986C106.032 18.3986 107.221 20.1639 107.221 22.4785ZM109.699 14.0576H110.715V27.2714H109.699V14.0576ZM122.114 30.0656C122.332 30.1641 122.702 30.2245 122.937 30.2245C123.559 30.2245 123.991 29.9666 124.38 29.0555L125.121 27.3511L121.119 17.7062H122.252L125.685 26.0642L129.085 17.7062H130.234L125.353 29.3751C124.847 30.5774 124.05 31.1556 122.955 31.1556C122.627 31.1556 122.193 31.0963 121.94 31.0172L122.114 30.0656ZM119.147 27.243C119.079 26.9113 119.028 26.6189 118.99 26.3748C118.959 26.1313 118.942 25.8824 118.942 25.6292C118.593 26.1482 118.1 26.5802 117.47 26.9203C116.839 27.2629 116.24 27.4309 115.418 27.4309C114.428 27.4309 113.66 27.1838 113.111 26.6823C112.565 26.1814 112.29 25.503 112.29 24.6444C112.29 23.7871 112.688 23.0911 113.482 22.5589C114.276 22.0242 115.302 21.7583 116.572 21.7583H118.942V20.5699C118.942 19.8854 118.712 19.3471 118.253 18.9568C117.792 18.5659 117.146 18.3684 116.308 18.3684C115.542 18.3684 114.921 18.549 114.448 18.9006C113.979 19.2595 113.742 19.7042 113.742 20.2401H112.703L112.681 20.1887C112.644 19.4661 112.969 18.8324 113.661 18.285C114.351 17.7382 115.253 17.4633 116.365 17.4633C117.472 17.4633 118.368 17.734 119.044 18.2741C119.719 18.8088 120.057 19.5815 120.057 20.5917V25.3102C120.057 25.6492 120.074 25.9766 120.115 26.2956C120.158 26.6152 120.227 26.9342 120.318 27.243H119.147ZM115.542 26.4914C116.405 26.4914 117.025 26.2956 117.659 25.9084C118.289 25.5235 118.717 25.0214 118.942 24.4137V22.577H116.561C115.652 22.577 114.899 22.7812 114.307 23.1932C113.713 23.6041 113.413 24.1013 113.413 24.6795C113.413 25.2251 113.603 25.6613 113.982 25.9917C114.361 26.3258 114.88 26.4914 115.542 26.4914Z" fill="#9B9B9B"/>
<path fill-rule="evenodd" clip-rule="evenodd" d="M15.2723 30.8789C14.9454 30.7905 14.7325 30.4648 14.7325 29.9608V13.3243C14.7325 12.8575 14.9127 12.5427 15.1984 12.4282L23.3468 21.6995L15.2723 30.8789ZM16.394 30.5257L26.2021 24.9483L23.8132 22.2302L16.394 30.5257ZM26.2696 18.3767L16.5982 12.8757L23.8273 21.1532L26.2696 18.3767ZM26.9258 18.7499L30.7145 20.9049C31.4319 21.3129 31.4384 21.9706 30.7145 22.3823L26.83 24.5913L24.2962 21.6901L26.9258 18.7499Z" fill="#9B9B9B"/>
</svg>
