<svg width="145" height="43" viewBox="0 0 145 43" fill="none" xmlns="http://www.w3.org/2000/svg">
<path d="M123.5 1H21.5C10.1782 1 1 10.1782 1 21.5C1 32.8218 10.1782 42 21.5 42H123.5C134.822 42 144 32.8218 144 21.5C144 10.1782 134.822 1 123.5 1Z" stroke="#364F55"/>
<path fill-rule="evenodd" clip-rule="evenodd" d="M95.0314 25.6404L94.0709 26.5605C93.8489 26.6844 93.6281 26.8282 93.4079 26.9303C92.7407 27.2378 92.0622 27.3151 91.4593 27.3151C90.8178 27.3151 89.812 27.2728 88.7859 26.5194C87.3605 25.5002 86.7374 23.7481 86.7374 22.2214C86.7374 19.0604 89.2722 17.5101 91.3397 17.5101C92.0622 17.5101 92.8044 17.6938 93.4079 18.081C94.4113 18.7547 94.6708 19.6301 94.8148 20.0989L90.0935 22.0353L88.5473 22.1573C89.0478 24.7492 90.7749 26.2566 92.6836 26.2566C93.637 26.2566 94.3446 25.9406 94.9939 25.615C94.9939 25.615 95.1243 25.5461 95.0314 25.6404ZM92.183 20.485L88.527 22.0957C88.5068 21.7296 88.4663 21.3635 88.4663 21.0197C88.4663 18.8169 89.9727 18.1825 90.7749 18.1825C91.8581 18.1825 92.7657 19.1232 92.7657 19.9376C92.7657 20.2216 92.5663 20.3436 92.183 20.485ZM85.1597 25.4827C85.1597 26.2747 85.2989 26.398 85.959 26.4602C86.303 26.5013 86.6458 26.5194 86.985 26.5605L86.2423 27.0094H82.7029C83.1671 26.398 83.2469 26.337 83.2469 25.9298V25.4748L83.2391 13.3528H81.6763L83.1808 12.6169H86.053C85.4305 12.9831 85.2442 13.206 85.1644 13.9195L85.1597 25.4827ZM79.6706 18.5106C80.1319 18.8954 81.0942 19.7123 81.0942 21.2614C81.0942 22.7712 80.2556 23.4829 79.4099 24.1565C79.1504 24.4218 78.8469 24.7093 78.8469 25.154C78.8469 25.6053 79.1505 25.85 79.3689 26.0325L80.0944 26.601C80.9764 27.3568 81.7804 28.0498 81.7804 29.4575C81.7804 31.3751 79.9521 33.309 76.4973 33.309C73.587 33.309 72.1801 31.9019 72.1801 30.3933C72.1801 29.6593 72.5401 28.6195 73.728 27.9072C74.9731 27.1345 76.6597 27.0312 77.5632 26.9707C77.2811 26.601 76.9591 26.2137 76.9591 25.5818C76.9591 25.2362 77.0615 25.0302 77.1603 24.7873C76.9407 24.8084 76.7193 24.8302 76.5181 24.8302C74.3881 24.8302 73.1841 23.217 73.1841 21.6275C73.1841 20.6898 73.6054 19.6494 74.4708 18.8954C75.6159 17.9384 76.9811 17.7735 78.0661 17.7735H82.2048L80.918 18.5106H79.6706ZM78.2476 27.5616C78.0828 27.5399 77.984 27.5399 77.7852 27.5399C77.6031 27.5399 76.5181 27.5797 75.6777 27.8661C75.2332 28.031 73.9482 28.5186 73.9482 29.9668C73.9482 31.412 75.3355 32.4542 77.4817 32.4542C79.4099 32.4542 80.4336 31.5159 80.4336 30.2526C80.4336 29.2128 79.7712 28.6642 78.2476 27.5616ZM78.8249 23.6877C78.5071 24.0103 77.9655 24.2586 77.462 24.2586C75.7367 24.2586 74.9523 21.9942 74.9523 20.6288C74.9523 20.0989 75.054 19.5479 75.3939 19.1232C75.7141 18.713 76.2783 18.4478 76.799 18.4478C78.4684 18.4478 79.3296 20.7315 79.3296 22.1978C79.3296 22.567 79.2891 23.217 78.8249 23.6877ZM67.2189 27.2728C64.0265 27.2728 62.3184 24.7492 62.3184 22.4643C62.3184 19.7944 64.4657 17.5101 67.52 17.5101C70.4726 17.5101 72.3217 19.8567 72.3217 22.3205C72.3217 24.7269 70.494 27.2728 67.2189 27.2728ZM69.7304 25.6234C69.268 26.2747 68.4663 26.6608 67.6807 26.6608C65.2466 26.6608 64.2658 23.3385 64.2658 21.3242C64.2658 20.4445 64.4056 19.5479 65.19 18.8344C65.6709 18.4055 66.3381 18.1427 67.0005 18.1427C69.4912 18.1427 70.3339 21.5671 70.3339 23.3627C70.3339 24.1565 70.2161 24.9709 69.7304 25.6234ZM56.5306 27.2728C53.3376 27.2728 51.6325 24.7492 51.6325 22.4643C51.6325 19.7944 53.7804 17.5101 56.8335 17.5101C59.7843 17.5101 61.6316 19.8567 61.6316 22.3205C61.6316 24.7269 59.8063 27.2728 56.5306 27.2728ZM59.0427 25.6234C58.5791 26.2747 57.7786 26.6608 56.9948 26.6608C54.5648 26.6608 53.5798 23.3385 53.5798 21.3242C53.5798 20.4445 53.7191 19.5479 54.5047 18.8344C54.9868 18.4055 55.6468 18.1427 56.3116 18.1427C58.7999 18.1427 59.645 21.5671 59.645 23.3627C59.645 24.1565 59.5248 24.9709 59.0427 25.6234ZM50.3559 26.5653L47.6634 27.1913C46.5725 27.3659 45.5929 27.5193 44.5556 27.5193C39.3623 27.5193 37.3834 23.6388 37.3834 20.6016C37.3834 16.8926 40.1872 13.4537 44.9888 13.4537C46.0048 13.4537 46.982 13.6054 47.8723 13.8519C49.2834 14.2542 49.9435 14.7503 50.3559 15.0409L48.7919 16.5489L48.1324 16.6987L48.6026 15.938C47.9658 15.3067 46.7951 14.1413 44.5734 14.1413C41.603 14.1413 39.3623 16.4335 39.3623 19.7799C39.3623 23.3741 41.9208 26.755 46.0244 26.755C47.2302 26.755 47.8509 26.5092 48.4145 26.2796V23.1983L45.5715 23.3536L47.0784 22.5319H51.0683L50.5803 23.0086C50.4488 23.1222 50.4309 23.1609 50.394 23.3131C50.3744 23.4871 50.3559 24.0405 50.3559 24.2351V26.5653ZM100.82 25.7274V30.9202H99.8045V17.7064H100.82V19.2114C101.482 18.2387 102.692 17.4678 104.096 17.4678C106.615 17.4678 108.312 19.4078 108.312 22.4788C108.312 25.5292 106.615 27.5097 104.096 27.5097C102.77 27.5097 101.582 26.8155 100.82 25.7274ZM107.221 22.4788C107.221 24.7969 106.032 26.5774 103.925 26.5774C102.616 26.5774 101.364 25.4954 100.82 24.5831V20.3533C101.364 19.4428 102.616 18.3988 103.925 18.3988C106.032 18.3988 107.221 20.1642 107.221 22.4788ZM109.699 14.0579H110.715V27.2716H109.699V14.0579ZM122.114 30.0659C122.332 30.1644 122.702 30.2248 122.937 30.2248C123.559 30.2248 123.991 29.9668 124.38 29.0557L125.121 27.3514L121.119 17.7064H122.252L125.685 26.0645L129.085 17.7064H130.234L125.353 29.3753C124.847 30.5776 124.05 31.1558 122.955 31.1558C122.627 31.1558 122.193 31.0966 121.94 31.0174L122.114 30.0659ZM119.147 27.2432C119.079 26.9115 119.028 26.6191 118.99 26.375C118.959 26.1315 118.942 25.8826 118.942 25.6295C118.593 26.1485 118.1 26.5804 117.47 26.9206C116.839 27.2632 116.24 27.4311 115.418 27.4311C114.428 27.4311 113.66 27.184 113.111 26.6825C112.565 26.1817 112.29 25.5032 112.29 24.6447C112.29 23.7874 112.688 23.0914 113.482 22.5591C114.276 22.0244 115.302 21.7586 116.572 21.7586H118.942V20.5702C118.942 19.8857 118.712 19.3474 118.253 18.9571C117.792 18.5662 117.146 18.3686 116.308 18.3686C115.542 18.3686 114.921 18.5493 114.448 18.9009C113.979 19.2598 113.742 19.7044 113.742 20.2403H112.703L112.681 20.189C112.644 19.4664 112.969 18.8326 113.661 18.2852C114.351 17.7385 115.253 17.4636 116.365 17.4636C117.472 17.4636 118.368 17.7342 119.044 18.2744C119.719 18.809 120.057 19.5818 120.057 20.5919V25.3105C120.057 25.6494 120.074 25.9769 120.115 26.2959C120.158 26.6155 120.227 26.9345 120.318 27.2432H119.147ZM115.542 26.4916C116.405 26.4916 117.025 26.2959 117.659 25.9086C118.289 25.5238 118.717 25.0217 118.942 24.4139V22.5772H116.561C115.652 22.5772 114.899 22.7814 114.307 23.1935C113.713 23.6043 113.413 24.1015 113.413 24.6797C113.413 25.2253 113.603 25.6615 113.982 25.992C114.361 26.3261 114.88 26.4916 115.542 26.4916Z" fill="#364F55"/>
<path fill-rule="evenodd" clip-rule="evenodd" d="M15.2723 30.8786C14.9454 30.7903 14.7325 30.4646 14.7325 29.9606V13.324C14.7325 12.8573 14.9127 12.5424 15.1984 12.428L23.3468 21.6993L15.2723 30.8786ZM16.394 30.5255L26.2021 24.9481L23.8132 22.23L16.394 30.5255ZM26.2696 18.3765L16.5982 12.8755L23.8273 21.153L26.2696 18.3765ZM26.9258 18.7497L30.7145 20.9047C31.4319 21.3127 31.4384 21.9704 30.7145 22.3821L26.83 24.591L24.2962 21.6899L26.9258 18.7497Z" fill="#364F55"/>
</svg>
