<svg width="57" height="55" viewBox="0 0 57 55" fill="none" xmlns="http://www.w3.org/2000/svg">
<path d="M42.3682 21.452C42.337 21.6141 42.4403 21.7141 42.5019 21.8223C43.6626 23.8617 44.4648 26.0347 44.9185 28.3245C45.2616 30.0563 45.4206 31.8118 45.3243 33.5795C45.1416 36.9352 44.3054 40.117 42.6868 43.0861C40.6334 46.8523 37.7371 49.8132 33.9933 51.9744C31.8132 53.2329 29.4811 54.0897 27.0107 54.5706C25.2542 54.9126 23.4733 55.0673 21.6814 54.9726C17.8826 54.7717 14.3246 53.7561 11.0602 51.8128C7.68201 49.8016 5.00079 47.1066 3.01868 43.7363C1.76908 41.6115 0.921786 39.3371 0.430758 36.9357C0.255014 36.0761 0.142725 35.2035 0.0802648 34.3233C0.0258608 33.5561 -0.0194925 32.7908 0.00855494 32.0235C0.142327 28.3556 1.07833 24.9037 2.90659 21.699C4.29175 19.271 6.06779 17.1604 8.2531 15.3922C11.0232 13.1508 14.1434 11.6108 17.6494 10.8396C18.7799 10.5909 19.9193 10.4439 21.072 10.3363C22.3504 10.2169 23.6224 10.2529 24.8887 10.3778C27.1101 10.5969 29.263 11.1215 31.3282 11.9718C34.3228 13.2048 36.9535 14.9633 39.2019 17.275C39.7061 17.7934 40.224 18.2935 40.8245 18.7115C43.4424 20.5341 47.0391 19.1472 47.6954 15.9921C47.9695 14.6745 47.6484 13.4362 46.751 12.381C46.6447 12.256 46.5232 12.1434 46.4187 12.0171C46.059 11.5823 46.0996 11.044 46.4969 10.6598C46.838 10.3299 47.5128 10.3621 47.8439 10.6996C48.826 11.7008 49.4237 12.8774 49.6321 14.2594C49.9052 16.0708 49.4332 17.6835 48.304 19.1045C47.3308 20.3293 46.0357 21.0587 44.4838 21.3574C43.9905 21.4524 43.4988 21.457 43.0027 21.4521C42.7898 21.4502 42.577 21.452 42.3682 21.452ZM43.3587 32.614C43.3619 21.3679 34.0827 12.22 22.669 12.2211C11.2534 12.2222 1.98858 21.3791 1.98261 32.6171C1.97665 43.8868 11.2786 53.0737 22.7462 53.0361C34.1022 52.9987 43.3742 43.8789 43.3587 32.614Z" fill="#2C2C2C"/>
<path d="M6.06294 39.3912C6.06135 36.8792 8.05451 34.5044 11.0543 34.5263C13.8794 34.5469 15.9794 36.7053 15.9756 39.418C15.9715 42.3929 13.498 44.3883 10.8555 44.3062C8.18977 44.2234 6.02694 42.0245 6.06294 39.3912ZM11.0288 42.3507C12.4534 42.4338 13.9982 41.1528 14.0125 39.4546C14.0263 37.8173 12.6569 36.459 11.0071 36.4634C9.25 36.4681 8.02228 38.0005 8.02507 39.4246C8.02805 40.9363 9.41242 42.4286 11.0288 42.3507Z" fill="#2C2C2C"/>
<path d="M39.3907 39.3212C39.4501 41.7376 37.4383 44.1611 34.501 44.1927C31.5536 44.2245 29.5179 41.8392 29.4913 39.3752C29.4628 36.7446 31.5418 34.4102 34.4455 34.4055C37.3683 34.4009 39.4657 36.8008 39.3907 39.3212ZM34.3965 42.2419C35.8378 42.3176 37.4579 41.1289 37.4378 39.2515C37.4189 37.4842 35.8384 36.3466 34.4476 36.3408C33.1784 36.3354 31.4999 37.3747 31.4459 39.2482C31.3998 40.8524 32.7911 42.237 34.3965 42.2419Z" fill="#2C2C2C"/>
<path d="M39.3154 25.8904C39.3101 28.4851 37.2115 30.753 34.3387 30.7333C31.3647 30.7129 29.341 28.293 29.4117 25.6908C29.48 23.1788 31.6478 20.8033 34.6405 20.9576C37.2327 21.0911 39.356 23.2118 39.3154 25.8904ZM34.3822 22.9086C32.9647 22.8079 31.3814 24.1022 31.3783 25.8309C31.3753 27.505 32.8162 28.7955 34.3567 28.7962C35.9307 28.7969 37.3563 27.5387 37.3609 25.8552C37.3658 24.0262 35.7663 22.8379 34.3822 22.9086Z" fill="#2C2C2C"/>
<path d="M22.8083 41.1353C25.2731 41.0845 27.7124 43.1096 27.7116 45.994C27.7108 49.0207 25.1434 50.9722 22.5939 50.8998C20.158 50.8306 17.615 48.7643 17.8029 45.6845C17.961 43.0919 20.2218 41.0467 22.8083 41.1353ZM19.775 46.0026C19.6949 47.2818 20.806 48.9497 22.7488 48.9599C24.5098 48.9691 25.7174 47.5811 25.7466 46.069C25.7779 44.444 24.4483 43.0527 22.7617 43.0555C20.9249 43.0585 19.7263 44.581 19.775 46.0026Z" fill="#2C2C2C"/>
<path d="M22.6923 24.1241C20.1933 24.2051 17.7279 22.1382 17.7096 19.2868C17.6907 16.338 20.19 14.3641 22.6535 14.3553C25.1345 14.3464 27.6342 16.3177 27.6337 19.2523C27.6333 22.1016 25.2469 24.1746 22.6923 24.1241ZM25.6553 19.2907C25.7347 17.88 24.5136 16.2938 22.6647 16.2974C20.8707 16.3008 19.7277 17.8018 19.6771 19.1598C19.6244 20.5746 20.7934 22.2073 22.6817 22.2024C24.5537 22.1976 25.6981 20.5961 25.6553 19.2907Z" fill="#2C2C2C"/>
<path d="M6.02866 25.8707C6.00588 23.3605 8.04747 21.0236 10.9177 20.9884C13.9243 20.9517 15.9437 23.4093 15.9353 25.8908C15.9266 28.4348 13.8409 30.727 11.0477 30.7712C8.3183 30.8143 5.99613 28.5803 6.02866 25.8707ZM10.9821 28.8124C12.3061 28.9063 13.9853 27.735 13.9669 25.871C13.9482 23.9709 12.3395 22.9252 11.0145 22.9244C9.36162 22.9233 7.99317 24.1607 7.98342 25.8848C7.97338 27.6615 9.57556 28.9046 10.9821 28.8124Z" fill="#2C2C2C"/>
<path d="M25.6538 32.6523C25.6153 34.2978 24.2495 35.5982 22.6245 35.5642C20.9188 35.5285 19.6739 34.1321 19.6957 32.606C19.7193 30.9595 21.0773 29.6713 22.7196 29.6936C24.3129 29.7152 25.6421 31.0175 25.6538 32.6523ZM22.6595 33.6112C23.2346 33.6129 23.6619 33.2012 23.6677 32.6395C23.6736 32.0747 23.2531 31.6512 22.6826 31.6471C22.1056 31.6429 21.6828 32.051 21.6766 32.6181C21.6704 33.1852 22.0903 33.6094 22.6595 33.6112Z" fill="#2C2C2C"/>
<circle cx="44.5" cy="12.5" r="12.5" fill="#FEC741"/>
<path d="M38.0541 16.728L38.1221 16.048C38.1221 15.946 38.1731 15.895 38.2751 15.895C38.3317 15.895 38.4337 15.9177 38.5811 15.963C38.8984 16.0537 39.2101 16.099 39.5161 16.099C39.9467 16.099 40.3321 16.014 40.6721 15.844C41.0121 15.674 41.2784 15.4813 41.4711 15.266C41.6751 15.0393 41.8507 14.7333 41.9981 14.348C42.1567 13.9627 42.2644 13.651 42.3211 13.413C42.3891 13.1637 42.4627 12.8407 42.5421 12.444L42.5761 12.274L42.5421 12.24C42.3381 12.6253 42.0377 12.9427 41.6411 13.192C41.2557 13.43 40.8251 13.549 40.3491 13.549C39.4764 13.549 38.7794 13.1977 38.2581 12.495C37.7481 11.781 37.4931 10.8743 37.4931 9.775C37.4931 8.57367 37.8047 7.616 38.4281 6.902C39.0627 6.188 39.8504 5.831 40.7911 5.831C42.8877 5.831 43.9361 7.38933 43.9361 10.506C43.9361 11.4353 43.8341 12.376 43.6301 13.328C43.4261 14.2687 43.1144 15.0393 42.6951 15.64C41.9471 16.7053 40.9384 17.238 39.6691 17.238C39.3857 17.238 38.9324 17.1757 38.3091 17.051C38.1617 17.0057 38.0767 16.9547 38.0541 16.898C38.0427 16.8527 38.0427 16.796 38.0541 16.728ZM40.7741 7.021C40.2074 7.021 39.7484 7.259 39.3971 7.735C39.0571 8.211 38.8871 8.86833 38.8871 9.707C38.8871 10.6137 39.0571 11.288 39.3971 11.73C39.7484 12.1607 40.1734 12.376 40.6721 12.376C41.1594 12.376 41.5901 12.1777 41.9641 11.781C42.3494 11.373 42.5421 10.6533 42.5421 9.622C42.5421 8.76067 42.3834 8.11467 42.0661 7.684C41.7487 7.242 41.3181 7.021 40.7741 7.021ZM48.0061 12.05C48.0061 12.6033 47.8827 13.04 47.6361 13.36C47.3961 13.68 47.0661 13.84 46.6461 13.84C46.5594 13.84 46.4727 13.8333 46.3861 13.82C46.2994 13.8067 46.1894 13.7667 46.0561 13.7C45.9227 13.6333 45.8061 13.5467 45.7061 13.44C45.6127 13.3333 45.5294 13.1733 45.4561 12.96C45.3827 12.74 45.3461 12.4867 45.3461 12.2C45.3461 11.66 45.4661 11.23 45.7061 10.91C45.9461 10.59 46.2827 10.43 46.7161 10.43C47.0894 10.43 47.3961 10.5633 47.6361 10.83C47.8827 11.0967 48.0061 11.5033 48.0061 12.05ZM46.6461 13.3C47.1127 13.3 47.3461 12.9033 47.3461 12.11C47.3461 11.35 47.1327 10.97 46.7061 10.97C46.2394 10.97 46.0061 11.37 46.0061 12.17C46.0061 12.9233 46.2194 13.3 46.6461 13.3ZM52.1661 15.35C52.1661 15.9033 52.0427 16.34 51.7961 16.66C51.5561 16.98 51.2261 17.14 50.8061 17.14C50.7194 17.14 50.6327 17.1333 50.5461 17.12C50.4594 17.1067 50.3494 17.0667 50.2161 17C50.0827 16.9333 49.9661 16.8467 49.8661 16.74C49.7727 16.6333 49.6894 16.4733 49.6161 16.26C49.5427 16.04 49.5061 15.7867 49.5061 15.5C49.5061 14.96 49.6261 14.53 49.8661 14.21C50.1061 13.89 50.4427 13.73 50.8761 13.73C51.2494 13.73 51.5561 13.8633 51.7961 14.13C52.0427 14.3967 52.1661 14.8033 52.1661 15.35ZM50.8061 16.6C51.2727 16.6 51.5061 16.2033 51.5061 15.41C51.5061 14.65 51.2927 14.27 50.8661 14.27C50.3994 14.27 50.1661 14.67 50.1661 15.47C50.1661 16.2233 50.3794 16.6 50.8061 16.6ZM49.4861 10.43H49.9061C50.0261 10.43 50.0627 10.4867 50.0161 10.6L48.0161 17.04C47.9961 17.1067 47.9494 17.14 47.8761 17.14H47.4561C47.3827 17.14 47.3394 17.1233 47.3261 17.09C47.3127 17.0633 47.3194 17.0267 47.3461 16.98L49.3361 10.53C49.3627 10.4633 49.4127 10.43 49.4861 10.43Z" fill="black"/>
</svg>
