<svg width="63" height="59" viewBox="0 0 63 59" fill="none" xmlns="http://www.w3.org/2000/svg">
<path d="M4.40625 14.9375C3.59508 14.9375 2.9375 15.5951 2.9375 16.4062V39.9062C2.9375 40.7174 3.59508 41.375 4.40625 41.375H22.0312C22.8424 41.375 23.5 40.7174 23.5 39.9062V16.4062C23.5 15.5951 22.8424 14.9375 22.0312 14.9375H4.40625ZM4.40625 12H22.0312C24.4648 12 26.4375 13.9727 26.4375 16.4062V39.9062C26.4375 42.3398 24.4648 44.3125 22.0312 44.3125H4.40625C1.97275 44.3125 0 42.3398 0 39.9062V16.4062C0 13.9727 1.97275 12 4.40625 12Z" fill="#2C2C2C"/>
<path d="M11.75 44.3125V54.5938C11.75 55.4049 12.4076 56.0625 13.2188 56.0625C14.0299 56.0625 14.6875 55.4049 14.6875 54.5938V44.3125H11.75ZM8.8125 41.375H17.625V54.5938C17.625 57.0273 15.6523 59 13.2188 59C10.7852 59 8.8125 57.0273 8.8125 54.5938V41.375Z" fill="#2C2C2C"/>
<path d="M42.5938 14.9375C41.7826 14.9375 41.125 15.5951 41.125 16.4062V54.5938C41.125 55.4049 41.7826 56.0625 42.5938 56.0625C43.4049 56.0625 44.0625 55.4049 44.0625 54.5938V16.4062C44.0625 15.5951 43.4049 14.9375 42.5938 14.9375ZM42.5938 12C45.0273 12 47 13.9727 47 16.4062V54.5938C47 57.0273 45.0273 59 42.5938 59C40.1602 59 38.1875 57.0273 38.1875 54.5938V16.4062C38.1875 13.9727 40.1602 12 42.5938 12Z" fill="#2C2C2C"/>
<path d="M41.125 12H30.8438C30.0326 12 29.375 12.6576 29.375 13.4688C29.375 14.2799 30.0326 14.9375 30.8438 14.9375H41.125C41.9362 14.9375 42.5938 14.2799 42.5938 13.4688C42.5938 12.6576 41.9362 12 41.125 12Z" fill="#2C2C2C"/>
<path d="M38.1875 17.875H30.8438C30.0326 17.875 29.375 18.5326 29.375 19.3438C29.375 20.1549 30.0326 20.8125 30.8438 20.8125H38.1875C38.9987 20.8125 39.6562 20.1549 39.6562 19.3438C39.6562 18.5326 38.9987 17.875 38.1875 17.875Z" fill="#2C2C2C"/>
<path d="M38.1875 23.75H30.8438C30.0326 23.75 29.375 24.4076 29.375 25.2188C29.375 26.0299 30.0326 26.6875 30.8438 26.6875H38.1875C38.9987 26.6875 39.6562 26.0299 39.6562 25.2188C39.6562 24.4076 38.9987 23.75 38.1875 23.75Z" fill="#2C2C2C"/>
<path d="M38.1875 29.625H30.8438C30.0326 29.625 29.375 30.2826 29.375 31.0938C29.375 31.9049 30.0326 32.5625 30.8438 32.5625H38.1875C38.9987 32.5625 39.6562 31.9049 39.6562 31.0938C39.6562 30.2826 38.9987 29.625 38.1875 29.625Z" fill="#2C2C2C"/>
<path d="M38.1875 35.5H30.8438C30.0326 35.5 29.375 36.1576 29.375 36.9688C29.375 37.7799 30.0326 38.4375 30.8438 38.4375H38.1875C38.9987 38.4375 39.6562 37.7799 39.6562 36.9688C39.6562 36.1576 38.9987 35.5 38.1875 35.5Z" fill="#2C2C2C"/>
<path d="M38.1875 41.375H30.8438C30.0326 41.375 29.375 42.0326 29.375 42.8438C29.375 43.6549 30.0326 44.3125 30.8438 44.3125H38.1875C38.9987 44.3125 39.6562 43.6549 39.6562 42.8438C39.6562 42.0326 38.9987 41.375 38.1875 41.375Z" fill="#2C2C2C"/>
<circle cx="50.5" cy="12.5" r="12.5" fill="#FEC741"/>
<path d="M48.8311 14.586V17.034C48.8311 17.1247 48.8141 17.1813 48.7801 17.204C48.7574 17.2267 48.7121 17.238 48.6441 17.238H47.7431C47.6071 17.238 47.5391 17.17 47.5391 17.034V14.586H43.1871C43.0511 14.586 42.9831 14.518 42.9831 14.382V13.396L47.4541 5.967C47.5221 5.865 47.6241 5.82533 47.7601 5.848L48.5591 5.984C48.6951 6.018 48.7631 6.069 48.7631 6.137C48.7631 6.171 48.7404 6.222 48.6951 6.29L44.3261 13.481H47.5391L47.7601 10.744C47.7714 10.5967 47.8451 10.523 47.9811 10.523H48.6271C48.7631 10.523 48.8311 10.591 48.8311 10.727V13.481H50.2251C50.3611 13.481 50.4291 13.549 50.4291 13.685V14.382C50.4291 14.518 50.3611 14.586 50.2251 14.586H48.8311ZM54.0061 12.05C54.0061 12.6033 53.8827 13.04 53.6361 13.36C53.3961 13.68 53.0661 13.84 52.6461 13.84C52.5594 13.84 52.4727 13.8333 52.3861 13.82C52.2994 13.8067 52.1894 13.7667 52.0561 13.7C51.9227 13.6333 51.8061 13.5467 51.7061 13.44C51.6127 13.3333 51.5294 13.1733 51.4561 12.96C51.3827 12.74 51.3461 12.4867 51.3461 12.2C51.3461 11.66 51.4661 11.23 51.7061 10.91C51.9461 10.59 52.2827 10.43 52.7161 10.43C53.0894 10.43 53.3961 10.5633 53.6361 10.83C53.8827 11.0967 54.0061 11.5033 54.0061 12.05ZM52.6461 13.3C53.1127 13.3 53.3461 12.9033 53.3461 12.11C53.3461 11.35 53.1327 10.97 52.7061 10.97C52.2394 10.97 52.0061 11.37 52.0061 12.17C52.0061 12.9233 52.2194 13.3 52.6461 13.3ZM58.1661 15.35C58.1661 15.9033 58.0427 16.34 57.7961 16.66C57.5561 16.98 57.2261 17.14 56.8061 17.14C56.7194 17.14 56.6327 17.1333 56.5461 17.12C56.4594 17.1067 56.3494 17.0667 56.2161 17C56.0827 16.9333 55.9661 16.8467 55.8661 16.74C55.7727 16.6333 55.6894 16.4733 55.6161 16.26C55.5427 16.04 55.5061 15.7867 55.5061 15.5C55.5061 14.96 55.6261 14.53 55.8661 14.21C56.1061 13.89 56.4427 13.73 56.8761 13.73C57.2494 13.73 57.5561 13.8633 57.7961 14.13C58.0427 14.3967 58.1661 14.8033 58.1661 15.35ZM56.8061 16.6C57.2727 16.6 57.5061 16.2033 57.5061 15.41C57.5061 14.65 57.2927 14.27 56.8661 14.27C56.3994 14.27 56.1661 14.67 56.1661 15.47C56.1661 16.2233 56.3794 16.6 56.8061 16.6ZM55.4861 10.43H55.9061C56.0261 10.43 56.0627 10.4867 56.0161 10.6L54.0161 17.04C53.9961 17.1067 53.9494 17.14 53.8761 17.14H53.4561C53.3827 17.14 53.3394 17.1233 53.3261 17.09C53.3127 17.0633 53.3194 17.0267 53.3461 16.98L55.3361 10.53C55.3627 10.4633 55.4127 10.43 55.4861 10.43Z" fill="black"/>
</svg>
