<svg width="59" height="56" viewBox="0 0 59 56" fill="none" xmlns="http://www.w3.org/2000/svg">
<path d="M8.45816 28.4276C8.54686 28.4003 8.62167 28.3592 8.69794 28.3563C10.2309 28.2973 11.7172 26.7673 11.4363 24.6761C11.3128 23.7571 11.2551 22.8291 11.1222 21.9118C10.9894 20.9947 10.9572 20.0681 10.7994 19.1516C10.7046 18.601 10.7035 18.027 10.6428 17.4648C10.5551 16.6517 10.3813 15.8777 9.77719 15.2623C9.40375 14.882 8.96891 14.6051 8.44415 14.4056C8.44415 14.1014 8.43136 13.8 8.44659 13.4999C8.49228 12.6009 9.11926 11.9424 10.0246 11.8909C10.6924 11.8529 11.3639 11.872 12.0338 11.8775C12.261 11.8793 12.4843 11.8613 12.6855 11.7649C13.3811 11.4317 13.3917 10.1909 12.7476 9.82135C12.617 9.74642 12.4847 9.72771 12.3406 9.72808C11.3661 9.7299 10.3906 9.70221 9.4174 9.73622C8.03514 9.78443 6.62924 11.0902 6.36643 12.4487C6.24191 13.0924 6.30369 13.7343 6.25227 14.4081C5.76894 14.5928 5.31996 14.849 4.95359 15.2357C4.60257 15.6063 4.37206 16.0471 4.18272 16.5307C3.83499 16.5095 3.54002 16.3715 3.22969 16.2996C2.28739 16.0812 1.40272 16.1833 0.706409 16.9205C0.303368 17.347 0.0149765 17.8488 0.0154648 18.4724C0.0168037 20.2508 0.0259438 22.0294 0.000232697 23.8074C-0.0192604 25.153 1.25335 26.2603 2.40216 26.1652C2.69872 26.1406 3.00051 26.1779 3.30694 26.0532C3.80087 27.4543 4.73465 28.292 6.22145 28.4021C6.30052 28.6279 6.26555 28.8319 6.26579 29.0322C6.26835 31.2178 6.2686 33.4033 6.26555 35.5888C6.26494 36.057 6.3166 36.5248 6.4968 36.9494C7.06883 38.2979 8.0673 39.116 9.56056 39.268C9.90231 39.3029 10.2543 39.2997 10.5727 39.4398C11.2734 39.7481 11.6202 40.3054 11.6373 41.0605C11.6556 41.8671 11.6637 42.6742 11.6626 43.4809C11.66 45.3622 11.6434 47.2434 11.6432 49.1246C11.6428 51.337 13.5148 52.8776 15.3595 52.7707C16.188 52.7226 17.0216 52.7626 17.8902 52.7626C18.0917 53.6499 18.5212 54.4062 19.2123 55.0036C19.9388 55.6316 20.7683 55.9947 21.744 55.9945C28.5248 55.9933 35.3055 55.9846 42.0863 56C43.9377 56.0042 45.5721 54.4337 45.8612 53.0442C45.94 52.6654 45.9989 52.2937 45.9989 51.9106C45.9997 42.8244 46.0005 33.7382 45.9996 24.6519C45.9995 22.9235 45.1636 21.7112 43.6557 20.9256C43.4805 20.8342 43.2813 20.7886 43.0745 20.715C42.987 20.5585 43.0327 20.3732 43.0325 20.197C43.0288 18.1126 43.021 16.0282 43.0331 13.9439C43.0417 12.4237 42.5197 11.1457 41.3643 10.1397C40.5281 9.41159 39.5607 9.00328 38.4427 9.00219C34.098 8.99794 29.7535 9.0017 25.409 9C22.9595 8.99903 20.8858 11.1799 20.8701 13.3262C20.8539 15.5316 20.857 17.7372 20.8475 19.9427C20.8465 20.1831 20.8841 20.4271 20.8018 20.7042C19.9562 20.9256 19.2651 21.4169 18.7037 22.1047C18.0895 22.8572 17.8285 23.7209 17.8287 24.6806C17.8306 33.099 17.8298 41.5174 17.8298 49.9358C17.8298 50.1548 17.8298 50.3739 17.8298 50.6315C17.0126 50.6315 16.2225 50.6912 15.4453 50.6167C14.4364 50.52 13.8119 49.7686 13.8099 48.7677C13.8049 46.117 13.7847 43.466 13.8163 40.8156C13.8354 39.2091 12.8007 37.8477 11.3918 37.321C11.0855 37.2065 10.7681 37.1663 10.4383 37.1689C9.16142 37.1794 8.41052 36.2784 8.42953 35.1716C8.46596 33.0474 8.43976 30.9222 8.44086 28.7973C8.44086 28.6776 8.45182 28.5578 8.45816 28.4276ZM19.9924 38.3087C19.9924 36.0827 19.9922 33.8566 19.9925 31.6306C19.9929 29.4247 20.0096 27.2187 19.9887 25.0131C19.9758 23.6426 21.1276 22.7037 22.2821 22.7071C28.7179 22.7261 35.1537 22.7188 41.5894 22.7114C42.0775 22.7108 42.5065 22.8558 42.8914 23.1216C43.6189 23.624 43.8794 24.3584 43.8793 25.2134C43.8782 33.4701 43.8793 41.7267 43.8796 49.9835C43.8796 50.5096 43.9068 51.0376 43.8727 51.5616C43.8093 52.5352 43.3997 53.2892 42.4474 53.693C42.0752 53.8509 41.6988 53.8421 41.3174 53.8422C35.8561 53.8442 30.3947 53.8335 24.9336 53.8521C23.9825 53.8554 23.0308 53.8681 22.0817 53.8302C21.1483 53.7929 20.5038 53.3028 20.1488 52.4307C19.999 52.0624 19.9922 51.6847 19.9922 51.3009C19.9925 46.9701 19.9924 42.6394 19.9924 38.3087ZM32.9956 17.9249C33.2039 17.8166 33.4093 17.8685 33.6058 17.8671C34.5194 17.8611 35.4331 17.8725 36.3466 17.8619C37.2902 17.851 38.2585 16.9169 38.2962 15.976C38.3173 15.4509 38.316 14.9239 38.2954 14.3988C38.2587 13.462 37.3386 12.5311 36.406 12.5267C33.4423 12.5128 30.4785 12.5345 27.5148 12.5142C26.497 12.5073 25.4336 13.6478 25.4996 14.5567C25.5303 14.9795 25.4976 15.4065 25.5063 15.8313C25.5288 16.924 26.4801 17.8551 27.5862 17.863C28.5201 17.8697 29.4542 17.8609 30.388 17.8677C30.5412 17.8688 30.7121 17.8036 30.8265 17.9146C30.8265 18.7991 30.8265 19.6589 30.8265 20.4976C28.18 20.4976 25.572 20.4976 22.9483 20.4976C22.9483 18.3153 22.8931 16.1697 22.9656 14.0283C23.0242 12.2966 24.339 11.1455 25.9375 11.15C29.9168 11.161 33.8962 11.1523 37.8755 11.1557C38.1383 11.1559 38.4159 11.1427 38.6615 11.2176C40.1539 11.6732 40.8629 12.8518 40.8603 14.1308C40.8563 16.114 40.8603 18.0974 40.8579 20.0806C40.8578 20.2169 40.8937 20.3602 40.8121 20.4964C38.2089 20.4964 35.6049 20.4964 32.9956 20.4964C32.9956 19.6128 32.9956 18.7695 32.9956 17.9249ZM9.29739 25.1347C9.11828 25.7875 8.75277 26.1892 8.10812 26.2332C7.60334 26.2675 7.0915 26.2751 6.58794 26.2338C5.78173 26.1676 5.32435 25.5039 5.48359 24.7057C5.51101 24.5681 5.50747 24.4246 5.52708 24.285C5.60336 23.7447 5.60312 23.1949 5.67829 22.6584C5.86848 21.3018 5.99471 19.9394 6.14103 18.5786C6.19427 18.0826 6.18977 17.5646 6.42284 17.1061C6.61754 16.7232 6.93554 16.4717 7.38988 16.4897C7.84007 16.5075 8.13626 16.7765 8.31098 17.1694C8.38262 17.3305 8.42088 17.5092 8.45914 17.6875C8.58682 18.2838 8.5599 18.8919 8.64238 19.4915C8.80138 20.647 8.9421 21.8059 9.04993 22.9671C9.11719 23.6902 9.17896 24.4127 9.29739 25.1347ZM27.7264 14.7945C27.9252 14.6142 28.1484 14.6211 28.3721 14.6212C30.7455 14.6225 33.1188 14.6229 35.4922 14.6222C35.6962 14.6221 35.8985 14.6199 36.0693 14.7564C36.2991 15.0838 36.2843 15.3886 35.9937 15.6833C35.8515 15.6952 35.7108 15.717 35.5701 15.7173C33.1561 15.7201 30.7422 15.7205 28.3282 15.7205C28.1271 15.7205 27.9224 15.7309 27.7365 15.5925C27.6307 15.3254 27.6336 15.0534 27.7264 14.7945ZM2.45321 23.9549C2.20747 23.7573 2.12523 23.5564 2.12534 23.3254C2.12571 21.8913 2.12936 20.4572 2.13412 19.0231C2.13485 18.7865 2.22744 18.595 2.4314 18.4724C2.88306 18.5114 3.63882 18.7216 3.91601 18.8834C3.74092 20.4769 3.56597 22.0706 3.39064 23.6664C3.0724 23.7644 2.76622 23.8586 2.45321 23.9549Z" fill="#2C2C2C"/>
<path d="M31.9601 37.7367C33.9904 37.7367 36.0206 37.7338 38.0509 37.7379C39.223 37.7404 40.101 37.2305 40.7315 36.2577C41.0397 35.782 41.1403 35.2621 41.139 34.7071C41.1351 32.9262 41.1382 31.1453 41.1383 29.3644C41.1384 28.4132 41.1444 27.462 41.1361 26.5108C41.1243 25.1542 40.3905 24.1237 39.1232 23.6444C38.7744 23.5125 38.4124 23.4891 38.0515 23.4885C33.9504 23.4825 29.8492 23.4891 25.748 23.4815C24.3365 23.4788 23.1858 24.3293 22.7394 25.8135C22.6775 26.0192 22.6987 26.2529 22.6986 26.4736C22.6964 29.2056 22.6952 31.9377 22.6985 34.6698C22.7005 36.4291 23.9738 37.7197 25.7476 37.7331C27.8183 37.7486 29.8893 37.7367 31.9601 37.7367ZM31.9621 25.574C33.7275 25.574 35.4928 25.5727 37.258 25.5755C37.5213 25.5758 37.7873 25.5747 38.047 25.6099C38.534 25.676 38.9402 26.0713 39.0254 26.5507C39.0569 26.7282 39.0547 26.9132 39.0549 27.0948C39.0567 29.4409 39.0563 31.7871 39.0555 34.1333C39.0555 34.2746 39.0552 34.417 39.0399 34.5571C38.985 35.0583 38.643 35.4592 38.1573 35.5881C37.922 35.6505 37.682 35.6763 37.4359 35.6742C36.604 35.667 35.772 35.6718 34.9401 35.6718C32.0791 35.6716 29.218 35.6569 26.3572 35.6784C25.2115 35.6871 24.74 34.9641 24.7568 34.0903C24.8015 31.7652 24.7719 29.4387 24.7719 27.1127C24.7719 27.0116 24.7682 26.9103 24.7738 26.8094C24.8126 26.1079 25.2376 25.6591 25.9366 25.5898C26.1176 25.5718 26.3013 25.5747 26.4836 25.5746C28.3098 25.5736 30.1359 25.574 31.9621 25.574Z" fill="#2C2C2C"/>
<circle cx="46.5" cy="12.5" r="12.5" fill="#FEC741"/>
<path d="M44.8311 14.586V17.034C44.8311 17.1247 44.8141 17.1813 44.7801 17.204C44.7574 17.2267 44.7121 17.238 44.6441 17.238H43.7431C43.6071 17.238 43.5391 17.17 43.5391 17.034V14.586H39.1871C39.0511 14.586 38.9831 14.518 38.9831 14.382V13.396L43.4541 5.967C43.5221 5.865 43.6241 5.82533 43.7601 5.848L44.5591 5.984C44.6951 6.018 44.7631 6.069 44.7631 6.137C44.7631 6.171 44.7404 6.222 44.6951 6.29L40.3261 13.481H43.5391L43.7601 10.744C43.7714 10.5967 43.8451 10.523 43.9811 10.523H44.6271C44.7631 10.523 44.8311 10.591 44.8311 10.727V13.481H46.2251C46.3611 13.481 46.4291 13.549 46.4291 13.685V14.382C46.4291 14.518 46.3611 14.586 46.2251 14.586H44.8311ZM50.0061 12.05C50.0061 12.6033 49.8827 13.04 49.6361 13.36C49.3961 13.68 49.0661 13.84 48.6461 13.84C48.5594 13.84 48.4727 13.8333 48.3861 13.82C48.2994 13.8067 48.1894 13.7667 48.0561 13.7C47.9227 13.6333 47.8061 13.5467 47.7061 13.44C47.6127 13.3333 47.5294 13.1733 47.4561 12.96C47.3827 12.74 47.3461 12.4867 47.3461 12.2C47.3461 11.66 47.4661 11.23 47.7061 10.91C47.9461 10.59 48.2827 10.43 48.7161 10.43C49.0894 10.43 49.3961 10.5633 49.6361 10.83C49.8827 11.0967 50.0061 11.5033 50.0061 12.05ZM48.6461 13.3C49.1127 13.3 49.3461 12.9033 49.3461 12.11C49.3461 11.35 49.1327 10.97 48.7061 10.97C48.2394 10.97 48.0061 11.37 48.0061 12.17C48.0061 12.9233 48.2194 13.3 48.6461 13.3ZM54.1661 15.35C54.1661 15.9033 54.0427 16.34 53.7961 16.66C53.5561 16.98 53.2261 17.14 52.8061 17.14C52.7194 17.14 52.6327 17.1333 52.5461 17.12C52.4594 17.1067 52.3494 17.0667 52.2161 17C52.0827 16.9333 51.9661 16.8467 51.8661 16.74C51.7727 16.6333 51.6894 16.4733 51.6161 16.26C51.5427 16.04 51.5061 15.7867 51.5061 15.5C51.5061 14.96 51.6261 14.53 51.8661 14.21C52.1061 13.89 52.4427 13.73 52.8761 13.73C53.2494 13.73 53.5561 13.8633 53.7961 14.13C54.0427 14.3967 54.1661 14.8033 54.1661 15.35ZM52.8061 16.6C53.2727 16.6 53.5061 16.2033 53.5061 15.41C53.5061 14.65 53.2927 14.27 52.8661 14.27C52.3994 14.27 52.1661 14.67 52.1661 15.47C52.1661 16.2233 52.3794 16.6 52.8061 16.6ZM51.4861 10.43H51.9061C52.0261 10.43 52.0627 10.4867 52.0161 10.6L50.0161 17.04C49.9961 17.1067 49.9494 17.14 49.8761 17.14H49.4561C49.3827 17.14 49.3394 17.1233 49.3261 17.09C49.3127 17.0633 49.3194 17.0267 49.3461 16.98L51.3361 10.53C51.3627 10.4633 51.4127 10.43 51.4861 10.43Z" fill="black"/>
</svg>
