<svg width="57" height="59" viewBox="0 0 57 59" fill="none" xmlns="http://www.w3.org/2000/svg">
<path d="M34.9861 16.9217C34.9433 15.7324 34.5366 14.7894 33.7553 14.0608C32.9848 13.3429 32.0536 13 30.9192 13C30.9085 13 30.9085 13 30.8978 13C24.6262 13.0107 18.3439 13.0107 12.0616 13.0107L5.62946 13H5.10505C4.62344 13 4.15253 13.0107 3.67093 13.0107C3.39266 13.0214 3.16791 13.0214 2.96457 13.075C1.20938 13.5465 -0.0106936 15.1216 8.82027e-06 16.9217V54.9497C8.82027e-06 55.2068 8.82016e-06 55.4426 0.0428183 55.6676C0.481616 57.9821 2.45085 59 4.09902 59C9.34319 58.9571 14.6623 58.9571 19.8101 58.9679C21.758 58.9679 23.7165 58.9786 25.6643 58.9786H27.3125C28.6289 58.9786 29.9988 58.9893 31.3366 58.9571C32.4389 58.9357 33.3807 58.4428 34.1192 57.4999C34.7078 56.7391 34.9968 55.8498 34.9968 54.7782C34.9861 45.499 34.9861 36.2304 34.9968 26.9618V18.3468C34.9968 17.8754 35.0075 17.3932 34.9861 16.9217ZM2.46156 16.9646C2.47226 16.0538 2.99668 15.4645 3.90638 15.368C4.04551 15.3466 4.19534 15.3573 4.33447 15.3573H30.4483C30.8122 15.3573 31.1332 15.3573 31.465 15.4859C32.1714 15.7538 32.5245 16.236 32.5245 16.9432C32.5353 18.529 32.5353 20.1148 32.5353 21.69L32.5245 23.4794L32.4496 23.5544C32.3854 23.6294 32.3747 23.6401 32.3533 23.6615C32.3212 23.6937 32.2463 23.758 32.1393 23.7687H32.0536C31.8931 23.7794 31.7326 23.7901 31.572 23.7901H2.46156V16.9646ZM32.5353 27.0368C32.5245 27.0689 32.5245 27.1118 32.5245 27.144L32.5353 54.7997C32.5353 55.2068 32.5031 55.6247 32.1928 55.9998C31.9787 56.2462 31.6791 56.5248 31.2082 56.5248C31.1975 56.5248 31.1975 56.5248 31.1868 56.5248C31.1118 56.5248 31.0476 56.5248 30.9727 56.5355H24.3693C17.6482 56.5355 10.9271 56.5355 4.20605 56.5462H4.19534C3.66022 56.5462 2.92176 56.4498 2.51507 55.5819L2.49366 55.464V26.2653H32.2677L32.3533 26.351C32.5674 26.5975 32.546 26.8654 32.5353 27.0368Z" fill="#2C2C2C"/>
<path d="M17.4877 32.0621C14.9406 32.0514 12.5753 33.0265 10.8308 34.7837C9.07565 36.541 8.11243 38.9091 8.12314 41.4485C8.13384 43.9773 9.13986 46.3561 10.9486 48.1241C12.6609 49.7849 14.9406 50.7385 17.2416 50.7385C17.3058 50.7385 17.37 50.7278 17.4342 50.7278H17.4449C19.8529 50.8243 22.2396 49.8492 24.0269 48.1241C25.8463 46.3453 26.8416 43.9559 26.8309 41.395C26.8202 36.166 22.7105 32.0621 17.4877 32.0621ZM21.4583 47.0525C20.2061 47.9312 18.7934 48.3598 17.4128 48.3598C15.5078 48.3598 13.6563 47.5562 12.3078 46.0025C9.85692 43.1737 9.95324 39.3055 12.5325 36.5839C14.8442 34.1623 18.7399 33.7979 21.4155 35.7695L21.6831 35.9624L21.4476 36.1874C19.7887 37.7197 18.9861 39.4234 18.9861 41.395C18.9968 43.4416 19.8101 45.156 21.4904 46.6347L21.7366 46.8597L21.4583 47.0525ZM23.5881 44.6524L23.4596 44.8881L23.2242 44.7702C22.2289 44.2559 21.5225 43.0344 21.4369 41.6736C21.3406 40.1842 21.9827 38.8448 23.1921 38.0197L23.4382 37.8483L23.5774 38.1161C24.6904 40.2806 24.6904 42.4772 23.5881 44.6524Z" fill="#2C2C2C"/>
<path d="M12.2831 20.6442H6.44176C5.85099 20.6442 5.37152 20.1642 5.37152 19.5727C5.37152 18.9813 5.85099 18.5012 6.44176 18.5012H12.2831C12.8739 18.5012 13.3534 18.9813 13.3534 19.5727C13.3534 20.1642 12.8739 20.6442 12.2831 20.6442Z" fill="#2C2C2C"/>
<path d="M17.5176 20.7525C18.153 20.7525 18.6681 20.2368 18.6681 19.6006C18.6681 18.9644 18.153 18.4487 17.5176 18.4487C16.8822 18.4487 16.3671 18.9644 16.3671 19.6006C16.3671 20.2368 16.8822 20.7525 17.5176 20.7525Z" fill="#2C2C2C"/>
<path d="M22.8763 20.7525C23.5117 20.7525 24.0268 20.2368 24.0268 19.6006C24.0268 18.9644 23.5117 18.4487 22.8763 18.4487C22.2409 18.4487 21.7258 18.9644 21.7258 19.6006C21.7258 20.2368 22.2409 20.7525 22.8763 20.7525Z" fill="#2C2C2C"/>
<path d="M28.3174 20.7525C28.9528 20.7525 29.4679 20.2368 29.4679 19.6006C29.4679 18.9644 28.9528 18.4487 28.3174 18.4487C27.682 18.4487 27.1669 18.9644 27.1669 19.6006C27.1669 20.2368 27.682 20.7525 28.3174 20.7525Z" fill="#2C2C2C"/>
<circle cx="44.5" cy="12.5" r="12.5" fill="#FEC741"/>
<path d="M42.8311 14.586V17.034C42.8311 17.1247 42.8141 17.1813 42.7801 17.204C42.7574 17.2267 42.7121 17.238 42.6441 17.238H41.7431C41.6071 17.238 41.5391 17.17 41.5391 17.034V14.586H37.1871C37.0511 14.586 36.9831 14.518 36.9831 14.382V13.396L41.4541 5.967C41.5221 5.865 41.6241 5.82533 41.7601 5.848L42.5591 5.984C42.6951 6.018 42.7631 6.069 42.7631 6.137C42.7631 6.171 42.7404 6.222 42.6951 6.29L38.3261 13.481H41.5391L41.7601 10.744C41.7714 10.5967 41.8451 10.523 41.9811 10.523H42.6271C42.7631 10.523 42.8311 10.591 42.8311 10.727V13.481H44.2251C44.3611 13.481 44.4291 13.549 44.4291 13.685V14.382C44.4291 14.518 44.3611 14.586 44.2251 14.586H42.8311ZM48.0061 12.05C48.0061 12.6033 47.8827 13.04 47.6361 13.36C47.3961 13.68 47.0661 13.84 46.6461 13.84C46.5594 13.84 46.4727 13.8333 46.3861 13.82C46.2994 13.8067 46.1894 13.7667 46.0561 13.7C45.9227 13.6333 45.8061 13.5467 45.7061 13.44C45.6127 13.3333 45.5294 13.1733 45.4561 12.96C45.3827 12.74 45.3461 12.4867 45.3461 12.2C45.3461 11.66 45.4661 11.23 45.7061 10.91C45.9461 10.59 46.2827 10.43 46.7161 10.43C47.0894 10.43 47.3961 10.5633 47.6361 10.83C47.8827 11.0967 48.0061 11.5033 48.0061 12.05ZM46.6461 13.3C47.1127 13.3 47.3461 12.9033 47.3461 12.11C47.3461 11.35 47.1327 10.97 46.7061 10.97C46.2394 10.97 46.0061 11.37 46.0061 12.17C46.0061 12.9233 46.2194 13.3 46.6461 13.3ZM52.1661 15.35C52.1661 15.9033 52.0427 16.34 51.7961 16.66C51.5561 16.98 51.2261 17.14 50.8061 17.14C50.7194 17.14 50.6327 17.1333 50.5461 17.12C50.4594 17.1067 50.3494 17.0667 50.2161 17C50.0827 16.9333 49.9661 16.8467 49.8661 16.74C49.7727 16.6333 49.6894 16.4733 49.6161 16.26C49.5427 16.04 49.5061 15.7867 49.5061 15.5C49.5061 14.96 49.6261 14.53 49.8661 14.21C50.1061 13.89 50.4427 13.73 50.8761 13.73C51.2494 13.73 51.5561 13.8633 51.7961 14.13C52.0427 14.3967 52.1661 14.8033 52.1661 15.35ZM50.8061 16.6C51.2727 16.6 51.5061 16.2033 51.5061 15.41C51.5061 14.65 51.2927 14.27 50.8661 14.27C50.3994 14.27 50.1661 14.67 50.1661 15.47C50.1661 16.2233 50.3794 16.6 50.8061 16.6ZM49.4861 10.43H49.9061C50.0261 10.43 50.0627 10.4867 50.0161 10.6L48.0161 17.04C47.9961 17.1067 47.9494 17.14 47.8761 17.14H47.4561C47.3827 17.14 47.3394 17.1233 47.3261 17.09C47.3127 17.0633 47.3194 17.0267 47.3461 16.98L49.3361 10.53C49.3627 10.4633 49.4127 10.43 49.4861 10.43Z" fill="black"/>
</svg>
