<svg width="58" height="57" viewBox="0 0 58 57" fill="none" xmlns="http://www.w3.org/2000/svg">
<path d="M22.347 36.178C22.491 36.178 22.635 36.183 22.779 36.188C22.967 36.194 23.156 36.2 23.381 36.2C23.388 36.2 23.395 36.2 23.402 36.2L23.614 36.198C29.679 36.198 34.894 41.09 35.744 47.578C36.003 49.554 35.954 50.926 35.581 52.164C35.152 53.588 34.431 53.901 33.407 53.944C33.291 53.949 33.175 53.951 33.06 53.951C32.103 53.951 31.137 53.787 30.108 53.449C27.837 52.703 25.553 52.325 23.319 52.325C21.059 52.325 18.794 52.712 16.589 53.475C15.671 53.793 14.719 53.954 13.761 53.954C13.591 53.954 13.42 53.949 13.248 53.939C12.228 53.88 11.571 53.34 11.241 52.288C10.761 50.759 10.728 49.07 11.138 46.973C12.302 41.023 16.48 36.892 22.042 36.192C22.12 36.183 22.22 36.178 22.347 36.178ZM22.347 33.978C22.153 33.978 21.96 33.986 21.768 34.01C15.258 34.829 10.327 39.663 8.97999 46.551C8.56099 48.691 8.48099 50.839 9.14299 52.948C9.75499 54.898 11.211 56.026 13.122 56.136C13.336 56.148 13.549 56.155 13.762 56.155C14.972 56.155 16.156 55.955 17.31 55.555C19.315 54.861 21.318 54.526 23.321 54.526C25.355 54.526 27.388 54.872 29.423 55.54C30.612 55.93 31.819 56.152 33.061 56.152C33.207 56.152 33.354 56.149 33.501 56.143C35.629 56.053 37.038 54.961 37.689 52.8C38.234 50.991 38.17 49.153 37.926 47.294C36.946 39.817 30.825 34 23.614 34C23.53 34 23.444 34.001 23.36 34.002C23.024 34.001 22.684 33.978 22.347 33.978Z" fill="#2C2C2C"/>
<path d="M15.482 15.2129C16.54 15.2129 17.57 15.7529 18.382 16.7329C19.611 18.2159 20.16 20.1439 20.163 22.9959C20.17 24.1369 19.758 25.9219 18.578 27.5109C17.732 28.6499 16.638 29.2779 15.498 29.2779C14.356 29.2779 13.259 28.6499 12.409 27.5089C10.239 24.5959 10.285 19.7109 12.51 16.8419C13.325 15.7919 14.38 15.2129 15.482 15.2129ZM15.482 13.0129C13.765 13.0129 12.053 13.8419 10.772 15.4929C7.92298 19.1669 7.86598 25.0929 10.645 28.8229C11.963 30.5929 13.731 31.4779 15.498 31.4779C17.264 31.4779 19.029 30.5929 20.344 28.8229C21.794 26.8709 22.373 24.6459 22.363 22.9829C22.36 19.4939 21.585 17.1499 20.077 15.3299C18.795 13.7829 17.136 13.0129 15.482 13.0129Z" fill="#2C2C2C"/>
<path d="M31.292 15.2C32.369 15.2 33.427 15.8 34.27 16.888C36.429 19.676 36.463 24.583 34.342 27.387C33.465 28.546 32.363 29.185 31.239 29.185C30.699 29.185 30.166 29.036 29.654 28.741C28.675 28.178 27.945 27.292 27.358 25.954C26.757 24.584 26.587 23.381 26.629 22.713L26.633 22.646V22.579C26.637 19.876 27.191 18.1 28.485 16.642C29.323 15.699 30.294 15.2 31.292 15.2ZM31.292 13C29.72 13 28.137 13.722 26.84 15.183C25.098 17.146 24.439 19.521 24.434 22.576C24.36 23.758 24.684 25.336 25.344 26.839C26.038 28.419 27.027 29.769 28.558 30.649C29.42 31.145 30.332 31.385 31.239 31.385C33.019 31.385 34.778 30.458 36.097 28.714C38.811 25.124 38.771 19.108 36.009 15.541C34.704 13.855 33.004 13 31.292 13Z" fill="#2C2C2C"/>
<path d="M41.413 30.025C42.116 30.025 42.781 30.372 43.286 31.003C43.86 31.72 44.448 32.784 44.452 35.258C44.458 35.938 44.183 37.11 43.384 38.175C42.838 38.903 42.14 39.304 41.417 39.304C40.763 39.304 40.126 38.986 39.573 38.385C37.834 36.494 37.876 32.683 39.657 30.833C40.166 30.305 40.773 30.025 41.413 30.025ZM41.412 27.825C40.223 27.825 39.027 28.316 38.071 29.309C35.482 31.999 35.425 37.126 37.953 39.875C38.956 40.966 40.192 41.504 41.416 41.504C42.787 41.504 44.144 40.828 45.144 39.495C46.222 38.057 46.663 36.421 46.651 35.238C46.646 32.672 46.095 30.993 45.002 29.629C44.045 28.431 42.734 27.825 41.412 27.825Z" fill="#2C2C2C"/>
<path d="M5.31802 30.1109C6.01802 30.1109 6.67102 30.4299 7.15502 31.0079C8.04402 32.0699 8.45102 33.2679 8.40002 34.6689L8.39802 34.7359L8.40002 34.8029C8.43602 36.2559 8.06402 37.4169 7.22802 38.4559C6.71402 39.0949 6.03602 39.4469 5.31902 39.4469C4.62202 39.4469 3.95602 39.1119 3.44502 38.5039C1.76602 36.5079 1.79802 32.9139 3.51202 30.9629C3.99502 30.4149 4.63702 30.1109 5.31802 30.1109ZM5.31802 27.9109C4.05802 27.9109 2.79702 28.4449 1.85802 29.5129C-0.579978 32.2879 -0.624978 37.0859 1.76002 39.9219C2.72902 41.0739 4.02402 41.6489 5.31802 41.6489C6.64502 41.6489 7.97002 41.0439 8.94102 39.8369C10.12 38.3699 10.646 36.6799 10.598 34.7499C10.667 32.8489 10.098 31.0989 8.84202 29.5969C7.90202 28.4729 6.61102 27.9109 5.31802 27.9109Z" fill="#2C2C2C"/>
<circle cx="45.5" cy="12.5" r="12.5" fill="#FEC741"/>
<path d="M39.0541 16.728L39.1221 16.048C39.1221 15.946 39.1731 15.895 39.2751 15.895C39.3317 15.895 39.4337 15.9177 39.5811 15.963C39.8984 16.0537 40.2101 16.099 40.5161 16.099C40.9467 16.099 41.3321 16.014 41.6721 15.844C42.0121 15.674 42.2784 15.4813 42.4711 15.266C42.6751 15.0393 42.8507 14.7333 42.9981 14.348C43.1567 13.9627 43.2644 13.651 43.3211 13.413C43.3891 13.1637 43.4627 12.8407 43.5421 12.444L43.5761 12.274L43.5421 12.24C43.3381 12.6253 43.0377 12.9427 42.6411 13.192C42.2557 13.43 41.8251 13.549 41.3491 13.549C40.4764 13.549 39.7794 13.1977 39.2581 12.495C38.7481 11.781 38.4931 10.8743 38.4931 9.775C38.4931 8.57367 38.8047 7.616 39.4281 6.902C40.0627 6.188 40.8504 5.831 41.7911 5.831C43.8877 5.831 44.9361 7.38933 44.9361 10.506C44.9361 11.4353 44.8341 12.376 44.6301 13.328C44.4261 14.2687 44.1144 15.0393 43.6951 15.64C42.9471 16.7053 41.9384 17.238 40.6691 17.238C40.3857 17.238 39.9324 17.1757 39.3091 17.051C39.1617 17.0057 39.0767 16.9547 39.0541 16.898C39.0427 16.8527 39.0427 16.796 39.0541 16.728ZM41.7741 7.021C41.2074 7.021 40.7484 7.259 40.3971 7.735C40.0571 8.211 39.8871 8.86833 39.8871 9.707C39.8871 10.6137 40.0571 11.288 40.3971 11.73C40.7484 12.1607 41.1734 12.376 41.6721 12.376C42.1594 12.376 42.5901 12.1777 42.9641 11.781C43.3494 11.373 43.5421 10.6533 43.5421 9.622C43.5421 8.76067 43.3834 8.11467 43.0661 7.684C42.7487 7.242 42.3181 7.021 41.7741 7.021ZM49.0061 12.05C49.0061 12.6033 48.8827 13.04 48.6361 13.36C48.3961 13.68 48.0661 13.84 47.6461 13.84C47.5594 13.84 47.4727 13.8333 47.3861 13.82C47.2994 13.8067 47.1894 13.7667 47.0561 13.7C46.9227 13.6333 46.8061 13.5467 46.7061 13.44C46.6127 13.3333 46.5294 13.1733 46.4561 12.96C46.3827 12.74 46.3461 12.4867 46.3461 12.2C46.3461 11.66 46.4661 11.23 46.7061 10.91C46.9461 10.59 47.2827 10.43 47.7161 10.43C48.0894 10.43 48.3961 10.5633 48.6361 10.83C48.8827 11.0967 49.0061 11.5033 49.0061 12.05ZM47.6461 13.3C48.1127 13.3 48.3461 12.9033 48.3461 12.11C48.3461 11.35 48.1327 10.97 47.7061 10.97C47.2394 10.97 47.0061 11.37 47.0061 12.17C47.0061 12.9233 47.2194 13.3 47.6461 13.3ZM53.1661 15.35C53.1661 15.9033 53.0427 16.34 52.7961 16.66C52.5561 16.98 52.2261 17.14 51.8061 17.14C51.7194 17.14 51.6327 17.1333 51.5461 17.12C51.4594 17.1067 51.3494 17.0667 51.2161 17C51.0827 16.9333 50.9661 16.8467 50.8661 16.74C50.7727 16.6333 50.6894 16.4733 50.6161 16.26C50.5427 16.04 50.5061 15.7867 50.5061 15.5C50.5061 14.96 50.6261 14.53 50.8661 14.21C51.1061 13.89 51.4427 13.73 51.8761 13.73C52.2494 13.73 52.5561 13.8633 52.7961 14.13C53.0427 14.3967 53.1661 14.8033 53.1661 15.35ZM51.8061 16.6C52.2727 16.6 52.5061 16.2033 52.5061 15.41C52.5061 14.65 52.2927 14.27 51.8661 14.27C51.3994 14.27 51.1661 14.67 51.1661 15.47C51.1661 16.2233 51.3794 16.6 51.8061 16.6ZM50.4861 10.43H50.9061C51.0261 10.43 51.0627 10.4867 51.0161 10.6L49.0161 17.04C48.9961 17.1067 48.9494 17.14 48.8761 17.14H48.4561C48.3827 17.14 48.3394 17.1233 48.3261 17.09C48.3127 17.0633 48.3194 17.0267 48.3461 16.98L50.3361 10.53C50.3627 10.4633 50.4127 10.43 50.4861 10.43Z" fill="black"/>
</svg>
