<svg width="57" height="59" viewBox="0 0 57 59" fill="none" xmlns="http://www.w3.org/2000/svg">
<mask id="path-1-inside-1" fill="white">
<path fill-rule="evenodd" clip-rule="evenodd" d="M30 13C30 12.4477 29.5523 12 29 12H18C17.4477 12 17 12.4477 17 13V28C17 28.5523 16.5523 29 16 29H1C0.447715 29 0 29.4477 0 30V41C0 41.5523 0.447715 42 1 42H16C16.5523 42 17 42.4477 17 43V58C17 58.5523 17.4477 59 18 59H29C29.5523 59 30 58.5523 30 58V43C30 42.4477 30.4477 42 31 42H46C46.5523 42 47 41.5523 47 41V30C47 29.4477 46.5523 29 46 29H31C30.4477 29 30 28.5523 30 28V13Z"/>
</mask>
<path d="M18 14.2H29V9.8H18V14.2ZM19.2 28V13H14.8V28H19.2ZM1 31.2H16V26.8H1V31.2ZM2.2 41V30H-2.2V41H2.2ZM16 39.8H1V44.2H16V39.8ZM19.2 58V43H14.8V58H19.2ZM29 56.8H18V61.2H29V56.8ZM27.8 43V58H32.2V43H27.8ZM46 39.8H31V44.2H46V39.8ZM44.8 30V41H49.2V30H44.8ZM31 31.2H46V26.8H31V31.2ZM27.8 13V28H32.2V13H27.8ZM31 26.8C31.6627 26.8 32.2 27.3373 32.2 28H27.8C27.8 29.7673 29.2327 31.2 31 31.2V26.8ZM49.2 30C49.2 28.2327 47.7673 26.8 46 26.8V31.2C45.3373 31.2 44.8 30.6627 44.8 30H49.2ZM46 44.2C47.7673 44.2 49.2 42.7673 49.2 41H44.8C44.8 40.3373 45.3373 39.8 46 39.8V44.2ZM32.2 43C32.2 43.6627 31.6627 44.2 31 44.2V39.8C29.2327 39.8 27.8 41.2327 27.8 43H32.2ZM29 61.2C30.7673 61.2 32.2 59.7673 32.2 58H27.8C27.8 57.3373 28.3373 56.8 29 56.8V61.2ZM14.8 58C14.8 59.7673 16.2327 61.2 18 61.2V56.8C18.6627 56.8 19.2 57.3373 19.2 58H14.8ZM16 44.2C15.3373 44.2 14.8 43.6627 14.8 43H19.2C19.2 41.2327 17.7673 39.8 16 39.8V44.2ZM-2.2 41C-2.2 42.7673 -0.767312 44.2 1 44.2V39.8C1.66274 39.8 2.2 40.3373 2.2 41H-2.2ZM1 26.8C-0.767311 26.8 -2.2 28.2327 -2.2 30H2.2C2.2 30.6627 1.66274 31.2 1 31.2V26.8ZM14.8 28C14.8 27.3373 15.3373 26.8 16 26.8V31.2C17.7673 31.2 19.2 29.7673 19.2 28H14.8ZM29 14.2C28.3373 14.2 27.8 13.6627 27.8 13H32.2C32.2 11.2327 30.7673 9.8 29 9.8V14.2ZM18 9.8C16.2327 9.8 14.8 11.2327 14.8 13H19.2C19.2 13.6627 18.6627 14.2 18 14.2V9.8Z" fill="#2C2C2C" mask="url(#path-1-inside-1)"/>
<circle cx="44.5" cy="12.5" r="12.5" fill="#FEC741"/>
<path d="M42.8311 14.586V17.034C42.8311 17.1247 42.8141 17.1813 42.7801 17.204C42.7574 17.2267 42.7121 17.238 42.6441 17.238H41.7431C41.6071 17.238 41.5391 17.17 41.5391 17.034V14.586H37.1871C37.0511 14.586 36.9831 14.518 36.9831 14.382V13.396L41.4541 5.967C41.5221 5.865 41.6241 5.82533 41.7601 5.848L42.5591 5.984C42.6951 6.018 42.7631 6.069 42.7631 6.137C42.7631 6.171 42.7404 6.222 42.6951 6.29L38.3261 13.481H41.5391L41.7601 10.744C41.7714 10.5967 41.8451 10.523 41.9811 10.523H42.6271C42.7631 10.523 42.8311 10.591 42.8311 10.727V13.481H44.2251C44.3611 13.481 44.4291 13.549 44.4291 13.685V14.382C44.4291 14.518 44.3611 14.586 44.2251 14.586H42.8311ZM48.0061 12.05C48.0061 12.6033 47.8827 13.04 47.6361 13.36C47.3961 13.68 47.0661 13.84 46.6461 13.84C46.5594 13.84 46.4727 13.8333 46.3861 13.82C46.2994 13.8067 46.1894 13.7667 46.0561 13.7C45.9227 13.6333 45.8061 13.5467 45.7061 13.44C45.6127 13.3333 45.5294 13.1733 45.4561 12.96C45.3827 12.74 45.3461 12.4867 45.3461 12.2C45.3461 11.66 45.4661 11.23 45.7061 10.91C45.9461 10.59 46.2827 10.43 46.7161 10.43C47.0894 10.43 47.3961 10.5633 47.6361 10.83C47.8827 11.0967 48.0061 11.5033 48.0061 12.05ZM46.6461 13.3C47.1127 13.3 47.3461 12.9033 47.3461 12.11C47.3461 11.35 47.1327 10.97 46.7061 10.97C46.2394 10.97 46.0061 11.37 46.0061 12.17C46.0061 12.9233 46.2194 13.3 46.6461 13.3ZM52.1661 15.35C52.1661 15.9033 52.0427 16.34 51.7961 16.66C51.5561 16.98 51.2261 17.14 50.8061 17.14C50.7194 17.14 50.6327 17.1333 50.5461 17.12C50.4594 17.1067 50.3494 17.0667 50.2161 17C50.0827 16.9333 49.9661 16.8467 49.8661 16.74C49.7727 16.6333 49.6894 16.4733 49.6161 16.26C49.5427 16.04 49.5061 15.7867 49.5061 15.5C49.5061 14.96 49.6261 14.53 49.8661 14.21C50.1061 13.89 50.4427 13.73 50.8761 13.73C51.2494 13.73 51.5561 13.8633 51.7961 14.13C52.0427 14.3967 52.1661 14.8033 52.1661 15.35ZM50.8061 16.6C51.2727 16.6 51.5061 16.2033 51.5061 15.41C51.5061 14.65 51.2927 14.27 50.8661 14.27C50.3994 14.27 50.1661 14.67 50.1661 15.47C50.1661 16.2233 50.3794 16.6 50.8061 16.6ZM49.4861 10.43H49.9061C50.0261 10.43 50.0627 10.4867 50.0161 10.6L48.0161 17.04C47.9961 17.1067 47.9494 17.14 47.8761 17.14H47.4561C47.3827 17.14 47.3394 17.1233 47.3261 17.09C47.3127 17.0633 47.3194 17.0267 47.3461 16.98L49.3361 10.53C49.3627 10.4633 49.4127 10.43 49.4861 10.43Z" fill="black"/>
</svg>
