<svg width="54" height="56" viewBox="0 0 54 56" fill="none" xmlns="http://www.w3.org/2000/svg">
<path d="M2.61111 31.1945H33.9444V19.4445H2.61111V31.1945ZM0 16.8334H36.5556V33.8056H0V16.8334Z" fill="#2C2C2C"/>
<path d="M7.18056 40.3333C8.26212 40.3333 9.1389 39.4565 9.1389 38.375C9.1389 37.2934 8.26212 36.4166 7.18056 36.4166C6.099 36.4166 5.22223 37.2934 5.22223 38.375C5.22223 39.4565 6.099 40.3333 7.18056 40.3333Z" fill="#2C2C2C"/>
<path d="M29.375 40.3333C30.4566 40.3333 31.3334 39.4565 31.3334 38.375C31.3334 37.2934 30.4566 36.4166 29.375 36.4166C28.2935 36.4166 27.4167 37.2934 27.4167 38.375C27.4167 39.4565 28.2935 40.3333 29.375 40.3333Z" fill="#2C2C2C"/>
<path d="M2.61111 48.1781C2.61111 48.1601 33.9391 48.1648 33.9391 48.1648C33.9416 48.1648 33.9444 11.5997 33.9444 11.5997C33.9444 11.6176 2.61647 11.613 2.61647 11.613C2.61397 11.613 2.61111 48.1781 2.61111 48.1781ZM0 11.9711C0 10.3302 1.30103 9 2.9297 9H33.6259C35.2439 9 36.5556 10.3427 36.5556 11.9711V47.8067C36.5556 49.4476 35.2545 50.7778 33.6259 50.7778H2.9297C1.31167 50.7778 0 49.4351 0 47.8067V11.9711Z" fill="#2C2C2C"/>
<path d="M31.3333 12.9166H5.22223V15.5277H31.3333V12.9166Z" fill="#2C2C2C"/>
<path d="M3.91671 50.7777V53.3888H5.22227V50.7777H3.91671ZM1.3056 49.4601C1.3056 48.7458 1.8849 48.1666 2.61091 48.1666H6.52808C7.24898 48.1666 7.83338 48.7554 7.83338 49.4601V54.7064C7.83338 55.4208 7.25408 56 6.52808 56H2.61091C1.89001 56 1.3056 55.4112 1.3056 54.7064V49.4601Z" fill="#2C2C2C"/>
<path d="M31.3333 50.7777V53.3888H32.6388V50.7777H31.3333ZM28.7222 49.4601C28.7222 48.7458 29.3015 48.1666 30.0275 48.1666H33.9446C34.6655 48.1666 35.2499 48.7554 35.2499 49.4601V54.7064C35.2499 55.4208 34.6706 56 33.9446 56H30.0275C29.3066 56 28.7222 55.4112 28.7222 54.7064V49.4601Z" fill="#2C2C2C"/>
<circle cx="41.5" cy="12.5" r="12.5" fill="#FEC741"/>
<path d="M35.0541 16.728L35.1221 16.048C35.1221 15.946 35.1731 15.895 35.2751 15.895C35.3317 15.895 35.4337 15.9177 35.5811 15.963C35.8984 16.0537 36.2101 16.099 36.5161 16.099C36.9467 16.099 37.3321 16.014 37.6721 15.844C38.0121 15.674 38.2784 15.4813 38.4711 15.266C38.6751 15.0393 38.8507 14.7333 38.9981 14.348C39.1567 13.9627 39.2644 13.651 39.3211 13.413C39.3891 13.1637 39.4627 12.8407 39.5421 12.444L39.5761 12.274L39.5421 12.24C39.3381 12.6253 39.0377 12.9427 38.6411 13.192C38.2557 13.43 37.8251 13.549 37.3491 13.549C36.4764 13.549 35.7794 13.1977 35.2581 12.495C34.7481 11.781 34.4931 10.8743 34.4931 9.775C34.4931 8.57367 34.8047 7.616 35.4281 6.902C36.0627 6.188 36.8504 5.831 37.7911 5.831C39.8877 5.831 40.9361 7.38933 40.9361 10.506C40.9361 11.4353 40.8341 12.376 40.6301 13.328C40.4261 14.2687 40.1144 15.0393 39.6951 15.64C38.9471 16.7053 37.9384 17.238 36.6691 17.238C36.3857 17.238 35.9324 17.1757 35.3091 17.051C35.1617 17.0057 35.0767 16.9547 35.0541 16.898C35.0427 16.8527 35.0427 16.796 35.0541 16.728ZM37.7741 7.021C37.2074 7.021 36.7484 7.259 36.3971 7.735C36.0571 8.211 35.8871 8.86833 35.8871 9.707C35.8871 10.6137 36.0571 11.288 36.3971 11.73C36.7484 12.1607 37.1734 12.376 37.6721 12.376C38.1594 12.376 38.5901 12.1777 38.9641 11.781C39.3494 11.373 39.5421 10.6533 39.5421 9.622C39.5421 8.76067 39.3834 8.11467 39.0661 7.684C38.7487 7.242 38.3181 7.021 37.7741 7.021ZM45.0061 12.05C45.0061 12.6033 44.8827 13.04 44.6361 13.36C44.3961 13.68 44.0661 13.84 43.6461 13.84C43.5594 13.84 43.4727 13.8333 43.3861 13.82C43.2994 13.8067 43.1894 13.7667 43.0561 13.7C42.9227 13.6333 42.8061 13.5467 42.7061 13.44C42.6127 13.3333 42.5294 13.1733 42.4561 12.96C42.3827 12.74 42.3461 12.4867 42.3461 12.2C42.3461 11.66 42.4661 11.23 42.7061 10.91C42.9461 10.59 43.2827 10.43 43.7161 10.43C44.0894 10.43 44.3961 10.5633 44.6361 10.83C44.8827 11.0967 45.0061 11.5033 45.0061 12.05ZM43.6461 13.3C44.1127 13.3 44.3461 12.9033 44.3461 12.11C44.3461 11.35 44.1327 10.97 43.7061 10.97C43.2394 10.97 43.0061 11.37 43.0061 12.17C43.0061 12.9233 43.2194 13.3 43.6461 13.3ZM49.1661 15.35C49.1661 15.9033 49.0427 16.34 48.7961 16.66C48.5561 16.98 48.2261 17.14 47.8061 17.14C47.7194 17.14 47.6327 17.1333 47.5461 17.12C47.4594 17.1067 47.3494 17.0667 47.2161 17C47.0827 16.9333 46.9661 16.8467 46.8661 16.74C46.7727 16.6333 46.6894 16.4733 46.6161 16.26C46.5427 16.04 46.5061 15.7867 46.5061 15.5C46.5061 14.96 46.6261 14.53 46.8661 14.21C47.1061 13.89 47.4427 13.73 47.8761 13.73C48.2494 13.73 48.5561 13.8633 48.7961 14.13C49.0427 14.3967 49.1661 14.8033 49.1661 15.35ZM47.8061 16.6C48.2727 16.6 48.5061 16.2033 48.5061 15.41C48.5061 14.65 48.2927 14.27 47.8661 14.27C47.3994 14.27 47.1661 14.67 47.1661 15.47C47.1661 16.2233 47.3794 16.6 47.8061 16.6ZM46.4861 10.43H46.9061C47.0261 10.43 47.0627 10.4867 47.0161 10.6L45.0161 17.04C44.9961 17.1067 44.9494 17.14 44.8761 17.14H44.4561C44.3827 17.14 44.3394 17.1233 44.3261 17.09C44.3127 17.0633 44.3194 17.0267 44.3461 16.98L46.3361 10.53C46.3627 10.4633 46.4127 10.43 46.4861 10.43Z" fill="black"/>
</svg>
