<svg width="61" height="56" viewBox="0 0 61 56" fill="none" xmlns="http://www.w3.org/2000/svg">
<path d="M12.7598 27.3456C11.8226 27.874 10.9609 28.363 10.0962 28.8466C9.17083 29.3641 8.24362 29.8784 7.31509 30.3902C6.99368 30.5673 6.69426 30.782 6.34404 30.9104C5.92242 31.0648 5.57195 30.9653 5.25416 30.6726C4.98027 30.4204 4.79207 30.0991 4.57112 29.8068C3.73345 28.6982 2.91909 27.5719 2.09365 26.4539C1.48686 25.6321 0.881055 24.8094 0.265976 23.9937C-0.161723 23.4265 -0.0341765 22.912 0.368982 22.5306C0.458363 22.4461 0.539372 22.3526 0.630476 22.2701C1.7738 21.2352 2.91835 20.2017 4.06224 19.1676C5.28658 18.0608 6.51123 16.9544 7.73458 15.8465C9.17937 14.5381 10.6223 13.2277 12.0674 11.9197C12.3618 11.6531 12.6795 11.459 13.0875 11.3637C14.0942 11.1284 15.0867 10.8326 16.0853 10.5624C16.7283 10.3884 17.3687 10.2026 18.0164 10.0477C18.6999 9.88424 19.271 10.3355 19.3053 11.0386C19.3228 11.3961 19.0965 11.7643 18.763 11.9232C18.2792 12.1537 17.753 12.2446 17.2418 12.3848C16.2829 12.6477 15.3329 12.9536 14.3616 13.1569C13.7689 13.281 13.3178 13.5587 12.8949 13.9597C12.2412 14.5792 11.5654 15.1755 10.8962 15.7786C9.43733 17.0935 7.97449 18.4039 6.51764 19.721C5.65781 20.4983 4.80733 21.2862 3.95054 22.067C3.56733 22.4162 3.17755 22.7582 2.79384 23.1068C2.67434 23.2153 2.53817 23.3099 2.44395 23.4766C3.70644 25.1758 4.97034 26.8768 6.23743 28.5821C6.43819 28.5473 6.59044 28.4576 6.7422 28.3725C7.82191 27.7668 8.89981 27.1579 9.97895 26.5511C11.0104 25.9712 12.0424 25.3925 13.0745 24.8136C13.1459 24.7735 13.2219 24.7411 13.2912 24.6978C13.8821 24.3288 14.736 24.7183 14.8296 25.5434C14.8495 25.7192 14.8392 25.8986 14.8399 26.0763C14.8541 29.6323 14.8429 33.1885 14.8879 36.7441C14.9456 41.2981 14.918 45.8524 14.967 50.4063C14.9755 51.1993 14.987 51.9922 14.9986 52.7851C15 52.878 15.0114 52.9708 15.0198 53.0877C22.5126 53.0877 29.9839 53.0877 37.4533 53.0877C37.5406 52.9116 37.5047 52.745 37.5047 52.585C37.5066 43.9822 37.5064 35.3795 37.5066 26.7767C37.5066 26.5579 37.4992 26.3385 37.5107 26.1203C37.545 25.4761 38.1284 24.9972 38.7952 25.1903C39.0553 25.2656 39.3165 25.342 39.5678 25.4415C40.7049 25.892 41.8444 26.3353 42.9923 26.7579C43.8089 27.0585 44.6164 27.3842 45.4283 27.6978C45.4518 27.7069 45.4792 27.7061 45.5485 27.7164C46.673 25.9089 47.8069 24.0865 48.9443 22.2584C48.6205 21.927 48.2508 21.6946 47.9073 21.4311C46.9234 20.6765 45.9349 19.9279 44.9437 19.1827C43.648 18.2086 42.3461 17.2426 41.0504 16.2682C40.0494 15.5154 39.0529 14.7566 38.0575 13.9963C37.9465 13.9116 37.831 13.8449 37.6997 13.8039C36.1548 13.3218 34.6092 12.8418 33.0649 12.3576C32.65 12.2275 32.2378 12.0885 31.8264 11.9476C31.3995 11.8013 31.1438 11.312 31.1833 10.9149C31.2287 10.4589 31.6288 10.037 32.084 10.0039C32.3475 9.98479 32.5991 10.038 32.8461 10.116C33.8049 10.4188 34.7619 10.7274 35.7208 11.0303C36.6552 11.3254 37.5907 11.6168 38.5261 11.9084C38.7775 11.9868 38.9983 12.12 39.2064 12.2769C39.9463 12.8346 40.6853 13.3934 41.4255 13.9505C42.731 14.933 44.0393 15.9115 45.3421 16.8974C46.6344 17.8754 47.9204 18.8619 49.2111 19.8421C49.71 20.2208 50.2173 20.5885 50.7146 20.9693C50.9405 21.1423 51.1602 21.3195 51.2882 21.5937C51.4603 21.9623 51.3577 22.291 51.1678 22.5993C50.3196 23.977 49.4618 25.349 48.6061 26.7222C48.0522 27.6113 47.488 28.4942 46.9439 29.3892C46.5967 29.9604 46.1087 30.1621 45.4479 29.9204C44.8744 29.7107 44.3035 29.4931 43.7341 29.2724C42.4529 28.7756 41.1735 28.2742 39.8926 27.7765C39.8054 27.7426 39.7123 27.7234 39.602 27.6917C39.5256 27.845 39.5558 27.9946 39.5557 28.1362C39.5531 29.8868 39.554 31.6375 39.554 33.3881C39.5541 40.2265 39.5536 47.065 39.5564 53.9034C39.5566 54.2102 39.532 54.5009 39.3378 54.7564C39.163 54.9866 38.945 55.131 38.6509 55.1441C38.5008 55.1507 38.3505 55.1575 38.2003 55.1575C30.2539 55.158 22.3076 55.158 14.3612 55.1575C14.2246 55.1575 14.0878 55.1565 13.9514 55.1491C13.4046 55.1195 13.0394 54.7857 12.9735 54.2439C12.9522 54.0682 12.9566 53.8891 12.9556 53.7114C12.9289 48.9112 12.9357 44.1105 12.8662 39.3108C12.814 35.7011 12.8354 32.0915 12.8006 28.482C12.7972 28.1308 12.7759 27.7795 12.7598 27.3456Z" fill="black"/>
<path d="M25.1232 17.2402C24.0871 17.2997 23.078 17.1279 22.1037 16.8084C20.9487 16.4296 19.9874 15.7574 19.328 14.7087C19.2126 14.5252 19.1226 14.3246 19.0319 14.1268C18.8322 13.6913 19.0418 13.1239 19.4912 12.8648C19.9262 12.6141 20.4833 12.7247 20.7758 13.1149C20.8247 13.1801 20.8678 13.2513 20.903 13.3249C21.3841 14.3279 22.2712 14.7663 23.2849 14.994C23.8678 15.1249 24.465 15.1924 25.0687 15.1909C25.8491 15.1889 26.6191 15.0867 27.3675 14.8919C27.9723 14.7345 28.5415 14.4616 29.0187 14.0311C29.2669 13.8071 29.4341 13.5287 29.6012 13.2471C29.8766 12.7829 30.3822 12.6046 30.8662 12.8094C31.3222 13.0024 31.664 13.604 31.4271 14.1347C31.0905 14.8888 30.5609 15.4636 29.8924 15.9517C28.9351 16.6504 27.8434 16.9323 26.7124 17.1414C26.1848 17.239 25.6532 17.2249 25.1232 17.2402Z" fill="black"/>
<circle cx="48.5" cy="12.5" r="12.5" fill="#FEC741"/>
<path d="M46.8311 14.586V17.034C46.8311 17.1247 46.8141 17.1813 46.7801 17.204C46.7574 17.2267 46.7121 17.238 46.6441 17.238H45.7431C45.6071 17.238 45.5391 17.17 45.5391 17.034V14.586H41.1871C41.0511 14.586 40.9831 14.518 40.9831 14.382V13.396L45.4541 5.967C45.5221 5.865 45.6241 5.82533 45.7601 5.848L46.5591 5.984C46.6951 6.018 46.7631 6.069 46.7631 6.137C46.7631 6.171 46.7404 6.222 46.6951 6.29L42.3261 13.481H45.5391L45.7601 10.744C45.7714 10.5967 45.8451 10.523 45.9811 10.523H46.6271C46.7631 10.523 46.8311 10.591 46.8311 10.727V13.481H48.2251C48.3611 13.481 48.4291 13.549 48.4291 13.685V14.382C48.4291 14.518 48.3611 14.586 48.2251 14.586H46.8311ZM52.0061 12.05C52.0061 12.6033 51.8827 13.04 51.6361 13.36C51.3961 13.68 51.0661 13.84 50.6461 13.84C50.5594 13.84 50.4727 13.8333 50.3861 13.82C50.2994 13.8067 50.1894 13.7667 50.0561 13.7C49.9227 13.6333 49.8061 13.5467 49.7061 13.44C49.6127 13.3333 49.5294 13.1733 49.4561 12.96C49.3827 12.74 49.3461 12.4867 49.3461 12.2C49.3461 11.66 49.4661 11.23 49.7061 10.91C49.9461 10.59 50.2827 10.43 50.7161 10.43C51.0894 10.43 51.3961 10.5633 51.6361 10.83C51.8827 11.0967 52.0061 11.5033 52.0061 12.05ZM50.6461 13.3C51.1127 13.3 51.3461 12.9033 51.3461 12.11C51.3461 11.35 51.1327 10.97 50.7061 10.97C50.2394 10.97 50.0061 11.37 50.0061 12.17C50.0061 12.9233 50.2194 13.3 50.6461 13.3ZM56.1661 15.35C56.1661 15.9033 56.0427 16.34 55.7961 16.66C55.5561 16.98 55.2261 17.14 54.8061 17.14C54.7194 17.14 54.6327 17.1333 54.5461 17.12C54.4594 17.1067 54.3494 17.0667 54.2161 17C54.0827 16.9333 53.9661 16.8467 53.8661 16.74C53.7727 16.6333 53.6894 16.4733 53.6161 16.26C53.5427 16.04 53.5061 15.7867 53.5061 15.5C53.5061 14.96 53.6261 14.53 53.8661 14.21C54.1061 13.89 54.4427 13.73 54.8761 13.73C55.2494 13.73 55.5561 13.8633 55.7961 14.13C56.0427 14.3967 56.1661 14.8033 56.1661 15.35ZM54.8061 16.6C55.2727 16.6 55.5061 16.2033 55.5061 15.41C55.5061 14.65 55.2927 14.27 54.8661 14.27C54.3994 14.27 54.1661 14.67 54.1661 15.47C54.1661 16.2233 54.3794 16.6 54.8061 16.6ZM53.4861 10.43H53.9061C54.0261 10.43 54.0627 10.4867 54.0161 10.6L52.0161 17.04C51.9961 17.1067 51.9494 17.14 51.8761 17.14H51.4561C51.3827 17.14 51.3394 17.1233 51.3261 17.09C51.3127 17.0633 51.3194 17.0267 51.3461 16.98L53.3361 10.53C53.3627 10.4633 53.4127 10.43 53.4861 10.43Z" fill="black"/>
</svg>
