<svg width="55" height="58" viewBox="0 0 55 58" fill="none" xmlns="http://www.w3.org/2000/svg">
<path fill-rule="evenodd" clip-rule="evenodd" d="M6.33376 55.3196C8.5413 55.3196 10.134 54.0454 10.134 52.7861C10.134 51.5268 8.5413 50.2526 6.33376 50.2526C4.12623 50.2526 2.5335 51.5268 2.5335 52.7861C2.5335 54.0454 4.12623 55.3196 6.33376 55.3196ZM12.6675 32.2403V52.0471L12.604 52.0657C12.6459 52.301 12.6675 52.5415 12.6675 52.7861C12.6675 55.5845 9.8318 57.8531 6.33376 57.8531C2.83572 57.8531 0 55.5845 0 52.7861C0 49.9877 2.83572 47.7191 6.33376 47.7191C7.75963 47.7191 9.07545 48.096 10.134 48.7321V22.384C10.134 21.6844 10.7012 21.1173 11.4008 21.1173L39.2693 12.25C39.9689 12.25 40.5361 12.8171 40.5361 13.5168V43.9188C40.5361 46.7173 37.7004 48.9858 34.2023 48.9858C30.7043 48.9858 27.8686 46.7173 27.8686 43.9188C27.8686 41.1204 30.7043 38.8518 34.2023 38.8518C35.6282 38.8518 36.944 39.2287 38.0026 39.8648V24.1791L12.6675 32.2403ZM12.6675 29.584L38.0026 21.5228V15.3117L12.6675 23.3729V29.584ZM34.2023 46.4523C36.4099 46.4523 38.0026 45.1781 38.0026 43.9188C38.0026 42.6595 36.4099 41.3853 34.2023 41.3853C31.9948 41.3853 30.4021 42.6595 30.4021 43.9188C30.4021 45.1781 31.9948 46.4523 34.2023 46.4523Z" fill="#2C2C2C"/>
<circle cx="42.5" cy="12.5" r="12.5" fill="#FEC741"/>
<path d="M36.0541 16.728L36.1221 16.048C36.1221 15.946 36.1731 15.895 36.2751 15.895C36.3317 15.895 36.4337 15.9177 36.5811 15.963C36.8984 16.0537 37.2101 16.099 37.5161 16.099C37.9467 16.099 38.3321 16.014 38.6721 15.844C39.0121 15.674 39.2784 15.4813 39.4711 15.266C39.6751 15.0393 39.8507 14.7333 39.9981 14.348C40.1567 13.9627 40.2644 13.651 40.3211 13.413C40.3891 13.1637 40.4627 12.8407 40.5421 12.444L40.5761 12.274L40.5421 12.24C40.3381 12.6253 40.0377 12.9427 39.6411 13.192C39.2557 13.43 38.8251 13.549 38.3491 13.549C37.4764 13.549 36.7794 13.1977 36.2581 12.495C35.7481 11.781 35.4931 10.8743 35.4931 9.775C35.4931 8.57367 35.8047 7.616 36.4281 6.902C37.0627 6.188 37.8504 5.831 38.7911 5.831C40.8877 5.831 41.9361 7.38933 41.9361 10.506C41.9361 11.4353 41.8341 12.376 41.6301 13.328C41.4261 14.2687 41.1144 15.0393 40.6951 15.64C39.9471 16.7053 38.9384 17.238 37.6691 17.238C37.3857 17.238 36.9324 17.1757 36.3091 17.051C36.1617 17.0057 36.0767 16.9547 36.0541 16.898C36.0427 16.8527 36.0427 16.796 36.0541 16.728ZM38.7741 7.021C38.2074 7.021 37.7484 7.259 37.3971 7.735C37.0571 8.211 36.8871 8.86833 36.8871 9.707C36.8871 10.6137 37.0571 11.288 37.3971 11.73C37.7484 12.1607 38.1734 12.376 38.6721 12.376C39.1594 12.376 39.5901 12.1777 39.9641 11.781C40.3494 11.373 40.5421 10.6533 40.5421 9.622C40.5421 8.76067 40.3834 8.11467 40.0661 7.684C39.7487 7.242 39.3181 7.021 38.7741 7.021ZM46.0061 12.05C46.0061 12.6033 45.8827 13.04 45.6361 13.36C45.3961 13.68 45.0661 13.84 44.6461 13.84C44.5594 13.84 44.4727 13.8333 44.3861 13.82C44.2994 13.8067 44.1894 13.7667 44.0561 13.7C43.9227 13.6333 43.8061 13.5467 43.7061 13.44C43.6127 13.3333 43.5294 13.1733 43.4561 12.96C43.3827 12.74 43.3461 12.4867 43.3461 12.2C43.3461 11.66 43.4661 11.23 43.7061 10.91C43.9461 10.59 44.2827 10.43 44.7161 10.43C45.0894 10.43 45.3961 10.5633 45.6361 10.83C45.8827 11.0967 46.0061 11.5033 46.0061 12.05ZM44.6461 13.3C45.1127 13.3 45.3461 12.9033 45.3461 12.11C45.3461 11.35 45.1327 10.97 44.7061 10.97C44.2394 10.97 44.0061 11.37 44.0061 12.17C44.0061 12.9233 44.2194 13.3 44.6461 13.3ZM50.1661 15.35C50.1661 15.9033 50.0427 16.34 49.7961 16.66C49.5561 16.98 49.2261 17.14 48.8061 17.14C48.7194 17.14 48.6327 17.1333 48.5461 17.12C48.4594 17.1067 48.3494 17.0667 48.2161 17C48.0827 16.9333 47.9661 16.8467 47.8661 16.74C47.7727 16.6333 47.6894 16.4733 47.6161 16.26C47.5427 16.04 47.5061 15.7867 47.5061 15.5C47.5061 14.96 47.6261 14.53 47.8661 14.21C48.1061 13.89 48.4427 13.73 48.8761 13.73C49.2494 13.73 49.5561 13.8633 49.7961 14.13C50.0427 14.3967 50.1661 14.8033 50.1661 15.35ZM48.8061 16.6C49.2727 16.6 49.5061 16.2033 49.5061 15.41C49.5061 14.65 49.2927 14.27 48.8661 14.27C48.3994 14.27 48.1661 14.67 48.1661 15.47C48.1661 16.2233 48.3794 16.6 48.8061 16.6ZM47.4861 10.43H47.9061C48.0261 10.43 48.0627 10.4867 48.0161 10.6L46.0161 17.04C45.9961 17.1067 45.9494 17.14 45.8761 17.14H45.4561C45.3827 17.14 45.3394 17.1233 45.3261 17.09C45.3127 17.0633 45.3194 17.0267 45.3461 16.98L47.3361 10.53C47.3627 10.4633 47.4127 10.43 47.4861 10.43Z" fill="black"/>
</svg>
