<svg width="66" height="49" viewBox="0 0 66 49" fill="none" xmlns="http://www.w3.org/2000/svg">
<path d="M26.4433 27.9175H2.78351V30.701H26.4433V27.9175Z" fill="#2C2C2C"/>
<path d="M13.9175 46.0103C15.4548 46.0103 16.701 44.7641 16.701 43.2268C16.701 41.6895 15.4548 40.4433 13.9175 40.4433C12.3802 40.4433 11.134 41.6895 11.134 43.2268C11.134 44.7641 12.3802 46.0103 13.9175 46.0103ZM13.9175 48.7938C10.843 48.7938 8.35052 46.3014 8.35052 43.2268C8.35052 40.1522 10.843 37.6598 13.9175 37.6598C16.9921 37.6598 19.4845 40.1522 19.4845 43.2268C19.4845 46.3014 16.9921 48.7938 13.9175 48.7938Z" fill="#2C2C2C"/>
<path d="M41.7526 46.0103C43.2898 46.0103 44.5361 44.7641 44.5361 43.2268C44.5361 41.6895 43.2898 40.4433 41.7526 40.4433C40.2153 40.4433 38.9691 41.6895 38.9691 43.2268C38.9691 44.7641 40.2153 46.0103 41.7526 46.0103ZM41.7526 48.7938C38.678 48.7938 36.1855 46.3014 36.1855 43.2268C36.1855 40.1522 38.678 37.6598 41.7526 37.6598C44.8271 37.6598 47.3196 40.1522 47.3196 43.2268C47.3196 46.3014 44.8271 48.7938 41.7526 48.7938Z" fill="#2C2C2C"/>
<path d="M52.8865 41.8351C52.8866 41.8352 52.8866 33.484 52.8866 33.484C52.8866 33.2373 52.5707 32.8412 52.2356 32.762C52.1752 32.7458 52.0146 32.7056 51.7436 32.6421C51.27 32.5309 50.6654 32.3976 49.9195 32.2427C47.7609 31.7943 44.9134 31.2663 41.295 30.6632L39.8968 30.4302L39.2629 29.1624C38.0715 26.7795 37.0728 24.9252 36.2621 23.54C35.7977 22.7463 35.5115 22.3011 35.4 22.1452L35.2959 21.9887C35.0088 21.5239 33.9825 20.9588 33.4009 20.9588H6.95997C6.58696 20.9588 5.94191 21.4045 5.81498 21.7449L2.78351 29.8753V41.8224C2.78351 41.8329 6.95876 41.8351 6.95876 41.8351V44.6186H2.7903C1.24926 44.6186 0 43.371 0 41.8224V29.3733L3.20688 20.7725C3.7417 19.3381 5.4301 18.1753 6.95997 18.1753H33.4009C34.9388 18.1753 36.8653 19.2327 37.6641 20.5259C37.6641 20.5259 38.9691 22.3506 41.7526 27.9176C50.1031 29.3093 52.9557 30.0733 52.9557 30.0733C54.4548 30.42 55.6701 31.9362 55.6701 33.484V41.8356C55.6701 43.3726 54.4224 44.6186 52.8877 44.6186H48.7804V41.8351H52.8865Z" fill="#2C2C2C"/>
<path d="M34.7938 41.8351H20.8763V44.6186H34.7938V41.8351Z" fill="#2C2C2C"/>
<path fill-rule="evenodd" clip-rule="evenodd" d="M19.4846 33.4845H22.2681V36.268H19.4846V33.4845ZM22.2681 36.268H25.0516V39.0515H22.2681V36.268ZM25.0516 33.4845H27.8351V36.268H25.0516V33.4845ZM27.8351 36.268H30.6186V39.0515H27.8351V36.268ZM30.6186 33.4845H33.4021V36.268H30.6186V33.4845Z" fill="#2C2C2C"/>
<path d="M30.6186 14H22.2681V16.7835H30.6186V14Z" fill="#2C2C2C"/>
<circle cx="53.5" cy="12.5" r="12.5" fill="#FEC741"/>
<path d="M51.8311 14.586V17.034C51.8311 17.1247 51.8141 17.1813 51.7801 17.204C51.7574 17.2267 51.7121 17.238 51.6441 17.238H50.7431C50.6071 17.238 50.5391 17.17 50.5391 17.034V14.586H46.1871C46.0511 14.586 45.9831 14.518 45.9831 14.382V13.396L50.4541 5.967C50.5221 5.865 50.6241 5.82533 50.7601 5.848L51.5591 5.984C51.6951 6.018 51.7631 6.069 51.7631 6.137C51.7631 6.171 51.7404 6.222 51.6951 6.29L47.3261 13.481H50.5391L50.7601 10.744C50.7714 10.5967 50.8451 10.523 50.9811 10.523H51.6271C51.7631 10.523 51.8311 10.591 51.8311 10.727V13.481H53.2251C53.3611 13.481 53.4291 13.549 53.4291 13.685V14.382C53.4291 14.518 53.3611 14.586 53.2251 14.586H51.8311ZM57.0061 12.05C57.0061 12.6033 56.8827 13.04 56.6361 13.36C56.3961 13.68 56.0661 13.84 55.6461 13.84C55.5594 13.84 55.4727 13.8333 55.3861 13.82C55.2994 13.8067 55.1894 13.7667 55.0561 13.7C54.9227 13.6333 54.8061 13.5467 54.7061 13.44C54.6127 13.3333 54.5294 13.1733 54.4561 12.96C54.3827 12.74 54.3461 12.4867 54.3461 12.2C54.3461 11.66 54.4661 11.23 54.7061 10.91C54.9461 10.59 55.2827 10.43 55.7161 10.43C56.0894 10.43 56.3961 10.5633 56.6361 10.83C56.8827 11.0967 57.0061 11.5033 57.0061 12.05ZM55.6461 13.3C56.1127 13.3 56.3461 12.9033 56.3461 12.11C56.3461 11.35 56.1327 10.97 55.7061 10.97C55.2394 10.97 55.0061 11.37 55.0061 12.17C55.0061 12.9233 55.2194 13.3 55.6461 13.3ZM61.1661 15.35C61.1661 15.9033 61.0427 16.34 60.7961 16.66C60.5561 16.98 60.2261 17.14 59.8061 17.14C59.7194 17.14 59.6327 17.1333 59.5461 17.12C59.4594 17.1067 59.3494 17.0667 59.2161 17C59.0827 16.9333 58.9661 16.8467 58.8661 16.74C58.7727 16.6333 58.6894 16.4733 58.6161 16.26C58.5427 16.04 58.5061 15.7867 58.5061 15.5C58.5061 14.96 58.6261 14.53 58.8661 14.21C59.1061 13.89 59.4427 13.73 59.8761 13.73C60.2494 13.73 60.5561 13.8633 60.7961 14.13C61.0427 14.3967 61.1661 14.8033 61.1661 15.35ZM59.8061 16.6C60.2727 16.6 60.5061 16.2033 60.5061 15.41C60.5061 14.65 60.2927 14.27 59.8661 14.27C59.3994 14.27 59.1661 14.67 59.1661 15.47C59.1661 16.2233 59.3794 16.6 59.8061 16.6ZM58.4861 10.43H58.9061C59.0261 10.43 59.0627 10.4867 59.0161 10.6L57.0161 17.04C56.9961 17.1067 56.9494 17.14 56.8761 17.14H56.4561C56.3827 17.14 56.3394 17.1233 56.3261 17.09C56.3127 17.0633 56.3194 17.0267 56.3461 16.98L58.3361 10.53C58.3627 10.4633 58.4127 10.43 58.4861 10.43Z" fill="black"/>
</svg>
