<svg width="52" height="60" viewBox="0 0 52 60" fill="none" xmlns="http://www.w3.org/2000/svg">
<path d="M13.8191 12.7095C13.0903 12.7095 12.4988 13.2951 12.4988 14.0167V31.7259C12.4988 31.8705 12.4407 32.0082 12.3368 32.1111L10.7929 33.6397C10.1909 34.2376 9.85818 35.0306 9.85818 35.8742V54.2997C9.85818 54.3102 9.85466 55.2776 9.24204 55.8859C8.87412 56.2519 8.3108 56.4437 7.56967 56.4576C6.82855 56.4437 6.26523 56.2519 5.89731 55.8859C5.28469 55.2776 5.28117 54.3102 5.28117 54.2997V35.8742C5.28117 35.0306 4.94845 34.2376 4.3464 33.6397L2.80254 32.1111C2.69868 32.0082 2.64058 31.8705 2.64058 31.7259V14.0167C2.64058 13.2951 2.04909 12.7095 1.32029 12.7095C0.591491 12.7095 0 13.2951 0 14.0167V31.7259C0 32.5695 0.332714 33.3626 0.934767 33.9604L2.47863 35.489C2.58249 35.5919 2.64058 35.7296 2.64058 35.8742V54.2684C2.63706 54.5595 2.66699 56.353 3.99432 57.6986C4.87452 58.5946 6.07686 59.0565 7.56967 59.0721C9.06248 59.0565 10.2648 58.5946 11.145 57.6986C12.4724 56.353 12.5023 54.5595 12.4988 54.2684V35.8742C12.4988 35.7296 12.5569 35.5919 12.6607 35.489L14.2046 33.9604C14.8066 33.3626 15.1393 32.5695 15.1393 31.7259V14.0167C15.1393 13.2951 14.5479 12.7095 13.8191 12.7095Z" fill="#2C2C2C"/>
<path d="M8.88994 14.0167V29.5297C8.88994 30.2513 8.29845 30.8369 7.56965 30.8369C7.20525 30.8369 6.87606 30.6905 6.63665 30.4535C6.39723 30.2164 6.24936 29.8905 6.24936 29.5297V14.0167C6.24936 13.6559 6.39723 13.33 6.63665 13.0929C6.87606 12.8559 7.20525 12.7095 7.56965 12.7095C8.29845 12.7095 8.88994 13.2951 8.88994 14.0167Z" fill="#2C2C2C"/>
<path d="M25.1736 17.0915C21.8958 20.0197 19.8344 24.2605 19.8344 28.9771V36.9236C19.8344 39.8588 22.2162 42.2433 25.1736 42.2816V53.8013C25.1736 56.7609 27.5977 59.1611 30.5868 59.1611C33.576 59.1611 36 56.7609 36 53.8013V36.9236V12.9709C31.8367 12.9709 28.0395 14.5292 25.1736 17.0915ZM33.3594 53.8013C33.3594 55.3142 32.1148 56.5465 30.5868 56.5465C29.0588 56.5465 27.8142 55.3142 27.8142 53.8013V42.2834V39.6688H25.2475C25.2229 39.6688 25.1983 39.6688 25.1736 39.6671C23.6773 39.6287 22.4749 38.4121 22.4749 36.9236V28.9771C22.4749 25.9739 23.4784 23.1955 25.1736 20.9592C25.9271 19.9657 26.8161 19.0768 27.8142 18.3238C29.4197 17.1106 31.3068 16.2461 33.3594 15.8417V41.5269V53.8013Z" fill="#2C2C2C"/>
<circle cx="39.5" cy="12.5" r="12.5" fill="#FEC741"/>
<path d="M37.8311 14.586V17.034C37.8311 17.1247 37.8141 17.1813 37.7801 17.204C37.7574 17.2267 37.7121 17.238 37.6441 17.238H36.7431C36.6071 17.238 36.5391 17.17 36.5391 17.034V14.586H32.1871C32.0511 14.586 31.9831 14.518 31.9831 14.382V13.396L36.4541 5.967C36.5221 5.865 36.6241 5.82533 36.7601 5.848L37.5591 5.984C37.6951 6.018 37.7631 6.069 37.7631 6.137C37.7631 6.171 37.7404 6.222 37.6951 6.29L33.3261 13.481H36.5391L36.7601 10.744C36.7714 10.5967 36.8451 10.523 36.9811 10.523H37.6271C37.7631 10.523 37.8311 10.591 37.8311 10.727V13.481H39.2251C39.3611 13.481 39.4291 13.549 39.4291 13.685V14.382C39.4291 14.518 39.3611 14.586 39.2251 14.586H37.8311ZM43.0061 12.05C43.0061 12.6033 42.8827 13.04 42.6361 13.36C42.3961 13.68 42.0661 13.84 41.6461 13.84C41.5594 13.84 41.4727 13.8333 41.3861 13.82C41.2994 13.8067 41.1894 13.7667 41.0561 13.7C40.9227 13.6333 40.8061 13.5467 40.7061 13.44C40.6127 13.3333 40.5294 13.1733 40.4561 12.96C40.3827 12.74 40.3461 12.4867 40.3461 12.2C40.3461 11.66 40.4661 11.23 40.7061 10.91C40.9461 10.59 41.2827 10.43 41.7161 10.43C42.0894 10.43 42.3961 10.5633 42.6361 10.83C42.8827 11.0967 43.0061 11.5033 43.0061 12.05ZM41.6461 13.3C42.1127 13.3 42.3461 12.9033 42.3461 12.11C42.3461 11.35 42.1327 10.97 41.7061 10.97C41.2394 10.97 41.0061 11.37 41.0061 12.17C41.0061 12.9233 41.2194 13.3 41.6461 13.3ZM47.1661 15.35C47.1661 15.9033 47.0427 16.34 46.7961 16.66C46.5561 16.98 46.2261 17.14 45.8061 17.14C45.7194 17.14 45.6327 17.1333 45.5461 17.12C45.4594 17.1067 45.3494 17.0667 45.2161 17C45.0827 16.9333 44.9661 16.8467 44.8661 16.74C44.7727 16.6333 44.6894 16.4733 44.6161 16.26C44.5427 16.04 44.5061 15.7867 44.5061 15.5C44.5061 14.96 44.6261 14.53 44.8661 14.21C45.1061 13.89 45.4427 13.73 45.8761 13.73C46.2494 13.73 46.5561 13.8633 46.7961 14.13C47.0427 14.3967 47.1661 14.8033 47.1661 15.35ZM45.8061 16.6C46.2727 16.6 46.5061 16.2033 46.5061 15.41C46.5061 14.65 46.2927 14.27 45.8661 14.27C45.3994 14.27 45.1661 14.67 45.1661 15.47C45.1661 16.2233 45.3794 16.6 45.8061 16.6ZM44.4861 10.43H44.9061C45.0261 10.43 45.0627 10.4867 45.0161 10.6L43.0161 17.04C42.9961 17.1067 42.9494 17.14 42.8761 17.14H42.4561C42.3827 17.14 42.3394 17.1233 42.3261 17.09C42.3127 17.0633 42.3194 17.0267 42.3461 16.98L44.3361 10.53C44.3627 10.4633 44.4127 10.43 44.4861 10.43Z" fill="black"/>
</svg>
