<svg width="56" height="55" viewBox="0 0 56 55" fill="none" xmlns="http://www.w3.org/2000/svg">
<path d="M13.8191 7.70947C13.0903 7.70947 12.4988 8.29513 12.4988 9.01674V26.7259C12.4988 26.8705 12.4407 27.0082 12.3368 27.1111L10.7929 28.6397C10.1909 29.2376 9.85818 30.0306 9.85818 30.8742V49.2997C9.85818 49.3102 9.85466 50.2776 9.24204 50.8859C8.87412 51.2519 8.3108 51.4437 7.56967 51.4576C6.82855 51.4437 6.26523 51.2519 5.89731 50.8859C5.28469 50.2776 5.28117 49.3102 5.28117 49.2997V30.8742C5.28117 30.0306 4.94845 29.2376 4.3464 28.6397L2.80254 27.1111C2.69868 27.0082 2.64058 26.8705 2.64058 26.7259V9.01674C2.64058 8.29513 2.04909 7.70947 1.32029 7.70947C0.591491 7.70947 0 8.29513 0 9.01674V26.7259C0 27.5695 0.332714 28.3626 0.934767 28.9604L2.47863 30.489C2.58249 30.5919 2.64058 30.7296 2.64058 30.8742V49.2684C2.63706 49.5595 2.66699 51.353 3.99432 52.6986C4.87452 53.5946 6.07686 54.0565 7.56967 54.0721C9.06248 54.0565 10.2648 53.5946 11.145 52.6986C12.4724 51.353 12.5023 49.5595 12.4988 49.2684V30.8742C12.4988 30.7296 12.5569 30.5919 12.6607 30.489L14.2046 28.9604C14.8066 28.3626 15.1393 27.5695 15.1393 26.7259V9.01674C15.1393 8.29513 14.5479 7.70947 13.8191 7.70947Z" fill="#2C2C2C"/>
<path d="M8.88997 9.01674V24.5297C8.88997 25.2513 8.29848 25.8369 7.56968 25.8369C7.20528 25.8369 6.87609 25.6905 6.63668 25.4535C6.39726 25.2164 6.24939 24.8905 6.24939 24.5297V9.01674C6.24939 8.65593 6.39726 8.32999 6.63668 8.09294C6.87609 7.85589 7.20528 7.70947 7.56968 7.70947C8.29848 7.70947 8.88997 8.29513 8.88997 9.01674Z" fill="#2C2C2C"/>
<path d="M25.1736 12.0915C21.8958 15.0197 19.8344 19.2605 19.8344 23.9771V31.9236C19.8344 34.8588 22.2162 37.2433 25.1736 37.2816V48.8013C25.1736 51.7609 27.5977 54.1611 30.5868 54.1611C33.576 54.1611 36 51.7609 36 48.8013V31.9236V7.97095C31.8367 7.97095 28.0395 9.52921 25.1736 12.0915ZM33.3594 48.8013C33.3594 50.3142 32.1148 51.5465 30.5868 51.5465C29.0588 51.5465 27.8142 50.3142 27.8142 48.8013V37.2834V34.6688H25.2475C25.2229 34.6688 25.1983 34.6688 25.1736 34.6671C23.6773 34.6287 22.4749 33.4121 22.4749 31.9236V23.9771C22.4749 20.9739 23.4784 18.1955 25.1736 15.9592C25.9271 14.9657 26.8161 14.0768 27.8142 13.3238C29.4197 12.1106 31.3068 11.2461 33.3594 10.8417V36.5269V48.8013Z" fill="#2C2C2C"/>
<circle cx="43.5" cy="12.5" r="12.5" fill="#FEC741"/>
<path d="M41.8311 14.586V17.034C41.8311 17.1247 41.8141 17.1813 41.7801 17.204C41.7574 17.2267 41.7121 17.238 41.6441 17.238H40.7431C40.6071 17.238 40.5391 17.17 40.5391 17.034V14.586H36.1871C36.0511 14.586 35.9831 14.518 35.9831 14.382V13.396L40.4541 5.967C40.5221 5.865 40.6241 5.82533 40.7601 5.848L41.5591 5.984C41.6951 6.018 41.7631 6.069 41.7631 6.137C41.7631 6.171 41.7404 6.222 41.6951 6.29L37.3261 13.481H40.5391L40.7601 10.744C40.7714 10.5967 40.8451 10.523 40.9811 10.523H41.6271C41.7631 10.523 41.8311 10.591 41.8311 10.727V13.481H43.2251C43.3611 13.481 43.4291 13.549 43.4291 13.685V14.382C43.4291 14.518 43.3611 14.586 43.2251 14.586H41.8311ZM47.0061 12.05C47.0061 12.6033 46.8827 13.04 46.6361 13.36C46.3961 13.68 46.0661 13.84 45.6461 13.84C45.5594 13.84 45.4727 13.8333 45.3861 13.82C45.2994 13.8067 45.1894 13.7667 45.0561 13.7C44.9227 13.6333 44.8061 13.5467 44.7061 13.44C44.6127 13.3333 44.5294 13.1733 44.4561 12.96C44.3827 12.74 44.3461 12.4867 44.3461 12.2C44.3461 11.66 44.4661 11.23 44.7061 10.91C44.9461 10.59 45.2827 10.43 45.7161 10.43C46.0894 10.43 46.3961 10.5633 46.6361 10.83C46.8827 11.0967 47.0061 11.5033 47.0061 12.05ZM45.6461 13.3C46.1127 13.3 46.3461 12.9033 46.3461 12.11C46.3461 11.35 46.1327 10.97 45.7061 10.97C45.2394 10.97 45.0061 11.37 45.0061 12.17C45.0061 12.9233 45.2194 13.3 45.6461 13.3ZM51.1661 15.35C51.1661 15.9033 51.0427 16.34 50.7961 16.66C50.5561 16.98 50.2261 17.14 49.8061 17.14C49.7194 17.14 49.6327 17.1333 49.5461 17.12C49.4594 17.1067 49.3494 17.0667 49.2161 17C49.0827 16.9333 48.9661 16.8467 48.8661 16.74C48.7727 16.6333 48.6894 16.4733 48.6161 16.26C48.5427 16.04 48.5061 15.7867 48.5061 15.5C48.5061 14.96 48.6261 14.53 48.8661 14.21C49.1061 13.89 49.4427 13.73 49.8761 13.73C50.2494 13.73 50.5561 13.8633 50.7961 14.13C51.0427 14.3967 51.1661 14.8033 51.1661 15.35ZM49.8061 16.6C50.2727 16.6 50.5061 16.2033 50.5061 15.41C50.5061 14.65 50.2927 14.27 49.8661 14.27C49.3994 14.27 49.1661 14.67 49.1661 15.47C49.1661 16.2233 49.3794 16.6 49.8061 16.6ZM48.4861 10.43H48.9061C49.0261 10.43 49.0627 10.4867 49.0161 10.6L47.0161 17.04C46.9961 17.1067 46.9494 17.14 46.8761 17.14H46.4561C46.3827 17.14 46.3394 17.1233 46.3261 17.09C46.3127 17.0633 46.3194 17.0267 46.3461 16.98L48.3361 10.53C48.3627 10.4633 48.4127 10.43 48.4861 10.43Z" fill="black"/>
</svg>
