<svg width="69" height="59" viewBox="0 0 69 59" fill="none" xmlns="http://www.w3.org/2000/svg">
<path d="M37.7403 38.7406C37.6368 38.8732 37.5617 38.994 37.4636 39.092C35.1899 41.3645 32.9171 43.638 30.6367 45.9036C29.4587 47.0741 28.0413 47.8253 26.4273 48.1995C24.8191 48.5723 23.2056 48.922 21.5949 49.2841C21.5345 49.2976 21.4797 49.3356 21.382 49.3808C21.7516 49.7522 22.1017 50.1131 22.462 50.4635C22.915 50.9041 23.1512 51.4187 23.0984 52.0641C23.0646 52.4759 22.9186 52.8345 22.6357 53.1186C20.8356 54.9265 19.0309 56.7298 17.2181 58.5251C16.5681 59.1688 15.3701 59.1458 14.7617 58.5309C13.5779 57.3344 12.376 56.156 11.184 54.9676C9.16143 52.9509 7.14091 50.9322 5.11909 48.9148C3.6658 47.4648 2.2109 46.0164 0.758988 44.5649C0.5437 44.3497 0.304959 44.1479 0.177963 43.8633C-0.125233 43.184 -0.0596276 42.3683 0.519174 41.7854C2.28984 40.0022 4.06932 38.2277 5.8557 36.4602C6.52179 35.8011 7.61716 35.7909 8.29024 36.3554C8.65268 36.6595 8.9525 37.0269 9.33732 37.3488C9.60258 37.0214 9.86661 36.7018 10.1238 36.3768C10.7533 35.5812 11.3784 34.7822 12.0075 33.9862C12.503 33.3591 13.0014 32.7345 13.4991 32.1091C14.2678 31.1431 15.0558 30.1917 15.8015 29.2082C16.8696 27.7996 18.0285 26.463 19.0917 25.052C20.0997 23.7141 21.1574 22.4157 22.1882 21.0961C22.8507 20.248 23.4803 19.3673 24.2672 18.6225C25.5428 17.4155 27.0336 16.5936 28.7406 16.1693C29.404 16.0045 30.0839 15.9428 30.76 15.8521C31.261 15.7849 31.7654 15.7421 32.2646 15.6509C32.7495 15.5624 33.2459 15.5387 33.7364 15.4783C34.251 15.415 34.7641 15.3393 35.2786 15.2739C35.7683 15.2118 36.2592 15.158 36.7491 15.097C37.2764 15.0313 37.803 14.9592 38.3304 14.8943C38.6447 14.8556 38.96 14.824 39.2751 14.7917C39.5944 14.759 39.8673 14.6727 40.1143 14.4251C44.1317 10.3991 48.1618 6.38581 52.1825 2.36309C52.7303 1.81496 53.3694 1.4967 54.1425 1.49249C54.8701 1.48859 55.502 1.75348 56.0204 2.27064C58.6393 4.8832 61.2578 7.49606 63.8767 10.1088C65.3125 11.5413 66.7466 12.9754 68.1858 14.4046C68.5555 14.7717 68.8207 15.1904 68.9264 15.7048C69.1142 16.6182 68.957 17.4511 68.2867 18.1257C66.3176 20.1073 64.3351 22.0756 62.3576 24.0489C60.3531 26.0493 58.3482 28.0492 56.3435 30.0494C52.4517 33.9325 48.5538 37.8096 44.674 41.7045C43.9764 42.4048 43.1647 42.6578 42.2198 42.5373C41.7768 42.4807 41.3669 42.2933 41.029 41.9879C40.3002 41.3289 39.6303 40.6098 38.9296 39.9219C38.5488 39.5478 38.1722 39.1697 37.7403 38.7406ZM20.3104 48.3542C20.7434 48.2615 21.1134 48.186 21.4816 48.1026C23.0175 47.7547 24.5532 47.4053 26.0885 47.0546C27.4887 46.7347 28.7354 46.1104 29.7556 45.0977C33.2042 41.6744 36.6342 38.2324 40.0808 34.8071C41.3029 33.5926 41.1239 31.4614 39.6788 30.5404C39.0226 30.1222 38.32 29.9632 37.5701 30.13C36.9781 30.2617 36.4817 30.5902 36.0489 31.0249C34.285 32.7963 32.5004 34.5474 30.7474 36.3295C30.0778 37.0103 28.7135 36.859 28.3633 35.7245C28.2591 35.3868 28.3502 35.0752 28.3657 34.7495C28.3954 34.1284 28.4764 33.5116 28.5446 32.8963C28.6322 32.105 28.7308 31.3119 28.811 30.5209C28.9042 29.601 29.0079 28.6801 29.0734 27.7563C29.0938 27.4677 29.1287 27.1767 29.1582 26.8869C29.199 26.4841 29.2536 26.0827 29.2914 25.6796C29.3306 25.2632 29.3934 24.8537 29.5747 24.4716C30.068 23.4324 30.8897 22.7584 31.9509 22.3544C32.1418 22.2818 32.3168 22.1996 32.4667 22.0495C34.3858 20.1277 36.31 18.2109 38.2317 16.2917C38.2813 16.2421 38.3599 16.2064 38.3474 16.1099C37.8828 16.1629 37.4185 16.2123 36.9553 16.2697C36.4405 16.3336 35.9271 16.4081 35.4123 16.472C34.9217 16.5328 34.4294 16.5801 33.9392 16.6435C33.2364 16.7345 32.5355 16.8406 31.8324 16.9293C31.1409 17.0164 30.4437 17.065 29.7563 17.1752C28.6886 17.3464 27.6779 17.7029 26.7407 18.2444C25.9315 18.7119 25.1981 19.2869 24.5908 19.9951C23.9721 20.7167 23.3874 21.4688 22.8139 22.2271C21.566 23.8774 20.2139 25.4452 18.9713 27.1001C18.2401 28.0741 17.4448 29 16.6878 29.955C15.6687 31.2409 14.6596 32.5346 13.6449 33.8239C12.7271 34.9902 11.8075 36.1549 10.8893 37.3209C10.6571 37.6157 10.4275 37.9126 10.1722 38.24C13.5674 41.6272 16.9415 44.9933 20.3104 48.3542ZM48.5345 7.67462C48.5911 7.74054 48.6203 7.77953 48.6545 7.81364C49.801 8.958 50.9466 10.1033 52.0959 11.245C52.4221 11.5691 52.7423 11.9043 52.9516 12.3115C53.3523 13.0913 53.5328 13.91 53.3713 14.8005C53.2265 15.599 52.906 16.2901 52.3357 16.8647C51.6439 17.5614 50.9483 18.2544 50.2535 18.9483C48.2506 20.9488 46.2491 22.9507 44.2433 24.9484C43.0328 26.1541 41.8144 27.3518 40.6019 28.5555C40.3712 28.7845 40.1194 28.9968 39.9394 29.2841C40.0459 29.3667 40.1306 29.4458 40.2274 29.505C40.9073 29.9216 41.3994 30.487 41.7427 31.2147C42.0701 31.9087 42.1646 32.6299 42.0712 33.3604C41.9543 34.2741 41.5347 35.0614 40.8603 35.7115C40.1715 36.3753 39.5022 37.0592 38.8276 37.7376C38.7608 37.8048 38.6557 37.8528 38.6582 37.9829C39.17 38.4933 39.6799 39.0106 40.1999 39.5177C40.7199 40.0247 41.2042 40.5685 41.7585 41.0402C42.3923 41.5795 43.2443 41.4568 43.7473 40.9349C44.1798 40.4861 44.6266 40.0509 45.0698 39.6125C48.0524 36.6613 50.9868 33.6619 53.9987 30.74C54.6816 30.0774 55.3289 29.3785 56.0024 28.7059C59.7751 24.9379 63.5451 21.1673 67.331 17.4125C67.938 16.8105 67.9483 15.8435 67.3521 15.2512C63.2984 11.2245 59.2579 7.18453 55.2127 3.14926C55.1234 3.0601 55.0291 2.98088 54.9182 2.91259C54.3972 2.59196 53.5908 2.62385 53.0383 3.19048C51.9166 4.3408 50.77 5.46704 49.6317 6.60115C49.272 6.95963 48.9058 7.3117 48.5345 7.67462ZM47.6948 8.53872C47.4419 8.78938 47.2073 9.02055 46.9742 9.25309C45.0157 11.2065 43.0571 13.1598 41.0991 15.1137C38.9787 17.2296 36.8596 19.3468 34.7386 21.4621C33.4029 22.7943 32.0659 24.1253 30.7264 25.4536C30.5354 25.643 30.4221 25.8512 30.4405 26.128C30.4652 26.4975 30.3782 26.8607 30.3453 27.226C30.2787 27.9676 30.1369 28.7021 30.1079 29.3365C31.1189 30.3736 32.0739 31.3532 33.0679 32.3729C33.2413 32.1809 33.3981 31.9965 33.5668 31.8237C33.8071 31.5774 34.0551 31.3386 34.3019 31.0987C34.6287 30.7811 34.9836 30.4877 35.279 30.1434C35.6913 29.6631 36.2194 29.3779 36.789 29.1608C37.3731 28.938 37.9869 28.8576 38.6087 28.9229C39.1421 28.3369 39.7195 27.816 40.2688 27.2669C41.1972 26.3388 42.1166 25.4019 43.0456 24.4743C45.7966 21.7273 48.5503 18.9831 51.303 16.2379C51.9135 15.629 52.2674 14.9224 52.2115 14.0324C52.1746 13.4445 51.9972 12.9287 51.6159 12.4762C51.3195 12.1243 50.9813 11.8146 50.6576 11.4904C49.6852 10.5169 48.7084 9.54788 47.6948 8.53872ZM21.9296 51.9614C21.9398 51.7687 21.8825 51.6806 21.8374 51.5913C21.7383 51.3946 21.5677 51.2562 21.4154 51.1041C18.6535 48.3478 15.8906 45.5924 13.1282 42.8366C11.3226 41.0353 9.51712 39.2338 7.7122 37.4319C7.3293 37.0496 6.98977 37.0073 6.56701 37.43C4.88004 39.1167 3.19192 40.8023 1.49882 42.4828C1.1399 42.8391 1.09047 43.2106 1.50104 43.6178C5.14859 47.2354 8.78021 50.8689 12.4167 54.4976C13.446 55.5247 14.4812 56.5462 15.5018 57.5819C15.8223 57.9071 16.1756 57.8795 16.4673 57.5957C16.5222 57.5424 16.5763 57.4882 16.6305 57.4342C17.5157 56.5513 18.4009 55.6685 19.2859 54.7855C20.0716 54.0016 20.8548 53.2153 21.6446 52.4355C21.8054 52.2766 21.9139 52.1022 21.9296 51.9614ZM29.9204 31.0402C29.9105 31.2404 29.9069 31.48 29.885 31.718C29.8467 32.1337 29.7977 32.5484 29.7519 32.9634C29.713 33.3156 29.6613 33.6669 29.6358 34.02C29.6067 34.4237 29.523 34.8215 29.5188 35.2282C29.5168 35.4201 29.5656 35.5457 29.7257 35.5607C30.5414 34.7466 31.333 33.9567 32.1441 33.1471C31.4209 32.4619 30.6746 31.7548 29.9204 31.0402Z" fill="black"/>
<path d="M50.3497 43.0832C50.1409 43.0508 49.9689 42.9393 49.8445 42.7477C49.7194 42.5552 49.7205 42.3602 49.8559 42.184C49.9788 42.0242 50.1252 41.8815 50.2678 41.7378C50.6882 41.314 51.1046 40.8856 51.5367 40.4738C51.9063 40.1216 52.3767 40.2541 52.5504 40.7311C52.6353 40.9644 52.524 41.1276 52.3864 41.2753C52.1093 41.5725 51.8186 41.8571 51.5312 42.1447C51.2889 42.3874 51.0458 42.6296 50.7984 42.867C50.679 42.9815 50.5435 43.0744 50.3497 43.0832Z" fill="black"/>
<path d="M57.3558 36.0756C57.3603 36.2352 57.31 36.3717 57.1956 36.4855C56.6554 37.0229 56.1146 37.5596 55.5779 38.1003C55.3318 38.3482 54.9552 38.2938 54.759 38.0988C54.5201 37.8615 54.5268 37.4899 54.7373 37.2827C55.2892 36.7394 55.8347 36.1897 56.3848 35.6447C56.5831 35.4482 56.8146 35.4674 57.0532 35.557C57.2957 35.648 57.3413 35.8537 57.3558 36.0756Z" fill="black"/>
<path d="M40.2507 7.29824C39.7622 7.30536 39.4875 6.85748 39.6945 6.42933C39.7341 6.34743 39.7828 6.27616 39.8462 6.213C40.2966 5.76413 40.7419 5.31005 41.1993 4.86837C41.4932 4.58459 41.7514 4.55255 42.0152 4.73485C42.3457 4.96319 42.3942 5.33842 42.1157 5.64078C41.8833 5.89305 41.6334 6.12942 41.3898 6.37136C41.1281 6.63121 40.864 6.88852 40.6027 7.14859C40.4991 7.25175 40.3869 7.32684 40.2507 7.29824Z" fill="black"/>
<path d="M30.5933 51.9091C30.5704 51.745 30.6278 51.5899 30.7457 51.468C31.0734 51.1292 31.3951 50.7826 31.746 50.4691C32.1304 50.1257 32.6087 50.2726 32.766 50.7419C32.8377 50.9559 32.7659 51.1196 32.6318 51.2585C32.2779 51.625 31.912 51.9798 31.5502 52.3387C31.3758 52.5117 31.1574 52.5389 30.9507 52.4473C30.7376 52.3528 30.5649 52.1948 30.5933 51.9091Z" fill="black"/>
<path d="M46.0736 1.44057C46.0929 1.58739 46.0503 1.71486 45.9443 1.821C45.6564 2.10914 45.3766 2.40576 45.0787 2.68327C44.8267 2.9181 44.5308 2.91963 44.2888 2.72364C44.0763 2.55159 43.9882 2.1554 44.1985 1.90542C44.4855 1.56437 44.7962 1.24634 45.1431 0.967458C45.3261 0.820331 45.5659 0.817502 45.7543 0.919282C45.9377 1.01823 46.1079 1.18104 46.0736 1.44057Z" fill="black"/>
<path d="M37.8114 9.68201C37.8094 9.82287 37.7968 9.95485 37.6835 10.0644C37.3906 10.3479 37.1158 10.6508 36.8138 10.9241C36.4769 11.2291 36.0947 11.139 35.8741 10.7419C35.7657 10.5469 35.7938 10.3653 35.9072 10.2066C36.1893 9.81193 36.5326 9.4708 36.9267 9.18749C37.2795 8.93369 37.8433 9.20003 37.8114 9.68201Z" fill="black"/>
<path d="M33.6604 48.8358C33.6394 48.669 33.6981 48.5264 33.8047 48.4157C34.078 48.1316 34.3497 47.8439 34.6457 47.5846C34.9617 47.3079 35.3643 47.4276 35.5487 47.6862C35.7052 47.9057 35.7059 48.1685 35.5105 48.3806C35.2176 48.6982 34.9074 49.0006 34.5936 49.298C34.4203 49.4622 34.1995 49.482 33.9927 49.3737C33.783 49.2638 33.6178 49.1046 33.6604 48.8358Z" fill="black"/>
<path d="M28.3062 55.3454C27.8877 55.3512 27.5379 54.8775 27.7778 54.4926C27.8241 54.4181 27.8651 54.337 27.9252 54.275C28.164 54.0291 28.3989 53.778 28.6545 53.5502C29.0659 53.1838 29.5869 53.336 29.7094 53.8399C29.7566 54.0342 29.691 54.1917 29.5669 54.3212C29.2771 54.6235 28.9719 54.9112 28.6796 55.2112C28.5701 55.3237 28.4314 55.3216 28.3062 55.3454Z" fill="black"/>
<path d="M59.9918 33.45C59.7316 33.4684 59.5484 33.3579 59.4564 33.1451C59.3639 32.9314 59.346 32.6974 59.5271 32.5097C59.818 32.2079 60.1082 31.9039 60.4195 31.6238C60.6854 31.3845 61.0156 31.4085 61.2377 31.6455C61.4593 31.8818 61.4649 32.2102 61.2241 32.4689C60.956 32.7571 60.6682 33.0271 60.3876 33.3037C60.2739 33.416 60.139 33.4755 59.9918 33.45Z" fill="black"/>
<path d="M46.3389 47.0579C46.0567 47.0952 45.8863 46.9171 45.7986 46.7124C45.7173 46.5225 45.7141 46.2892 45.8924 46.1108C46.1801 45.8228 46.4584 45.5251 46.7553 45.247C47.0063 45.012 47.2884 44.9838 47.5723 45.2318C47.8272 45.4545 47.8338 45.8075 47.582 46.0771C47.3131 46.365 47.0231 46.6333 46.7436 46.9114C46.629 47.0257 46.496 47.0835 46.3389 47.0579Z" fill="black"/>
<path d="M62.6369 17.9961C62.6468 18.1538 62.5862 18.3142 62.4512 18.4463C62.3874 18.5087 62.3246 18.5721 62.2614 18.6352C58.9571 21.9321 55.6568 25.2332 52.3425 28.5201C51.9649 28.8946 51.6177 29.3015 51.1967 29.6357C50.9803 29.8075 50.8176 30.0455 50.6225 30.2457C50.3206 30.5556 50.0124 30.8591 49.6804 31.1382C49.4048 31.3698 49.0901 31.3812 48.8594 31.1524C48.6153 30.9102 48.6133 30.569 48.8696 30.3093C49.3622 29.8101 49.8618 29.3178 50.3583 28.8225C54.069 25.1205 57.7795 21.4182 61.4912 17.7172C61.6417 17.5671 61.7727 17.3906 62.0257 17.3882C62.3692 17.3848 62.636 17.6261 62.6369 17.9961Z" fill="black"/>
<path d="M46.7719 28.9298C46.6127 28.8866 46.4183 28.8242 46.306 28.6028C46.1947 28.3833 46.2038 28.1877 46.3519 27.9997C46.4306 27.9 46.5218 27.8096 46.612 27.7196C48.9578 25.3772 51.3042 23.0355 53.6512 20.6943C53.7504 20.5954 53.8476 20.4914 53.9605 20.4101C54.2094 20.2307 54.5313 20.2583 54.7201 20.4815C54.9037 20.6985 54.9887 20.9708 54.7566 21.242C54.5498 21.4837 54.318 21.7043 54.0923 21.9293C51.881 24.1358 49.6688 26.3414 47.4561 28.5466C47.3659 28.6365 47.2735 28.7257 47.1728 28.8032C47.0727 28.8804 46.9628 28.9479 46.7719 28.9298Z" fill="black"/>
</svg>
