<svg width="48" height="57" viewBox="0 0 48 57" fill="none" xmlns="http://www.w3.org/2000/svg">
<path d="M5.15329 44.372C5.15275 42.6313 5.15113 40.8906 5.15356 39.15C5.15455 38.4122 5.16338 38.3941 4.4319 38.1956C3.30533 37.8899 2.22621 37.4236 1.0583 37.2514C0.600516 37.184 0.311599 36.8304 0.172725 36.3811C0.00719244 35.8454 0.176598 35.3928 0.570886 35.0371C2.06545 33.6893 3.3971 32.1788 4.84483 30.7852C5.11889 30.5214 5.06845 30.3855 4.82088 30.1619C3.61829 29.076 2.41966 27.9851 1.2395 26.875C0.87178 26.5291 0.525315 26.1452 0.241262 25.7293C-0.241467 25.0223 0.0230433 24.3988 0.833955 24.1201C2.70498 23.4769 4.59347 22.8873 6.50403 22.38C7.83622 22.0262 9.15525 21.6315 10.4783 21.2492C10.8206 21.1503 11.1412 20.9701 11.4861 20.8876C13.2194 20.4731 14.927 19.9682 16.6314 19.4516C16.9319 19.3605 17.2287 19.2541 17.5207 19.1381C18.3869 18.7943 19.3302 19.0896 19.9567 19.7681C21.2284 21.1457 22.5537 22.4737 23.8502 23.8285C24.0238 24.0099 24.1347 23.9661 24.289 23.811C24.9132 23.1832 25.5456 22.5637 26.177 21.9432C27.1281 21.0086 28.1441 20.1431 29.0715 19.1817C29.5043 18.7331 30.6253 18.6795 31.2855 19.0742C31.7488 19.3513 32.2461 19.4999 32.75 19.6243C35.443 20.2889 38.0363 21.283 40.7092 22.0113C42.734 22.563 44.7248 23.2331 46.6999 23.9269C47.9723 24.3739 48.2449 25.2974 47.2223 26.2633C45.8152 27.5926 44.4485 28.9628 43.0342 30.2836C42.7859 30.5155 42.78 30.6362 43.0305 30.8743C44.5637 32.3315 46.0902 33.7962 47.5964 35.281C48.3025 35.977 48.0472 36.9106 47.1044 37.1964C45.8421 37.5791 44.5802 37.9638 43.3117 38.3251C42.9814 38.4191 42.8583 38.5705 42.8572 38.9206C42.8445 42.6119 42.8147 46.3031 42.7938 49.9944C42.792 50.3266 42.7709 50.6524 42.6752 50.9725C42.524 51.4788 42.2415 51.804 41.6989 51.9764C36.3417 53.6787 30.9161 55.1519 25.5487 56.8186C24.5599 57.1257 23.6379 57.0082 22.6912 56.7252C17.8941 55.2917 13.0599 53.9894 8.23681 52.6477C7.77641 52.5196 7.32764 52.3528 6.8695 52.2145C5.95484 51.9384 5.16464 50.7295 5.15698 49.6386C5.14492 47.8833 5.15383 46.1276 5.15329 44.372ZM24.5722 46.8232C24.5722 49.6429 24.5719 52.4625 24.5725 55.2822C24.5726 55.872 24.5744 55.8689 25.1131 55.7088C27.9138 54.8764 30.7192 54.059 33.5154 53.2118C36.0374 52.4477 38.5914 51.7905 41.083 50.9228C41.5512 50.7598 41.6185 50.4717 41.6211 50.0732C41.645 46.5037 41.672 42.9343 41.696 39.3648C41.6996 38.8262 41.6844 38.8154 41.1609 38.9704C37.7139 39.9907 34.2676 41.0126 30.8212 42.0346C30.2733 42.1971 29.7079 42.2827 29.2174 41.9367C28.7555 41.6109 28.2782 41.3021 27.8719 40.8924C26.9426 39.9556 25.985 39.0469 25.0363 38.1294C24.9315 38.0281 24.8337 37.8335 24.6898 37.8797C24.4962 37.9419 24.5754 38.1646 24.5753 38.3193C24.5713 41.1539 24.5724 43.9886 24.5722 46.8232ZM23.4013 46.5045C23.4013 43.6995 23.4013 40.8944 23.4012 38.0894C23.4012 37.9844 23.4008 37.8794 23.3998 37.7743C23.399 37.682 23.3921 37.5758 23.2994 37.5418C23.202 37.5062 23.1372 37.6003 23.0781 37.6648C22.0146 38.826 20.9196 39.9608 19.9065 41.1644C19.512 41.6331 19.0824 41.9258 18.5133 42.0644C17.5527 42.2984 16.6772 42.0411 15.7575 41.7364C12.7851 40.7517 9.78163 39.861 6.7934 38.9237C6.41667 38.8055 6.31571 38.92 6.31877 39.2907C6.33111 40.7756 6.32364 42.2607 6.32391 43.7457C6.32427 45.6657 6.32112 47.5857 6.32787 49.5057C6.33039 50.2122 6.71657 50.7781 7.27838 51.0731C7.7059 51.2975 8.2224 51.4342 8.71188 51.5696C13.4038 52.8681 18.0961 54.1652 22.7885 55.4615C23.3905 55.6278 23.4004 55.6191 23.4005 55.0095C23.4012 52.1746 23.401 49.3396 23.4013 46.5045ZM39.8434 30.6596C39.7186 30.4752 39.532 30.4541 39.3634 30.4014C34.3423 28.8338 29.3207 27.268 24.3007 25.6971C24.0481 25.6181 23.8123 25.6027 23.5567 25.6821C18.6047 27.2198 13.6512 28.7526 8.69945 30.2911C8.56427 30.333 8.3402 30.3338 8.33236 30.4959C8.32228 30.7039 8.56319 30.6971 8.70837 30.7433C13.6349 32.3116 18.5634 33.8737 23.4896 35.4429C23.7728 35.5332 24.0326 35.5414 24.3194 35.454C29.3509 33.9212 34.3848 32.396 39.4173 30.8661C39.5573 30.8236 39.7122 30.8016 39.8434 30.6596ZM17.5834 40.99C18.114 41.0014 18.5841 40.8953 18.946 40.4479C19.9753 39.1753 21.1321 38.0158 22.2232 36.7979C22.5874 36.3914 22.589 36.3838 22.0548 36.2142C16.9109 34.5806 11.7657 32.951 6.62507 31.307C6.27347 31.1945 6.05516 31.2604 5.79939 31.5167C4.37966 32.9392 3.03064 34.4324 1.54337 35.7877C1.47231 35.8524 1.34847 35.911 1.40999 36.0399C1.45871 36.1419 1.56309 36.1804 1.67378 36.1822C1.93306 36.1865 2.17407 36.2695 2.41759 36.3452C5.30964 37.2434 8.20475 38.132 11.0934 39.0412C13.0376 39.6532 15.0085 40.1823 16.9176 40.9042C17.1328 40.9856 17.3587 40.985 17.5834 40.99ZM30.3542 20.0239C29.9875 19.9779 29.8264 20.1764 29.6562 20.3386C28.2775 21.6528 26.9011 22.9694 25.5284 24.2899C25.0951 24.7067 25.1035 24.7233 25.6977 24.9086C30.877 26.5243 36.0578 28.1356 41.2334 29.7634C41.5874 29.8747 41.8015 29.8036 42.0575 29.5556C43.4581 28.1992 44.8216 26.8038 46.2768 25.5041C46.5825 25.2312 46.5373 25.0856 46.0851 24.9443C43.3826 24.1002 40.6769 23.2662 37.9753 22.4191C35.5063 21.6449 32.9706 21.0808 30.5749 20.0746C30.4798 20.0347 30.3711 20.0276 30.3542 20.0239ZM30.0985 41.0083C30.702 40.8391 31.2942 40.6819 31.8813 40.5072C36.6489 39.0892 41.4156 37.6687 46.182 36.2467C46.6847 36.0968 46.6981 36.0501 46.3232 35.6902C44.906 34.3299 43.4793 32.9793 42.068 31.6129C41.8444 31.3964 41.6444 31.4127 41.3792 31.494C38.9875 32.2282 36.5924 32.9516 34.1981 33.6776C31.3308 34.5472 28.4633 35.416 25.5959 36.2856C25.0883 36.4395 25.0737 36.4712 25.4004 36.79C26.6028 37.9626 27.7986 39.1425 29.021 40.2939C29.3285 40.5833 29.6862 40.8411 30.0985 41.0083ZM18.2179 20.1607C17.8852 20.2763 17.5236 20.4226 17.1503 20.5284C13.7051 21.5053 10.2927 22.5953 6.82645 23.5013C5.40582 23.8726 4.00672 24.3274 2.60132 24.7554C2.31609 24.8424 2.04339 24.9734 1.77104 25.0977C1.68062 25.1389 1.49915 25.1729 1.63316 25.3416C1.81841 25.5746 1.90028 25.8661 2.13615 26.0777C3.40944 27.22 4.67038 28.376 5.92485 29.539C6.14739 29.7453 6.34039 29.804 6.64299 29.7089C9.5318 28.8005 12.426 27.9096 15.3186 27.0134C17.6958 26.2769 20.0737 25.5429 22.4484 24.7982C22.626 24.7426 23.0514 24.7441 22.6915 24.3744C21.4152 23.063 20.1328 21.7574 18.8421 20.4602C18.6914 20.3084 18.4998 20.1703 18.2179 20.1607Z" fill="black"/>
<path d="M35.0788 9.54211C34.8974 9.56607 34.7278 9.37649 34.5521 9.2196C34.0835 8.801 33.5993 8.39545 33.1699 7.93902C32.7437 7.48602 32.2376 7.27788 31.6387 7.19764C31.0006 7.11217 30.3669 6.99014 29.7339 6.87036C29.0635 6.74346 28.9021 6.28343 29.3522 5.78233C29.9034 5.16847 30.46 4.55921 31.026 3.95886C31.2092 3.76441 31.3122 3.55709 31.3542 3.29078C31.4824 2.47672 31.6297 1.66545 31.7813 0.855256C31.9007 0.217082 32.3965 0.0537114 32.8884 0.488707C33.3602 0.905871 33.8697 1.29313 34.2764 1.76758C34.7708 2.34433 35.4002 2.5077 36.0934 2.60398C36.6722 2.6844 37.2475 2.79166 37.8224 2.89739C38.4386 3.01069 38.6066 3.50729 38.1878 3.98425C37.792 4.43501 37.4261 4.92521 36.971 5.30761C36.3153 5.8587 36.1327 6.57631 36.0264 7.36002C35.952 7.90831 35.8434 8.45219 35.7414 8.99643C35.6831 9.30651 35.5141 9.51383 35.0788 9.54211ZM34.726 7.86751C34.8088 7.38965 34.9346 7.04886 34.9583 6.67339C35.0024 5.97551 35.1918 5.34049 35.7719 4.8538C36.0879 4.58865 36.3851 4.27263 36.6167 3.87924C36.4118 3.84241 36.251 3.79693 36.0881 3.78702C34.9842 3.71974 34.0237 3.3604 33.3152 2.46402C33.242 2.37144 33.1332 2.30785 33.0505 2.22167C32.8533 2.01651 32.7439 2.02164 32.6987 2.33271C32.6342 2.77689 32.522 3.21522 32.4762 3.66075C32.4371 4.04135 32.2815 4.33162 32.0177 4.59973C31.6338 4.98997 31.2781 5.40794 30.9104 5.81412C30.9042 5.85924 30.8981 5.90436 30.8919 5.94948C32.4902 5.90886 33.7569 6.52785 34.726 7.86751Z" fill="black"/>
<path d="M13.3927 6.68016C13.3709 6.73015 13.3432 6.81616 13.2977 6.89136C13.2595 6.9544 13.2062 7.01159 13.1498 7.05968C12.1949 7.87239 11.6329 8.87667 11.5977 10.1549C11.5918 10.3677 11.5577 10.6236 11.2908 10.7081C11.0169 10.7947 10.8404 10.6167 10.6644 10.4485C10.4804 10.2724 10.2716 10.1172 10.1121 9.92138C9.52319 9.19818 8.67923 9.13172 7.85247 8.99465C7.56049 8.94619 7.16764 9.02329 7.04209 8.6417C6.91754 8.26317 7.25446 8.05315 7.47997 7.87284C8.39373 7.14245 8.72147 6.1579 8.80801 5.04843C8.82675 4.80824 8.84782 4.55724 9.12521 4.45322C9.41124 4.34605 9.59434 4.53905 9.74096 4.71836C10.5516 5.70957 11.6182 6.13709 12.8673 6.2141C13.2467 6.23742 13.4016 6.40367 13.3927 6.68016ZM8.25567 8.23048C9.34055 8.27956 10.1914 8.7033 10.8872 9.5243C10.9026 8.43708 11.3279 7.59158 12.1623 6.89955C11.059 6.90676 10.2434 6.42349 9.52877 5.65058C9.48221 6.71925 9.08883 7.55304 8.25567 8.23048Z" fill="black"/>
<path d="M30.5628 10.9085C30.6844 10.9345 30.7928 10.985 30.8609 11.09C30.9007 11.1515 30.927 11.224 30.9483 11.2948C31.199 12.1259 31.7336 12.7063 32.5083 13.0808C32.6538 13.1511 32.8094 13.2234 32.785 13.439C32.762 13.6418 32.6024 13.695 32.4569 13.7684C32.4438 13.7751 32.4287 13.7784 32.4143 13.7823C31.6345 13.9899 31.0915 14.4756 30.7232 15.1858C30.6341 15.3575 30.5544 15.5975 30.291 15.5812C30.0086 15.5638 29.9584 15.3207 29.8871 15.1091C29.6375 14.3678 29.1653 13.8305 28.4567 13.4866C28.2867 13.4041 28.0518 13.3126 28.0921 13.0351C28.1287 12.7835 28.3658 12.7549 28.5314 12.7119C29.3297 12.5049 29.827 11.9704 30.1963 11.2751C30.2795 11.1186 30.3616 10.9515 30.5628 10.9085ZM31.929 13.4255C30.9276 12.6018 30.9276 12.6018 30.5193 11.7705C30.2263 12.4994 29.7039 12.9198 28.9834 13.1486C29.6931 13.4545 30.0825 13.9856 30.3463 14.8142C30.6763 14.0209 31.1463 13.5742 31.929 13.4255Z" fill="black"/>
<path d="M37.8227 13.1292C38.3841 13.1314 38.7423 13.7219 38.3888 14.1672C37.7865 14.9258 37.1222 15.6386 36.4463 16.334C36.2057 16.5815 35.8684 16.5334 35.595 16.289C35.3178 16.0412 35.2628 15.7078 35.4693 15.4445C36.0775 14.6688 36.7491 13.9447 37.4459 13.246C37.5468 13.1449 37.6868 13.1353 37.8227 13.1292Z" fill="black"/>
<path d="M12.0702 16.5164C12.1211 16.833 11.9144 17.0304 11.6762 17.1473C11.4442 17.2613 11.1562 17.237 10.9642 17.0408C10.5265 16.5937 10.0917 16.1398 9.69908 15.6538C9.43069 15.3215 9.50743 14.9736 9.82795 14.7109C10.1475 14.4489 10.4637 14.4809 10.7374 14.7702C11.1473 15.2035 11.539 15.6539 11.9378 16.0976C12.0428 16.2144 12.0923 16.3508 12.0702 16.5164Z" fill="black"/>
<path d="M17.569 12.3648C17.5478 11.8673 17.7514 11.6772 18.0685 11.5832C18.3896 11.4879 18.6908 11.5535 18.8218 11.8691C19.0329 12.3778 19.2151 12.903 19.3525 13.436C19.4344 13.7533 19.2606 14.0184 18.9461 14.1499C18.6367 14.2793 18.346 14.2473 18.1541 13.9483C17.8184 13.4247 17.72 12.8146 17.569 12.3648Z" fill="black"/>
<path d="M25.3178 15.7975C25.3064 16.1045 25.3546 16.3994 25.0575 16.5877C24.6103 16.8713 24.0537 16.6564 23.961 16.1316C23.8807 15.6767 23.8307 15.214 23.8041 14.7526C23.7806 14.3442 24.1194 14.0008 24.5145 13.9785C24.8623 13.9588 25.185 14.2923 25.2205 14.7056C25.2525 15.0783 25.2868 15.451 25.3178 15.7975Z" fill="black"/>
<path d="M4.23731 8.51868C4.72896 8.52012 5.8876 9.80268 5.86157 10.2986C5.84671 10.5812 5.66334 10.7479 5.45818 10.8451C5.20943 10.9631 4.91764 10.9388 4.70932 10.7276C4.37448 10.3881 4.04954 10.0366 3.7463 9.66876C3.55447 9.43613 3.537 9.1492 3.66588 8.87109C3.77683 8.63188 3.9801 8.52651 4.23731 8.51868Z" fill="black"/>
<path d="M41.2515 8.99673C40.9773 9.00501 40.7701 8.89883 40.658 8.66224C40.5368 8.40637 40.5089 8.13007 40.7039 7.89906C41.0129 7.53305 41.3294 7.17091 41.6697 6.83436C41.9555 6.55156 42.3924 6.54913 42.6368 6.80716C42.9088 7.09409 42.9498 7.42453 42.6909 7.73704C42.3856 8.10566 42.0585 8.45699 41.7293 8.80499C41.6035 8.93819 41.431 9.00222 41.2515 8.99673Z" fill="black"/>
<path d="M16.4019 3.52032C16.3982 4.03628 16.1441 4.23963 15.7951 4.29214C15.4483 4.34429 15.163 4.15723 15.0677 3.82508C14.9324 3.35406 14.8409 2.86773 14.7679 2.38239C14.7099 1.99657 14.9873 1.6664 15.3568 1.61417C15.7419 1.55977 16.0423 1.7743 16.1295 2.18038C16.233 2.66149 16.3261 3.14485 16.4019 3.52032Z" fill="black"/>
<path d="M21.2348 5.46909C21.2348 5.31977 21.2231 5.16937 21.237 5.0214C21.2727 4.64458 21.55 4.39628 21.922 4.3943C22.2993 4.39232 22.5703 4.62675 22.6075 5.01095C22.6523 5.4726 22.6856 5.93543 22.7152 6.39834C22.7425 6.8246 22.4835 7.03219 22.1097 7.10037C21.7619 7.16386 21.3951 6.87306 21.3551 6.49363C21.3193 6.15275 21.2053 5.81817 21.2348 5.46909Z" fill="black"/>
</svg>
