<svg width="61" height="61" viewBox="0 0 61 61" fill="none" xmlns="http://www.w3.org/2000/svg">
<path d="M50.3388 40.7789C47.9686 43.0513 45.7384 45.3392 43.4697 47.588C42.0464 48.9988 40.6186 50.4047 39.1973 51.8174C38.7742 52.2379 38.3586 52.6665 37.9529 53.1037C37.0098 54.1196 35.4845 54.0313 34.5857 53.1043C32.5505 51.005 30.4594 48.9599 28.3934 46.8905C27.6568 46.1528 27.5128 45.0815 28.0079 44.2098C28.1014 44.0453 28.2219 43.9111 28.3496 43.7829C30.088 42.037 31.8306 40.2952 33.571 38.5511C33.9384 38.1829 34.2999 37.8087 34.6658 37.439C34.7656 37.3382 34.8239 37.2379 34.8217 37.0795C34.81 36.2534 34.8162 35.427 34.8162 34.5779C34.6002 34.6158 34.548 34.8014 34.4356 34.9096C30.9945 38.2209 27.6569 41.6367 24.2653 44.9979C23.0489 46.2035 21.8425 47.4192 20.6315 48.6303C18.5663 50.6957 16.5005 52.7604 14.4362 54.8269C13.8202 55.4435 13.1952 56.0519 12.5983 56.6867C11.6469 57.6985 10.1275 57.6146 9.22973 56.689C7.19407 54.5902 5.11246 52.5356 3.03251 50.4803C2.29392 49.7504 2.18044 48.5379 2.66726 47.7532C2.77394 47.5814 2.91398 47.4412 3.05374 47.3013C4.77395 45.5804 6.4984 43.8637 8.21879 42.1428C9.93901 40.422 11.6544 38.6964 13.3746 36.9756C17.2801 33.0682 21.1874 29.1624 25.0935 25.2556C25.1889 25.1601 25.2794 25.0597 25.4404 24.8895C24.7255 24.8895 24.0947 24.8898 23.464 24.8894C21.2145 24.8876 18.9649 24.8697 16.7156 24.8904C15.5839 24.9009 14.5698 23.7728 14.5856 22.7055C14.63 19.7207 14.6242 16.7345 14.5864 13.7496C14.5732 12.7135 15.4372 11.516 16.8276 11.5293C19.6054 11.5559 22.3833 11.5247 25.1608 11.5313C28.9374 11.5403 32.7138 11.5367 36.4903 11.5351C38.5192 11.5343 40.5483 11.5526 42.577 11.5353C43.0434 11.5312 43.5114 11.4534 43.9807 11.4771C44.6992 11.5135 45.4189 11.5079 46.1368 11.5349C47.3384 11.5801 48.2104 12.586 48.2125 13.8797C48.2159 15.9155 48.2116 17.9514 48.213 19.9872C48.213 20.1539 48.1869 20.3235 48.2546 20.5197C48.7541 20.578 49.2675 20.5412 49.7791 20.5388C51.6874 20.53 53.5966 20.5471 55.5035 20.49C56.5753 20.458 57.6406 20.5608 58.7102 20.5339C59.9955 20.5015 60.9737 21.489 60.9811 22.821C60.9925 24.8569 61.0221 26.8938 60.9705 28.9285C60.9113 31.2696 60.9406 33.61 60.9325 35.9506C60.9228 38.7357 60.9562 41.5211 60.9634 44.3064C60.9647 44.8405 60.9655 45.3786 60.9063 45.9082C60.7915 46.935 59.8718 47.75 58.8482 47.761C56.7285 47.7836 54.6087 47.7722 52.489 47.7707C51.3185 47.7699 50.2986 46.6599 50.3273 45.6191C50.3711 44.0293 50.3388 42.4374 50.3388 40.7789ZM27.116 25.2772C23.1451 29.2462 19.1653 33.2064 15.2086 37.1896C13.3987 39.0118 11.4976 40.7458 9.81588 42.6925C9.41277 43.1591 8.90675 43.5014 8.47387 43.9252C7.03015 45.339 5.6228 46.79 4.17595 48.2006C3.65339 48.7101 3.68684 49.1197 4.16796 49.5927C5.30331 50.7092 6.4236 51.8407 7.54958 52.9666C8.45899 53.876 9.36573 54.788 10.2777 55.6949C10.7094 56.1241 11.0587 56.134 11.5128 55.7341C11.6848 55.5826 11.8413 55.4135 12.0035 55.2509C13.9268 53.3247 15.848 51.3965 17.7733 49.4722C19.8624 47.3842 21.9568 45.3015 24.046 43.2138C27.4562 39.8059 30.8663 36.3981 34.2704 32.9844C34.601 32.6528 34.9474 32.3644 35.3616 32.1921C35.7769 32.0194 36.2338 32.331 36.2338 32.7807V35.7707C37.7729 34.2229 39.2983 32.6888 40.8204 31.1581C40.7352 31.1581 40.6166 31.1587 40.4979 31.158C38.9682 31.1493 37.4384 31.123 35.9089 31.1373C34.7722 31.148 33.7692 30.0173 33.7904 28.9903C33.8334 26.9091 33.8307 24.8257 33.7897 22.7444C33.7687 21.679 34.6931 20.6032 35.7716 20.56C36.0718 20.548 36.372 20.536 36.6723 20.5362C39.9086 20.5387 43.1448 20.5437 46.381 20.5482C46.5022 20.5484 46.626 20.5635 46.7298 20.481C46.7382 20.4499 46.7528 20.421 46.7529 20.3921C46.755 18.1873 46.7605 15.9826 46.7537 13.778C46.752 13.2151 46.4328 12.9153 45.8565 12.914C45.2488 12.9127 44.6409 12.9422 44.0332 12.9425C35.5212 12.9458 27.0091 12.9467 18.4971 12.9475C17.9468 12.9476 17.3965 12.9359 16.8463 12.9433C16.3461 12.9501 16.0603 13.195 15.9944 13.6563C15.9865 13.7118 15.985 13.768 15.985 13.8241C15.9849 16.2026 15.9849 18.581 15.985 20.9595C15.985 21.5107 15.9746 22.0621 15.9888 22.613C16.0035 23.1853 16.3004 23.4708 16.8718 23.4819C17.4158 23.4923 17.9599 23.4967 18.504 23.496C21.2234 23.4921 23.9429 23.4913 26.6622 23.4752C29.1143 23.4749 27.2659 25.1274 27.116 25.2772ZM51.7499 38.8806C51.7499 41.0543 51.7477 43.2279 51.7512 45.4016C51.7523 46.1158 52.0084 46.3706 52.7185 46.3723C54.6656 46.3768 56.6127 46.3781 58.5599 46.3781C59.2431 46.3781 59.5153 46.117 59.5252 45.4455C59.5327 44.9404 59.5233 44.435 59.5234 43.9297C59.5246 36.9324 59.5265 29.935 59.5272 22.9376C59.5273 22.1764 59.2728 21.9326 58.5092 21.9342C56.8607 21.9379 55.2123 21.9373 53.5638 21.9394C49.2416 21.9451 44.9194 21.953 40.5973 21.9565C39.1132 21.9577 37.6289 21.96 36.145 21.9392C35.4956 21.9301 35.1839 22.2861 35.1852 22.8845C35.1893 24.8444 35.1842 26.8043 35.1885 28.7642C35.19 29.4442 35.4902 29.74 36.1603 29.7385C38.1806 29.7342 40.201 29.7293 42.2213 29.72C42.7127 29.7177 43.1924 29.73 43.5338 30.1649C43.8709 30.502 42.7033 31.4632 42.4885 31.6767C41.7395 32.4212 40.9843 33.1597 40.2491 33.9175C38.5671 35.6512 36.7623 37.265 35.1809 39.0966C34.7998 39.5381 34.3249 39.8736 33.9118 40.2725C32.4031 41.7293 30.943 43.2363 29.4476 44.7071C29.0446 45.1035 29.0566 45.5377 29.4529 45.9329C31.5236 47.998 33.5883 50.0692 35.6588 52.1346C36.0537 52.5285 36.4023 52.5396 36.8307 52.1945C36.9137 52.1276 36.9849 52.046 37.0605 51.9701C39.1234 49.9007 41.1842 47.8291 43.2494 45.7622C45.6078 43.402 47.9696 41.0452 50.3335 38.6906C50.9599 38.0643 51.7499 38.1682 51.7499 38.8806Z" fill="black"/>
<path d="M4.2369 34.9272C4.24581 35.2055 4.19206 35.3711 4.05368 35.509C3.40587 36.1546 2.768 36.8105 2.11045 37.446C1.80364 37.7425 1.41533 37.7278 1.13388 37.4559C0.837267 37.1694 0.818246 36.768 1.13066 36.446C1.76725 35.7898 2.4236 35.1526 3.07177 34.5076C3.31059 34.2699 3.58726 34.2897 3.87257 34.3954C4.1599 34.5019 4.22422 34.7465 4.2369 34.9272Z" fill="black"/>
<path d="M37.394 3.19949C36.7942 3.18929 36.4804 2.65358 36.7212 2.16079C36.7607 2.07993 36.8068 1.99659 36.8692 1.93356C37.4277 1.36946 37.9778 0.79609 38.5561 0.252762C39.0242 -0.187101 39.6064 -0.029882 39.8171 0.546249C39.9117 0.804727 39.809 1.00771 39.6571 1.16511C39.0317 1.81282 38.3854 2.44032 37.7498 3.07829C37.6273 3.20114 37.4807 3.20583 37.394 3.19949Z" fill="black"/>
<path d="M25.8112 56.7983C25.7788 56.5701 25.8804 56.3835 26.0325 56.2272C26.4059 55.8437 26.7738 55.4532 27.1696 55.0936C27.6493 54.6577 28.2405 54.8259 28.4208 55.4151C28.4929 55.6507 28.4214 55.8433 28.2739 55.9975C27.8406 56.4505 27.3927 56.8894 26.9462 57.3294C26.7368 57.5358 26.4719 57.5612 26.2257 57.4442C25.9729 57.324 25.768 57.1322 25.8112 56.7983Z" fill="black"/>
<path d="M34.4636 6.12469C34.4682 6.26206 34.4267 6.41175 34.2931 6.54057C33.9519 6.86962 33.6309 7.21999 33.2834 7.54187C32.9456 7.85474 32.6717 7.85897 32.3523 7.59828C32.0247 7.33089 31.9546 7.00157 32.2231 6.63439C32.547 6.1915 32.9415 5.80575 33.3861 5.47753C33.8056 5.1676 34.5091 5.46008 34.4636 6.12469Z" fill="black"/>
<path d="M29.4839 53.0827C29.4618 52.9125 29.5311 52.741 29.6593 52.6076C29.987 52.2664 30.3112 51.9185 30.6679 51.6093C31.0142 51.309 31.5089 51.3828 31.7508 51.7273C31.9369 51.9922 31.9406 52.3075 31.7069 52.562C31.3561 52.944 30.9835 53.3067 30.6079 53.6647C30.4 53.8629 30.1415 53.8773 29.886 53.7607C29.6153 53.6373 29.4796 53.4028 29.4839 53.0827Z" fill="black"/>
<path d="M23.0977 60.9334C22.5533 60.9554 22.1619 60.3559 22.4217 59.9366C22.4772 59.847 22.5188 59.744 22.5904 59.6698C22.8866 59.3627 23.1776 59.0484 23.4969 58.7665C23.9791 58.3406 24.573 58.5115 24.7393 59.0943C24.8107 59.3447 24.7352 59.5437 24.5712 59.713C24.2213 60.074 23.8542 60.4186 23.5065 60.7816C23.3843 60.9093 23.2288 60.8868 23.0977 60.9334Z" fill="black"/>
<path d="M7.41153 31.8649C7.08892 31.9007 6.85415 31.7503 6.74756 31.4804C6.64777 31.2276 6.63123 30.9433 6.8581 30.7163C7.20314 30.3712 7.53586 30.0125 7.89624 29.6842C8.21692 29.3921 8.60138 29.408 8.87971 29.6832C9.15518 29.9557 9.17576 30.3599 8.89156 30.6702C8.56224 31.0298 8.20498 31.364 7.85811 31.7074C7.73296 31.8314 7.58327 31.8948 7.41153 31.8649Z" fill="black"/>
</svg>
