<svg width="56" height="56" viewBox="0 0 56 56" fill="none" xmlns="http://www.w3.org/2000/svg">
<path d="M5.27043 39.2266C5.24992 39.1512 5.23892 39.1342 5.24271 39.1217C5.51192 38.2455 4.96666 37.7472 4.41307 37.2112C3.18446 36.0215 1.98505 34.8014 0.784078 33.5835C-0.277346 32.5071 -0.255905 30.9084 0.816702 29.8351C10.4254 20.2197 20.0436 10.6137 29.6285 0.974656C30.6544 -0.0570892 32.0661 -0.277761 33.0972 0.351131C33.2604 0.450688 33.3894 0.572358 33.5174 0.700412C40.7391 7.92735 47.9591 15.1561 55.1792 22.3847C56.2656 23.4724 56.2782 25.0229 55.1892 26.1152C50.3859 30.9324 45.578 35.745 40.771 40.5586C35.8875 45.4487 31.0038 50.3386 26.1187 55.2272C25.1624 56.1842 23.483 56.3117 22.4469 55.2733C21.0211 53.8443 19.5873 52.4232 18.1684 50.9875C17.9666 50.7832 17.7727 50.7057 17.4849 50.7167C14.8903 50.8156 12.5089 50.156 10.3703 48.6642C7.63329 46.7552 5.98261 44.1474 5.40379 40.8648C5.30528 40.3068 5.24761 39.7371 5.27043 39.2266ZM19.6648 50.4513C20.9681 51.7788 22.196 53.0733 23.4772 54.3125C23.9749 54.7938 24.6034 54.691 25.115 54.1794C29.887 49.4065 34.658 44.6324 39.4287 39.858C44.2887 34.9943 49.1477 30.1296 54.0082 25.2663C54.7351 24.539 54.7461 23.9003 54.0115 23.1644C46.9356 16.077 39.8576 8.99157 32.7784 1.9074C32.0822 1.21069 31.4538 1.21494 30.7612 1.90842C24.5952 8.08214 18.4304 14.2571 12.2643 20.4306C8.82263 23.8765 5.39233 27.3342 1.92526 30.7544C1.17066 31.4987 1.39339 32.2565 1.93635 32.7911C2.51831 33.364 3.09241 33.9448 3.66947 34.5227C4.27684 35.131 4.88366 35.7399 5.54279 36.4007C6.00941 34.2969 6.96372 32.5229 8.35582 30.9904C9.75476 29.4504 11.4668 28.3882 13.4408 27.7437C15.4046 27.1024 17.4101 26.9933 19.4186 27.419C24.2803 28.4496 28.0734 32.2397 28.7383 37.602C29.0769 40.3324 28.4916 42.9284 26.9951 45.2555C25.2647 47.9463 22.8218 49.6877 19.6648 50.4513ZM17.0118 49.3239C22.5663 49.3496 27.1127 45.0248 27.364 39.4813C27.637 33.4595 23.0569 28.8797 17.5963 28.6087C11.594 28.3108 6.83184 32.9111 6.68591 38.7098C6.5423 44.4184 11.0494 49.3028 17.0118 49.3239Z" fill="black"/>
<path d="M41.719 28.7253C41.7268 29.2202 41.2037 29.5696 40.7515 29.3641C40.5851 29.2885 40.4402 29.1797 40.3069 29.0459C37.0458 25.7738 33.7805 22.5058 30.5173 19.2359C30.4204 19.1388 30.3175 19.0395 30.2503 18.9224C30.0627 18.5954 30.07 18.2689 30.3538 18.0001C30.6207 17.7472 31.0623 17.7657 31.3495 18.0155C31.4074 18.066 31.459 18.1236 31.5133 18.1781C34.7889 21.4577 38.0636 24.738 41.342 28.0146C41.5447 28.2172 41.7051 28.4288 41.719 28.7253Z" fill="black"/>
<path d="M38.1007 32.3196C38.0959 32.6014 37.9838 32.8043 37.7488 32.9393C37.4803 33.0936 37.2226 33.0562 36.9744 32.897C36.9109 32.8562 36.8616 32.793 36.8073 32.7386C33.4682 29.3961 30.1287 26.0541 26.7911 22.7101C26.3608 22.2789 26.45 21.6985 26.9667 21.4731C27.1678 21.3854 27.3589 21.418 27.5302 21.5203C27.6865 21.6135 27.831 21.7346 27.9603 21.8638C31.2251 25.1283 34.4868 28.3957 37.7504 31.6613C37.9393 31.8502 38.1022 32.0473 38.1007 32.3196Z" fill="black"/>
<path d="M44.6457 25.7685C44.4056 25.8166 44.2458 25.6857 44.0909 25.5306C40.7373 22.1744 37.3859 18.8161 34.0242 15.4679C33.6101 15.0556 33.7018 14.6582 33.9316 14.4139C34.2474 14.0785 34.6322 14.098 35.0059 14.4715C38.3609 17.8251 41.7108 21.1838 45.0687 24.5344C45.3362 24.8012 45.4022 25.1092 45.2669 25.4159C45.1683 25.6389 44.9612 25.8446 44.6457 25.7685Z" fill="black"/>
<path d="M25.4329 19.0473C25.4179 19.7581 24.7577 20.3783 24.048 20.3483C23.3379 20.3182 22.7373 19.6981 22.7535 19.0118C22.7716 18.2447 23.3836 17.666 24.1536 17.6879C24.8465 17.7076 25.4477 18.3464 25.4329 19.0473Z" fill="black"/>
<path d="M27.7318 14.076C28.4755 14.0818 29.0527 14.6708 29.0433 15.4142C29.0342 16.1287 28.429 16.7298 27.7196 16.729C27.0176 16.7282 26.3686 16.1036 26.3753 15.4353C26.3832 14.6446 26.9567 14.07 27.7318 14.076Z" fill="black"/>
<path d="M32.6472 11.7731C32.6399 12.5595 32.1048 13.0882 31.315 13.0894C30.5997 13.0905 29.9837 12.5 29.9724 11.8023C29.961 11.0901 30.5984 10.4494 31.3157 10.4521C32.0984 10.4551 32.6543 11.0065 32.6472 11.7731Z" fill="black"/>
</svg>
